SplineFontDB: 3.0
FontName: Droid70
FullName: DroidSans70
FamilyName: Droid77
Weight: Book
Copyright: Digitized data copyright (c) 2007, Google Corporation.
Version: 1.00 build 114
ItalicAngle: 0
UnderlinePosition: -307
UnderlineWidth: 102
Ascent: 1638
Descent: 410
InvalidEm: 0
sfntRevision: 0x00010000
LayerCount: 2
Layer: 0 1 "Back" 1
Layer: 1 1 "Fore" 0
XUID: [1021 542 582384140 12999360]
StyleMap: 0x0040
FSType: 8
OS2Version: 1
OS2_WeightWidthSlopeOnly: 0
OS2_UseTypoMetrics: 0
CreationTime: 1461670235
ModificationTime: 1465983447
PfmFamily: 17
TTFWeight: 400
TTFWidth: 5
LineGap: 184
VLineGap: 0
Panose: 2 0 5 3 0 0 0 0 0 0
OS2TypoAscent: 1638
OS2TypoAOffset: 0
OS2TypoDescent: -410
OS2TypoDOffset: 0
OS2TypoLinegap: 184
OS2WinAscent: 2146
OS2WinAOffset: 0
OS2WinDescent: 555
OS2WinDOffset: 0
HheadAscent: 2146
HheadAOffset: 0
HheadDescent: -555
HheadDOffset: 0
OS2SubXSize: 1331
OS2SubYSize: 1433
OS2SubXOff: 0
OS2SubYOff: 286
OS2SupXSize: 1331
OS2SupYSize: 1433
OS2SupXOff: 0
OS2SupYOff: 983
OS2StrikeYSize: 102
OS2StrikeYPos: 530
OS2Vendor: 'PfEd'
OS2CodePages: 2000019f.00000000
OS2UnicodeRanges: e00002ef.4000225b.00000020.00000000
Lookup: 258 0 0 "'kern' Horizontal Kerning in Greek lookup 0" { "'kern' Horizontal Kerning in Greek lookup 0 subtable"  } ['kern' ('grek' <'dflt' > ) ]
Lookup: 258 0 0 "'kern' Horizontal Kerning lookup 1" { "'kern' Horizontal Kerning lookup 1 subtable"  } ['kern' ('DFLT' <'dflt' > ) ]
Lookup: 258 0 0 "'kern' Horizontal Kerning in Cyrillic lookup 2" { "'kern' Horizontal Kerning in Cyrillic lookup 2 subtable"  } ['kern' ('cyrl' <'dflt' > ) ]
Lookup: 258 0 0 "'kern' Horizontal Kerning in Latin lookup 3" { "'kern' Horizontal Kerning in Latin lookup 3 subtable"  } ['kern' ('latn' <'dflt' > ) ]
MarkAttachClasses: 1
DEI: 91125
ShortTable: maxp 16
  1
  0
  901
  239
  22
  193
  5
  2
  0
  1
  1
  0
  64
  0
  2
  2
EndShort
LangName: 1033 "" "" "" "FontForge 2.0 : DroidSans70 : 26-4-2016"
GaspTable: 1 65535 2 0
Encoding: UnicodeBmp

StartChar: .notdef
Encoding: 65536 -1 0
Width: 1229
Flags: W
LayerCount: 2
Fore
SplineSet
193 1462 m 1,0,-1
 1034 1462 l 1,1,-1
 1034 0 l 1,2,-1
 193 0 l 1,3,-1
 193 1462 l 1,0,-1
297 104 m 1,4,-1
 930 104 l 1,5,-1
 930 1358 l 1,6,-1
 297 1358 l 1,7,-1
 297 104 l 1,4,-1
EndSplineSet
EndChar

StartChar: exclam
Encoding: 33 33 4
Width: 551
GlyphClass: 2
Flags: W
LayerCount: 2
Fore
SplineSet
336 414 m 1,0,-1
 215 414 l 1,1,-1
 164 1462 l 1,2,-1
 387 1462 l 1,3,-1
 336 414 l 1,0,-1
147 111 m 128,-1,5
 147 150 147 150 157 176 c 0,6,7
 168 204 168 204 184 218 c 0,8,9
 200 236 200 236 224 242 c 0,10,11
 244 250 244 250 274 250 c 0,12,13
 303 250 303 250 324 242 c 0,14,15
 348 236 348 236 364 218 c 0,16,17
 380 204 380 204 391 176 c 0,18,19
 401 150 401 150 401 111 c 128,-1,20
 401 72 401 72 391 48 c 0,21,22
 380 20 380 20 364 4 c 0,23,24
 346 -14 346 -14 324 -21 c 0,25,26
 298 -29 298 -29 274 -29 c 0,27,28
 248 -29 248 -29 224 -21 c 0,29,30
 202 -14 202 -14 184 4 c 0,31,32
 168 20 168 20 157 48 c 0,33,4
 147 72 147 72 147 111 c 128,-1,5
EndSplineSet
EndChar

StartChar: quotedbl
Encoding: 34 34 5
Width: 823
GlyphClass: 2
Flags: W
LayerCount: 2
Fore
SplineSet
330 1462 m 1,0,-1
 289 934 l 1,1,-1
 174 934 l 1,2,-1
 133 1462 l 1,3,-1
 330 1462 l 1,0,-1
690 1462 m 1,4,-1
 649 934 l 1,5,-1
 535 934 l 1,6,-1
 494 1462 l 1,7,-1
 690 1462 l 1,4,-1
EndSplineSet
EndChar

StartChar: numbersign
Encoding: 35 35 6
Width: 1323
GlyphClass: 2
Flags: W
LayerCount: 2
Fore
SplineSet
983 893 m 1,0,-1
 920 565 l 1,1,-1
 1200 565 l 1,2,-1
 1200 428 l 1,3,-1
 893 428 l 1,4,-1
 811 0 l 1,5,-1
 664 0 l 1,6,-1
 748 428 l 1,7,-1
 457 428 l 1,8,-1
 375 0 l 1,9,-1
 231 0 l 1,10,-1
 309 428 l 1,11,-1
 51 428 l 1,12,-1
 51 565 l 1,13,-1
 336 565 l 1,14,-1
 401 893 l 1,15,-1
 127 893 l 1,16,-1
 127 1030 l 1,17,-1
 426 1030 l 1,18,-1
 508 1462 l 1,19,-1
 655 1462 l 1,20,-1
 573 1030 l 1,21,-1
 866 1030 l 1,22,-1
 950 1462 l 1,23,-1
 1094 1462 l 1,24,-1
 1010 1030 l 1,25,-1
 1272 1030 l 1,26,-1
 1272 893 l 1,27,-1
 983 893 l 1,0,-1
483 565 m 1,28,-1
 774 565 l 1,29,-1
 838 893 l 1,30,-1
 547 893 l 1,31,-1
 483 565 l 1,28,-1
EndSplineSet
EndChar

StartChar: dollar
Encoding: 36 36 7
Width: 1128
GlyphClass: 2
Flags: W
LayerCount: 2
Fore
SplineSet
985 446 m 128,-1,1
 985 375 985 375 960 319 c 0,2,3
 934 260 934 260 888 220 c 0,4,5
 845 180 845 180 776 150 c 0,6,7
 708 123 708 123 625 111 c 1,8,-1
 625 -119 l 1,9,-1
 487 -119 l 1,10,-1
 487 102 l 1,11,12
 454 102 454 102 386 106 c 1,13,14
 321 114 321 114 287 120 c 0,15,16
 235 130 235 130 197 142 c 0,17,18
 154 156 154 156 123 172 c 1,19,-1
 123 344 l 1,20,21
 161 325 161 325 200 312 c 0,22,23
 230 299 230 299 291 282 c 0,24,25
 334 270 334 270 390 260 c 0,26,27
 443 252 443 252 487 252 c 1,28,-1
 487 686 l 1,29,30
 397 717 397 717 332 749 c 0,31,32
 268 782 268 782 224 824 c 0,33,34
 181 867 181 867 160 922 c 0,35,36
 139 978 139 978 139 1051 c 0,37,38
 139 1118 139 1118 164 1174 c 0,39,40
 189 1231 189 1231 234 1270 c 0,41,42
 281 1314 281 1314 344 1338 c 0,43,44
 407 1365 407 1365 487 1374 c 1,45,-1
 487 1554 l 1,46,-1
 625 1554 l 1,47,-1
 625 1378 l 1,48,49
 722 1374 722 1374 810 1352 c 0,50,51
 895 1331 895 1331 961 1300 c 1,52,-1
 895 1155 l 1,53,54
 840 1180 840 1180 769 1200 c 0,55,56
 698 1221 698 1221 625 1227 c 1,57,-1
 625 805 l 1,58,59
 719 772 719 772 780 741 c 0,60,61
 846 710 846 710 894 666 c 0,62,63
 939 625 939 625 962 572 c 0,64,0
 985 517 985 517 985 446 c 128,-1,1
809 446 m 0,65,66
 809 480 809 480 799 506 c 0,67,68
 788 536 788 536 768 556 c 0,69,70
 748 577 748 577 711 598 c 0,71,72
 680 616 680 616 625 635 c 1,73,-1
 625 262 l 1,74,75
 717 275 717 275 764 325 c 0,76,77
 809 374 809 374 809 446 c 0,65,66
315 1049 m 0,78,79
 315 1014 315 1014 324 984 c 0,80,81
 331 957 331 957 352 932 c 0,82,83
 371 910 371 910 405 890 c 128,-1,84
 439 870 439 870 487 854 c 1,85,-1
 487 1223 l 1,86,87
 397 1206 397 1206 356 1162 c 128,-1,88
 315 1118 315 1118 315 1049 c 0,78,79
EndSplineSet
EndChar

StartChar: percent
Encoding: 37 37 8
Width: 1690
GlyphClass: 2
Flags: W
LayerCount: 2
Fore
SplineSet
250 1026 m 0,0,1
 250 862 250 862 286 778 c 0,2,3
 321 696 321 696 401 696 c 0,4,5
 557 696 557 696 557 1026 c 0,6,7
 557 1354 557 1354 401 1354 c 0,8,9
 320 1354 320 1354 286 1272 c 0,10,11
 250 1191 250 1191 250 1026 c 0,0,1
705 1026 m 0,12,13
 705 917 705 917 687 832 c 0,14,15
 668 744 668 744 632 687 c 0,16,17
 595 629 595 629 538 596 c 0,18,19
 478 565 478 565 401 565 c 0,20,21
 329 565 329 565 272 596 c 0,22,23
 214 630 214 630 178 687 c 0,24,25
 141 745 141 745 121 832 c 0,26,27
 102 915 102 915 102 1026 c 0,28,29
 102 1133 102 1133 120 1219 c 0,30,31
 137 1305 137 1305 174 1362 c 0,32,33
 208 1419 208 1419 266 1452 c 0,34,35
 322 1483 322 1483 401 1483 c 0,36,37
 477 1483 477 1483 532 1452 c 0,38,39
 591 1420 591 1420 628 1362 c 0,40,41
 665 1307 665 1307 686 1219 c 0,42,43
 705 1129 705 1129 705 1026 c 0,12,13
1133 440 m 0,44,45
 1133 277 1133 277 1168 193 c 0,46,47
 1204 111 1204 111 1284 111 c 0,48,49
 1440 111 1440 111 1440 440 c 0,50,51
 1440 768 1440 768 1284 768 c 0,52,53
 1204 768 1204 768 1168 686 c 0,54,55
 1133 604 1133 604 1133 440 c 0,44,45
1587 440 m 0,56,57
 1587 336 1587 336 1570 246 c 0,58,59
 1551 159 1551 159 1515 102 c 0,60,61
 1476 41 1476 41 1420 12 c 0,62,63
 1365 -20 1365 -20 1284 -20 c 0,64,65
 1208 -20 1208 -20 1154 12 c 0,66,67
 1101 41 1101 41 1060 102 c 0,68,69
 1024 161 1024 161 1004 246 c 0,70,71
 985 331 985 331 985 440 c 0,72,73
 985 545 985 545 1002 633 c 0,74,75
 1020 719 1020 719 1056 776 c 0,76,77
 1092 834 1092 834 1150 866 c 0,78,79
 1205 897 1205 897 1284 897 c 0,80,81
 1360 897 1360 897 1416 866 c 0,82,83
 1475 833 1475 833 1510 776 c 0,84,85
 1547 721 1547 721 1568 633 c 0,86,87
 1587 543 1587 543 1587 440 c 0,56,57
1331 1462 m 1,88,-1
 520 0 l 1,89,-1
 362 0 l 1,90,-1
 1174 1462 l 1,91,-1
 1331 1462 l 1,88,-1
EndSplineSet
EndChar

StartChar: ampersand
Encoding: 38 38 9
Width: 1438
GlyphClass: 2
Flags: W
LayerCount: 2
Fore
SplineSet
422 1165 m 0,0,1
 422 1133 422 1133 430 1098 c 0,2,3
 436 1071 436 1071 454 1034 c 0,4,5
 473 999 473 999 497 968 c 0,6,7
 518 940 518 940 559 897 c 1,8,9
 618 932 618 932 661 963 c 0,10,11
 702 992 702 992 732 1026 c 0,12,13
 760 1057 760 1057 774 1093 c 128,-1,14
 788 1129 788 1129 788 1169 c 0,15,16
 788 1204 788 1204 776 1236 c 0,17,18
 763 1265 763 1265 740 1288 c 0,19,20
 717 1310 717 1310 683 1322 c 0,21,22
 651 1335 651 1335 608 1335 c 0,23,24
 522 1335 522 1335 472 1290 c 0,25,26
 422 1246 422 1246 422 1165 c 0,0,1
557 141 m 0,27,28
 612 141 612 141 664 152 c 0,29,30
 710 163 710 163 755 184 c 0,31,32
 795 203 795 203 833 231 c 0,33,34
 873 261 873 261 901 289 c 1,35,-1
 514 696 l 1,36,37
 477 673 477 673 422 632 c 0,38,39
 382 599 382 599 354 564 c 0,40,41
 326 527 326 527 313 486 c 0,42,43
 299 441 299 441 299 387 c 0,44,45
 299 334 299 334 316 288 c 0,46,47
 334 242 334 242 367 210 c 0,48,49
 400 177 400 177 448 159 c 128,-1,50
 496 141 496 141 557 141 c 0,27,28
109 381 m 0,51,52
 109 457 109 457 129 520 c 0,53,54
 148 580 148 580 188 631 c 0,55,56
 226 681 226 681 282 724 c 0,57,58
 329 762 329 762 408 809 c 1,59,60
 381 840 381 840 347 884 c 0,61,62
 319 919 319 919 294 966 c 0,63,64
 271 1012 271 1012 258 1058 c 0,65,66
 244 1111 244 1111 244 1165 c 0,67,68
 244 1241 244 1241 269 1300 c 0,69,70
 295 1360 295 1360 341 1400 c 0,71,72
 386 1441 386 1441 457 1464 c 0,73,74
 526 1485 526 1485 614 1485 c 0,75,76
 698 1485 698 1485 762 1464 c 0,77,78
 828 1441 828 1441 874 1400 c 0,79,80
 918 1360 918 1360 943 1300 c 0,81,82
 967 1240 967 1240 967 1165 c 0,83,84
 967 1100 967 1100 942 1046 c 0,85,86
 915 989 915 989 875 946 c 0,87,88
 834 900 834 900 778 860 c 0,89,90
 727 822 727 822 664 784 c 1,91,-1
 1016 412 l 1,92,93
 1042 439 1042 439 1064 471 c 0,94,95
 1087 502 1087 502 1103 535 c 0,96,97
 1118 566 1118 566 1134 608 c 0,98,99
 1147 652 1147 652 1157 694 c 1,100,-1
 1341 694 l 1,101,102
 1328 635 1328 635 1306 572 c 0,103,104
 1284 516 1284 516 1258 468 c 0,105,106
 1237 427 1237 427 1200 376 c 0,107,108
 1165 331 1165 331 1128 293 c 1,109,-1
 1405 0 l 1,110,-1
 1180 0 l 1,111,-1
 1012 172 l 1,112,113
 958 123 958 123 915 92 c 0,114,115
 867 56 867 56 813 32 c 0,116,117
 758 6 758 6 697 -6 c 0,118,119
 640 -20 640 -20 557 -20 c 0,120,121
 454 -20 454 -20 368 6 c 0,122,123
 285 33 285 33 228 84 c 0,124,125
 170 136 170 136 140 210 c 0,126,127
 109 284 109 284 109 381 c 0,51,52
EndSplineSet
EndChar

StartChar: quotesingle
Encoding: 39 39 10
Width: 463
GlyphClass: 2
Flags: W
LayerCount: 2
Fore
SplineSet
330 1462 m 1,0,-1
 289 934 l 1,1,-1
 174 934 l 1,2,-1
 133 1462 l 1,3,-1
 330 1462 l 1,0,-1
EndSplineSet
EndChar

StartChar: parenleft
Encoding: 40 40 11
Width: 616
GlyphClass: 2
Flags: W
LayerCount: 2
Fore
SplineSet
82 561 m 128,-1,1
 82 685 82 685 100 808 c 0,2,3
 119 932 119 932 155 1044 c 0,4,5
 192 1157 192 1157 248 1264 c 0,6,7
 305 1369 305 1369 383 1462 c 1,8,-1
 555 1462 l 1,9,10
 415 1268 415 1268 342 1038 c 0,11,12
 270 807 270 807 270 563 c 0,13,14
 270 444 270 444 288 326 c 0,15,16
 308 208 308 208 342 95 c 0,17,18
 377 -15 377 -15 431 -124 c 0,19,20
 481 -225 481 -225 553 -324 c 1,21,-1
 383 -324 l 1,22,23
 304 -233 304 -233 248 -131 c 0,24,25
 193 -28 193 -28 155 84 c 0,26,27
 118 196 118 196 100 317 c 0,28,0
 82 437 82 437 82 561 c 128,-1,1
EndSplineSet
EndChar

StartChar: parenright
Encoding: 41 41 12
Width: 616
GlyphClass: 2
Flags: W
LayerCount: 2
Fore
SplineSet
535 561 m 128,-1,1
 535 437 535 437 517 317 c 0,2,3
 500 205 500 205 462 84 c 0,4,5
 422 -31 422 -31 368 -131 c 0,6,7
 312 -233 312 -233 233 -324 c 1,8,-1
 63 -324 l 1,9,10
 135 -225 135 -225 185 -124 c 0,11,12
 239 -15 239 -15 274 95 c 0,13,14
 310 208 310 208 328 326 c 128,-1,15
 346 444 346 444 346 563 c 0,16,17
 346 807 346 807 274 1038 c 0,18,19
 202 1268 202 1268 61 1462 c 1,20,-1
 233 1462 l 1,21,22
 311 1369 311 1369 368 1264 c 0,23,24
 423 1159 423 1159 462 1044 c 0,25,26
 500 923 500 923 517 808 c 0,27,0
 535 685 535 685 535 561 c 128,-1,1
EndSplineSet
EndChar

StartChar: asterisk
Encoding: 42 42 13
Width: 1128
GlyphClass: 2
Flags: W
LayerCount: 2
Fore
SplineSet
664 1556 m 1,0,-1
 621 1163 l 1,1,-1
 1018 1274 l 1,2,-1
 1044 1081 l 1,3,-1
 666 1053 l 1,4,-1
 911 727 l 1,5,-1
 733 631 l 1,6,-1
 557 989 l 1,7,-1
 399 631 l 1,8,-1
 215 727 l 1,9,-1
 457 1053 l 1,10,-1
 82 1081 l 1,11,-1
 111 1274 l 1,12,-1
 502 1163 l 1,13,-1
 459 1556 l 1,14,-1
 664 1556 l 1,0,-1
EndSplineSet
EndChar

StartChar: plus
Encoding: 43 43 14
Width: 1128
GlyphClass: 2
Flags: W
LayerCount: 2
Fore
SplineSet
489 647 m 1,0,-1
 102 647 l 1,1,-1
 102 797 l 1,2,-1
 489 797 l 1,3,-1
 489 1186 l 1,4,-1
 639 1186 l 1,5,-1
 639 797 l 1,6,-1
 1026 797 l 1,7,-1
 1026 647 l 1,8,-1
 639 647 l 1,9,-1
 639 262 l 1,10,-1
 489 262 l 1,11,-1
 489 647 l 1,0,-1
EndSplineSet
EndChar

StartChar: comma
Encoding: 44 44 15
Width: 512
GlyphClass: 2
Flags: W
LayerCount: 2
Fore
SplineSet
362 238 m 1,0,-1
 377 215 l 1,1,2
 373 200 373 200 344 100 c 1,3,4
 316 18 316 18 300 -23 c 0,5,6
 287 -58 287 -58 252 -146 c 0,7,8
 207 -250 207 -250 201 -264 c 1,9,-1
 63 -264 l 1,10,11
 82 -187 82 -187 92 -137 c 0,12,13
 112 -49 112 -49 120 -6 c 0,14,15
 133 50 133 50 145 122 c 0,16,17
 162 224 162 224 164 238 c 1,18,-1
 362 238 l 1,0,-1
EndSplineSet
EndChar

StartChar: hyphen
Encoding: 45 45 16
Width: 659
GlyphClass: 2
Flags: W
LayerCount: 2
Fore
SplineSet
82 465 m 1,0,-1
 82 633 l 1,1,-1
 578 633 l 1,2,-1
 578 465 l 1,3,-1
 82 465 l 1,0,-1
EndSplineSet
EndChar

StartChar: period
Encoding: 46 46 17
Width: 549
GlyphClass: 2
Flags: W
LayerCount: 2
Fore
SplineSet
147 111 m 128,-1,1
 147 150 147 150 157 176 c 0,2,3
 168 204 168 204 184 218 c 0,4,5
 200 236 200 236 224 242 c 0,6,7
 244 250 244 250 274 250 c 0,8,9
 303 250 303 250 324 242 c 0,10,11
 348 236 348 236 364 218 c 0,12,13
 380 204 380 204 391 176 c 0,14,15
 401 150 401 150 401 111 c 128,-1,16
 401 72 401 72 391 48 c 0,17,18
 380 20 380 20 364 4 c 0,19,20
 346 -14 346 -14 324 -21 c 0,21,22
 298 -29 298 -29 274 -29 c 0,23,24
 248 -29 248 -29 224 -21 c 0,25,26
 202 -14 202 -14 184 4 c 0,27,28
 168 20 168 20 157 48 c 0,29,0
 147 72 147 72 147 111 c 128,-1,1
EndSplineSet
EndChar

StartChar: slash
Encoding: 47 47 18
Width: 764
GlyphClass: 2
Flags: W
LayerCount: 2
Fore
SplineSet
743 1462 m 1,0,-1
 199 0 l 1,1,-1
 20 0 l 1,2,-1
 565 1462 l 1,3,-1
 743 1462 l 1,0,-1
EndSplineSet
EndChar

StartChar: zero
Encoding: 48 48 19
Width: 1128
GlyphClass: 2
Flags: W
LayerCount: 2
Fore
SplineSet
1032 733 m 0,0,1
 1032 550 1032 550 1006 416 c 0,2,3
 982 279 982 279 924 179 c 0,4,5
 869 83 869 83 779 31 c 0,6,7
 690 -20 690 -20 563 -20 c 0,8,9
 445 -20 445 -20 358 31 c 0,10,11
 271 81 271 81 212 179 c 0,12,13
 157 274 157 274 126 416 c 0,14,15
 98 561 98 561 98 733 c 0,16,17
 98 916 98 916 124 1050 c 0,18,19
 147 1185 147 1185 204 1286 c 0,20,21
 261 1383 261 1383 348 1434 c 0,22,23
 438 1485 438 1485 563 1485 c 0,24,25
 682 1485 682 1485 770 1434 c 0,26,27
 857 1386 857 1386 916 1288 c 0,28,29
 974 1190 974 1190 1003 1051 c 0,30,31
 1032 909 1032 909 1032 733 c 0,0,1
283 733 m 128,-1,33
 283 584 283 584 298 471 c 0,34,35
 313 359 313 359 346 284 c 0,36,37
 378 212 378 212 432 172 c 0,38,39
 488 135 488 135 563 135 c 0,40,41
 641 135 641 135 694 172 c 0,42,43
 749 211 749 211 782 283 c 0,44,45
 817 354 817 354 832 470 c 0,46,47
 848 578 848 578 848 733 c 0,48,49
 848 886 848 886 832 995 c 0,50,51
 817 1110 817 1110 782 1181 c 0,52,53
 749 1253 749 1253 694 1292 c 0,54,55
 641 1329 641 1329 563 1329 c 128,-1,56
 485 1329 485 1329 432 1292 c 0,57,58
 379 1254 379 1254 346 1181 c 256,59,60
 313 1108 313 1108 298 995 c 256,61,32
 283 882 283 882 283 733 c 128,-1,33
EndSplineSet
EndChar

StartChar: one
Encoding: 49 49 20
Width: 1128
GlyphClass: 2
Flags: W
LayerCount: 2
Fore
SplineSet
711 0 m 1,0,-1
 535 0 l 1,1,-1
 535 913 l 2,2,3
 535 972 535 972 536 1005 c 0,4,5
 536 1070 536 1070 538 1102 c 0,6,7
 538 1119 538 1119 539 1150 c 128,-1,8
 540 1181 540 1181 540 1196 c 0,9,10
 541 1213 541 1213 542 1241.5 c 128,-1,11
 543 1270 543 1270 543 1274 c 1,12,13
 532 1262 532 1262 513 1243 c 0,14,15
 496 1226 496 1226 486 1218 c 0,16,17
 482 1214 482 1214 472.5 1205.5 c 128,-1,18
 463 1197 463 1197 458 1192 c 0,19,20
 454 1188 454 1188 448 1183.5 c 128,-1,21
 442 1179 442 1179 434.5 1172 c 128,-1,22
 427 1165 427 1165 422 1161 c 2,23,-1
 274 1040 l 1,24,-1
 178 1163 l 1,25,-1
 561 1462 l 1,26,-1
 711 1462 l 1,27,-1
 711 0 l 1,0,-1
EndSplineSet
EndChar

StartChar: two
Encoding: 50 50 21
Width: 1128
GlyphClass: 2
Flags: W
LayerCount: 2
Fore
SplineSet
1008 0 m 1,0,-1
 96 0 l 1,1,-1
 96 156 l 1,2,-1
 446 537 l 2,3,4
 536 634 536 634 580 685 c 0,5,6
 644 759 644 759 680 816 c 0,7,8
 720 878 720 878 744 944 c 0,9,10
 766 1009 766 1009 766 1085 c 0,11,12
 766 1143 766 1143 749 1189 c 0,13,14
 733 1233 733 1233 700 1266 c 0,15,16
 670 1296 670 1296 626 1313 c 0,17,18
 584 1329 584 1329 530 1329 c 0,19,20
 436 1329 436 1329 358 1290 c 0,21,22
 282 1252 282 1252 213 1192 c 1,23,-1
 111 1311 l 1,24,25
 158 1353 158 1353 197 1378 c 0,26,27
 242 1410 242 1410 296 1433 c 0,28,29
 344 1454 344 1454 408 1470 c 0,30,31
 471 1483 471 1483 532 1483 c 0,32,33
 628 1483 628 1483 706 1456 c 0,34,35
 783 1429 783 1429 837 1378 c 0,36,37
 891 1328 891 1328 920 1256 c 0,38,39
 950 1182 950 1182 950 1092 c 0,40,41
 950 1008 950 1008 924 930 c 0,42,43
 895 849 895 849 850 778 c 0,44,45
 809 711 809 711 740 629 c 0,46,47
 655 532 655 532 600 473 c 2,48,-1
 319 174 l 1,49,-1
 319 166 l 1,50,-1
 1008 166 l 1,51,-1
 1008 0 l 1,0,-1
EndSplineSet
EndChar

StartChar: three
Encoding: 51 51 22
Width: 1128
GlyphClass: 2
Flags: W
LayerCount: 2
Fore
SplineSet
961 1120 m 0,0,1
 961 1048 961 1048 938 987 c 0,2,3
 916 928 916 928 874 883 c 0,4,5
 832 840 832 840 774 810 c 0,6,7
 712 781 712 781 645 770 c 1,8,-1
 645 764 l 1,9,10
 823 741 823 741 914 652 c 0,11,12
 1006 560 1006 560 1006 416 c 0,13,14
 1006 321 1006 321 974 240 c 0,15,16
 941 160 941 160 875 102 c 256,17,18
 809 44 809 44 708 12 c 0,19,20
 606 -20 606 -20 469 -20 c 0,21,22
 363 -20 363 -20 264 -3 c 0,23,24
 169 13 169 13 82 59 c 1,25,-1
 82 229 l 1,26,27
 165 185 165 185 270 158 c 0,28,29
 370 133 370 133 465 133 c 0,30,31
 555 133 555 133 624 153 c 0,32,33
 692 173 692 173 734 210 c 0,34,35
 779 247 779 247 798 301 c 0,36,37
 819 355 819 355 819 422 c 0,38,39
 819 490 819 490 792 538 c 0,40,41
 766 588 766 588 717 618 c 0,42,43
 670 649 670 649 598 665 c 0,44,45
 526 680 526 680 438 680 c 2,46,-1
 305 680 l 1,47,-1
 305 831 l 1,48,-1
 438 831 l 2,49,50
 517 831 517 831 582 851 c 0,51,52
 644 870 644 870 688 908 c 0,53,54
 730 945 730 945 752 996 c 0,55,56
 774 1046 774 1046 774 1108 c 0,57,58
 774 1160 774 1160 756 1201 c 0,59,60
 737 1244 737 1244 705 1270 c 0,61,62
 673 1299 673 1299 626 1314 c 0,63,64
 580 1329 580 1329 524 1329 c 0,65,66
 417 1329 417 1329 336 1296 c 0,67,68
 252 1261 252 1261 180 1208 c 1,69,-1
 88 1333 l 1,70,71
 120 1360 120 1360 172 1391 c 0,72,73
 225 1421 225 1421 274 1438 c 0,74,75
 330 1459 330 1459 392 1471 c 256,76,77
 454 1483 454 1483 524 1483 c 0,78,79
 632 1483 632 1483 714 1456 c 0,80,81
 795 1429 795 1429 850 1380 c 0,82,83
 904 1333 904 1333 933 1266 c 0,84,85
 961 1200 961 1200 961 1120 c 0,0,1
EndSplineSet
EndChar

StartChar: four
Encoding: 52 52 23
Width: 1128
GlyphClass: 2
Flags: W
LayerCount: 2
Fore
SplineSet
1087 328 m 1,0,-1
 874 328 l 1,1,-1
 874 0 l 1,2,-1
 698 0 l 1,3,-1
 698 328 l 1,4,-1
 23 328 l 1,5,-1
 23 487 l 1,6,-1
 686 1470 l 1,7,-1
 874 1470 l 1,8,-1
 874 494 l 1,9,-1
 1087 494 l 1,10,-1
 1087 328 l 1,0,-1
698 494 m 1,11,-1
 698 850 l 2,12,13
 698 926 698 926 700 968 c 2,14,-1
 703 1088 l 2,15,16
 704 1131 704 1131 708 1197 c 0,17,18
 709 1246 709 1246 711 1282 c 1,19,-1
 702 1282 l 1,20,21
 689 1247 689 1247 684 1238 c 0,22,23
 679 1225 679 1225 662 1188 c 0,24,25
 659 1183 659 1183 650 1166.5 c 128,-1,26
 641 1150 641 1150 636 1141 c 0,27,28
 622 1118 622 1118 612 1102 c 2,29,-1
 201 494 l 1,30,-1
 698 494 l 1,11,-1
EndSplineSet
EndChar

StartChar: five
Encoding: 53 53 24
Width: 1128
GlyphClass: 2
Flags: W
LayerCount: 2
Fore
SplineSet
545 897 m 0,0,1
 643 897 643 897 730 870 c 0,2,3
 817 841 817 841 878 788 c 0,4,5
 941 735 941 735 978 654 c 0,6,7
 1014 575 1014 575 1014 469 c 0,8,9
 1014 354 1014 354 980 264 c 0,10,11
 945 172 945 172 879 110 c 0,12,13
 812 47 812 47 714 14 c 0,14,15
 616 -20 616 -20 487 -20 c 0,16,17
 443 -20 443 -20 386 -15 c 0,18,19
 336 -10 336 -10 292 0 c 0,20,21
 246 9 246 9 205 24 c 0,22,23
 165 39 165 39 131 59 c 1,24,-1
 131 231 l 1,25,26
 165 208 165 208 208 190 c 0,27,28
 254 172 254 172 302 160 c 0,29,30
 351 148 351 148 400 142 c 0,31,32
 448 135 448 135 492 135 c 0,33,34
 573 135 573 135 633 154 c 0,35,36
 694 172 694 172 738 211 c 0,37,38
 781 250 781 250 804 309 c 0,39,40
 827 369 827 369 827 449 c 0,41,42
 827 592 827 592 739 668 c 0,43,44
 650 743 650 743 483 743 c 0,45,46
 457 743 457 743 424 740 c 0,47,48
 391 738 391 738 362 734 c 0,49,50
 309 727 309 727 302 726 c 0,51,52
 292 724 292 724 275.5 721.5 c 128,-1,53
 259 719 259 719 252 717 c 1,54,-1
 162 774 l 1,55,-1
 217 1462 l 1,56,-1
 907 1462 l 1,57,-1
 907 1296 l 1,58,-1
 375 1296 l 1,59,-1
 336 877 l 1,60,61
 351 880 351 880 420 890 c 0,62,63
 470 897 470 897 545 897 c 0,0,1
EndSplineSet
EndChar

StartChar: six
Encoding: 54 54 25
Width: 1128
GlyphClass: 2
Flags: W
LayerCount: 2
Fore
SplineSet
113 625 m 0,0,1
 113 739 113 739 124 834 c 0,2,3
 132 930 132 930 160 1034 c 0,4,5
 188 1130 188 1130 233 1211 c 128,-1,6
 278 1292 278 1292 350 1354 c 0,7,8
 422 1415 422 1415 520 1448 c 0,9,10
 616 1483 616 1483 752 1483 c 0,11,12
 779 1483 779 1483 794 1482 c 0,13,14
 826 1480 826 1480 840 1478 c 0,15,16
 863 1477 863 1477 886 1472 c 0,17,18
 904 1469 904 1469 924 1464 c 1,19,-1
 924 1309 l 1,20,21
 890 1321 890 1321 845 1327 c 0,22,23
 802 1333 802 1333 758 1333 c 0,24,25
 668 1333 668 1333 600 1312 c 0,26,27
 529 1289 529 1289 481 1251 c 0,28,29
 431 1211 431 1211 398 1158 c 0,30,31
 364 1106 364 1106 343 1038 c 0,32,33
 323 977 323 977 312 899 c 0,34,35
 302 831 302 831 299 745 c 1,36,-1
 311 745 l 1,37,38
 332 784 332 784 360 812 c 0,39,40
 386 843 386 843 426 866 c 0,41,42
 459 887 459 887 512 902 c 0,43,44
 557 915 557 915 618 915 c 0,45,46
 712 915 712 915 790 886 c 0,47,48
 867 856 867 856 921 799 c 128,-1,49
 975 742 975 742 1004 660 c 0,50,51
 1034 576 1034 576 1034 471 c 0,52,53
 1034 356 1034 356 1003 266 c 0,54,55
 971 174 971 174 914 112 c 0,56,57
 856 48 856 48 774 14 c 0,58,59
 693 -20 693 -20 590 -20 c 0,60,61
 490 -20 490 -20 402 19 c 0,62,63
 316 57 316 57 251 138 c 0,64,65
 188 216 188 216 150 339 c 0,66,67
 113 459 113 459 113 625 c 0,0,1
588 133 m 0,68,69
 647 133 647 133 698 154 c 0,70,71
 747 174 747 174 783 216 c 0,72,73
 820 258 820 258 838 320 c 0,74,75
 858 381 858 381 858 471 c 0,76,77
 858 538 858 538 842 596 c 0,78,79
 824 653 824 653 792 691 c 128,-1,80
 760 729 760 729 710 751 c 0,81,82
 659 772 659 772 594 772 c 0,83,84
 526 772 526 772 472 748 c 0,85,86
 420 727 420 727 377 688 c 0,87,88
 338 649 338 649 316 602 c 0,89,90
 295 554 295 554 295 506 c 0,91,92
 295 438 295 438 314 372 c 0,93,94
 332 305 332 305 368 253 c 0,95,96
 406 199 406 199 460 166 c 0,97,98
 516 133 516 133 588 133 c 0,68,69
EndSplineSet
EndChar

StartChar: seven
Encoding: 55 55 26
Width: 1128
GlyphClass: 2
Flags: W
LayerCount: 2
Fore
SplineSet
281 0 m 1,0,-1
 844 1296 l 1,1,-1
 90 1296 l 1,2,-1
 90 1462 l 1,3,-1
 1030 1462 l 1,4,-1
 1030 1317 l 1,5,-1
 475 0 l 1,6,-1
 281 0 l 1,0,-1
EndSplineSet
EndChar

StartChar: eight
Encoding: 56 56 27
Width: 1128
GlyphClass: 2
Flags: W
LayerCount: 2
Fore
SplineSet
565 1485 m 0,0,1
 651 1485 651 1485 724 1463 c 0,2,3
 799 1440 799 1440 854 1397 c 0,4,5
 911 1354 911 1354 944 1287 c 0,6,7
 977 1221 977 1221 977 1133 c 0,8,9
 977 1067 977 1067 957 1012 c 0,10,11
 939 962 939 962 902 914 c 0,12,13
 868 873 868 873 819 836 c 0,14,15
 770 802 770 802 715 774 c 1,16,17
 776 741 776 741 828 705 c 0,18,19
 877 673 877 673 928 620 c 0,20,21
 972 570 972 570 998 513 c 0,22,23
 1024 453 1024 453 1024 381 c 0,24,25
 1024 288 1024 288 990 214 c 0,26,27
 957 140 957 140 896 88 c 0,28,29
 838 37 838 37 752 8 c 0,30,31
 668 -20 668 -20 565 -20 c 0,32,33
 454 -20 454 -20 370 7 c 0,34,35
 284 34 284 34 226 84 c 0,36,37
 168 133 168 133 136 208 c 0,38,39
 106 282 106 282 106 373 c 0,40,41
 106 445 106 445 128 508 c 0,42,43
 153 569 153 569 189 616 c 0,44,45
 226 663 226 663 279 701 c 0,46,47
 329 737 329 737 389 766 c 1,48,49
 339 798 339 798 297 834 c 0,50,51
 257 867 257 867 222 915 c 0,52,53
 191 962 191 962 172 1014 c 0,54,55
 154 1070 154 1070 154 1135 c 0,56,57
 154 1223 154 1223 188 1288 c 0,58,59
 222 1354 222 1354 278 1397 c 0,60,61
 335 1440 335 1440 410 1463 c 0,62,63
 482 1485 482 1485 565 1485 c 0,0,1
285 371 m 0,64,65
 285 316 285 316 301 274 c 0,66,67
 319 226 319 226 351 198 c 0,68,69
 384 166 384 166 437 148 c 0,70,71
 491 131 491 131 561 131 c 0,72,73
 630 131 630 131 684 148 c 0,74,75
 737 166 737 166 774 198 c 0,76,77
 810 231 810 231 828 277 c 0,78,79
 846 324 846 324 846 379 c 0,80,81
 846 433 846 433 826 473 c 0,82,83
 808 514 808 514 770 551 c 0,84,85
 733 588 733 588 683 619 c 0,86,87
 632 650 632 650 569 682 c 2,88,-1
 539 696 l 1,89,90
 414 636 414 636 349 558 c 0,91,92
 285 482 285 482 285 371 c 0,64,65
563 1333 m 0,93,94
 458 1333 458 1333 394 1280 c 0,95,96
 332 1227 332 1227 332 1126 c 0,97,98
 332 1068 332 1068 350 1028 c 0,99,100
 367 986 367 986 398 955 c 0,101,102
 432 921 432 921 472 898 c 0,103,104
 513 873 513 873 567 848 c 1,105,106
 613 869 613 869 658 896 c 0,107,108
 696 919 696 919 732 955 c 0,109,110
 764 990 764 990 781 1030 c 0,111,112
 799 1072 799 1072 799 1126 c 0,113,114
 799 1228 799 1228 736 1280 c 0,115,116
 672 1333 672 1333 563 1333 c 0,93,94
EndSplineSet
EndChar

StartChar: nine
Encoding: 57 57 28
Width: 1128
GlyphClass: 2
Flags: W
LayerCount: 2
Fore
SplineSet
1028 838 m 0,0,1
 1028 745 1028 745 1018 628 c 0,2,3
 1005 517 1005 517 980 429 c 0,4,5
 954 332 954 332 908 252 c 0,6,7
 863 170 863 170 791 109 c 0,8,9
 723 51 723 51 621 14 c 0,10,11
 519 -20 519 -20 389 -20 c 0,12,13
 362 -20 362 -20 347 -19 c 0,14,15
 340 -18 340 -18 324.5 -17 c 128,-1,16
 309 -16 309 -16 301 -16 c 2,17,-1
 256 -10 l 2,18,19
 237 -7 237 -7 217 -2 c 1,20,-1
 217 154 l 1,21,22
 249 141 249 141 296 135 c 0,23,24
 340 129 340 129 383 129 c 0,25,26
 517 129 517 129 605 176 c 0,27,28
 692 222 692 222 743 304 c 0,29,30
 793 382 793 382 816 491 c 0,31,32
 838 600 838 600 842 717 c 1,33,-1
 829 717 l 1,34,35
 810 682 810 682 781 650 c 256,36,37
 752 618 752 618 715 596 c 256,38,39
 678 574 678 574 629 560 c 0,40,41
 583 547 583 547 522 547 c 0,42,43
 428 547 428 547 350 576 c 0,44,45
 273 606 273 606 219 663 c 128,-1,46
 165 720 165 720 136 802 c 0,47,48
 106 886 106 886 106 991 c 0,49,50
 106 1109 106 1109 138 1196 c 0,51,52
 167 1285 167 1285 226 1352 c 0,53,54
 283 1414 283 1414 366 1449 c 0,55,56
 449 1483 449 1483 551 1483 c 0,57,58
 652 1483 652 1483 739 1444 c 0,59,60
 825 1406 825 1406 890 1325 c 0,61,62
 952 1248 952 1248 991 1124 c 0,63,64
 1028 1003 1028 1003 1028 838 c 0,0,1
553 1329 m 0,65,66
 493 1329 493 1329 444 1309 c 0,67,68
 395 1290 395 1290 358 1247 c 0,69,70
 324 1207 324 1207 302 1142 c 0,71,72
 283 1074 283 1074 283 991 c 0,73,74
 283 917 283 917 300 866 c 0,75,76
 314 812 314 812 349 771 c 0,77,78
 383 731 383 731 432 711 c 0,79,80
 480 690 480 690 547 690 c 256,81,82
 614 690 614 690 670 714 c 0,83,84
 722 735 722 735 764 774 c 0,85,86
 804 814 804 814 824 860 c 0,87,88
 846 907 846 907 846 956 c 0,89,90
 846 1023 846 1023 828 1090 c 0,91,92
 808 1159 808 1159 772 1210 c 0,93,94
 735 1264 735 1264 681 1296 c 0,95,96
 626 1329 626 1329 553 1329 c 0,65,66
EndSplineSet
EndChar

StartChar: colon
Encoding: 58 58 29
Width: 549
GlyphClass: 2
Flags: W
LayerCount: 2
Fore
SplineSet
147 111 m 128,-1,1
 147 150 147 150 157 176 c 0,2,3
 168 204 168 204 184 218 c 0,4,5
 200 236 200 236 224 242 c 0,6,7
 244 250 244 250 274 250 c 0,8,9
 303 250 303 250 324 242 c 0,10,11
 348 236 348 236 364 218 c 0,12,13
 380 204 380 204 391 176 c 0,14,15
 401 150 401 150 401 111 c 128,-1,16
 401 72 401 72 391 48 c 0,17,18
 380 20 380 20 364 4 c 0,19,20
 346 -14 346 -14 324 -21 c 0,21,22
 298 -29 298 -29 274 -29 c 0,23,24
 248 -29 248 -29 224 -21 c 0,25,26
 202 -14 202 -14 184 4 c 0,27,28
 168 20 168 20 157 48 c 0,29,0
 147 72 147 72 147 111 c 128,-1,1
147 987 m 0,30,31
 147 1028 147 1028 157 1052 c 0,32,33
 167 1077 167 1077 184 1096 c 0,34,35
 201 1111 201 1111 224 1119 c 0,36,37
 245 1126 245 1126 274 1126 c 0,38,39
 302 1126 302 1126 324 1119 c 0,40,41
 347 1111 347 1111 364 1096 c 0,42,43
 381 1077 381 1077 391 1052 c 0,44,45
 401 1028 401 1028 401 987 c 0,46,47
 401 948 401 948 391 924 c 0,48,49
 380 897 380 897 364 881 c 0,50,51
 346 864 346 864 324 856 c 0,52,53
 298 848 298 848 274 848 c 0,54,55
 248 848 248 848 224 856 c 0,56,57
 202 864 202 864 184 881 c 0,58,59
 168 897 168 897 157 924 c 0,60,61
 147 948 147 948 147 987 c 0,30,31
EndSplineSet
EndChar

StartChar: semicolon
Encoding: 59 59 30
Width: 549
GlyphClass: 2
Flags: W
LayerCount: 2
Fore
SplineSet
362 238 m 1,0,-1
 377 215 l 1,1,2
 373 200 373 200 344 100 c 1,3,4
 316 18 316 18 300 -23 c 0,5,6
 287 -58 287 -58 252 -146 c 0,7,8
 207 -250 207 -250 201 -264 c 1,9,-1
 63 -264 l 1,10,11
 82 -187 82 -187 92 -137 c 0,12,13
 112 -49 112 -49 120 -6 c 0,14,15
 133 50 133 50 145 122 c 0,16,17
 162 224 162 224 164 238 c 1,18,-1
 362 238 l 1,0,-1
147 987 m 0,19,20
 147 1028 147 1028 157 1052 c 0,21,22
 167 1077 167 1077 184 1096 c 0,23,24
 201 1111 201 1111 224 1119 c 0,25,26
 245 1126 245 1126 274 1126 c 0,27,28
 302 1126 302 1126 324 1119 c 0,29,30
 347 1111 347 1111 364 1096 c 0,31,32
 381 1077 381 1077 391 1052 c 0,33,34
 401 1028 401 1028 401 987 c 0,35,36
 401 948 401 948 391 924 c 0,37,38
 380 897 380 897 364 881 c 0,39,40
 346 864 346 864 324 856 c 0,41,42
 298 848 298 848 274 848 c 0,43,44
 248 848 248 848 224 856 c 0,45,46
 202 864 202 864 184 881 c 0,47,48
 168 897 168 897 157 924 c 0,49,50
 147 948 147 948 147 987 c 0,19,20
EndSplineSet
EndChar

StartChar: less
Encoding: 60 60 31
Width: 1128
GlyphClass: 2
Flags: W
LayerCount: 2
Fore
SplineSet
1026 238 m 1,0,-1
 102 662 l 1,1,-1
 102 764 l 1,2,-1
 1026 1245 l 1,3,-1
 1026 1085 l 1,4,-1
 291 721 l 1,5,-1
 1026 399 l 1,6,-1
 1026 238 l 1,0,-1
EndSplineSet
EndChar

StartChar: equal
Encoding: 61 61 32
Width: 1128
GlyphClass: 2
Flags: W
LayerCount: 2
Fore
SplineSet
102 852 m 1,0,-1
 102 1001 l 1,1,-1
 1026 1001 l 1,2,-1
 1026 852 l 1,3,-1
 102 852 l 1,0,-1
102 442 m 1,4,-1
 102 592 l 1,5,-1
 1026 592 l 1,6,-1
 1026 442 l 1,7,-1
 102 442 l 1,4,-1
EndSplineSet
EndChar

StartChar: greater
Encoding: 62 62 33
Width: 1128
GlyphClass: 2
Flags: W
LayerCount: 2
Fore
SplineSet
102 399 m 1,0,-1
 838 721 l 1,1,-1
 102 1085 l 1,2,-1
 102 1245 l 1,3,-1
 1026 764 l 1,4,-1
 1026 662 l 1,5,-1
 102 238 l 1,6,-1
 102 399 l 1,0,-1
EndSplineSet
EndChar

StartChar: question
Encoding: 63 63 34
Width: 872
GlyphClass: 2
Flags: W
LayerCount: 2
Fore
SplineSet
281 414 m 1,0,-1
 281 451 l 2,1,2
 281 500 281 500 288 554 c 0,3,4
 298 605 298 605 316 640 c 0,5,6
 333 678 333 678 368 718 c 0,7,8
 400 755 400 755 451 799 c 0,9,10
 496 837 496 837 533 874 c 0,11,12
 568 907 568 907 588 942 c 0,13,14
 611 976 611 976 620 1016 c 0,15,16
 631 1052 631 1052 631 1108 c 0,17,18
 631 1156 631 1156 616 1196 c 0,19,20
 601 1235 601 1235 572 1264 c 0,21,22
 545 1291 545 1291 502 1308 c 0,23,24
 458 1323 458 1323 403 1323 c 0,25,26
 321 1323 321 1323 245 1297 c 0,27,28
 172 1272 172 1272 100 1237 c 1,29,-1
 37 1382 l 1,30,31
 119 1424 119 1424 212 1454 c 0,32,33
 308 1483 308 1483 403 1483 c 0,34,35
 493 1483 493 1483 570 1458 c 0,36,37
 646 1431 646 1431 697 1384 c 128,-1,38
 748 1337 748 1337 777 1266 c 0,39,40
 805 1198 805 1198 805 1110 c 0,41,42
 805 1048 805 1048 792 990 c 1,43,44
 775 934 775 934 751 893 c 0,45,46
 723 847 723 847 684 806 c 0,47,48
 638 759 638 759 590 717 c 0,49,50
 538 672 538 672 505 638 c 0,51,52
 475 608 475 608 453 574 c 0,53,54
 435 543 435 543 427 509 c 0,55,56
 420 478 420 478 420 432 c 2,57,-1
 420 414 l 1,58,-1
 281 414 l 1,0,-1
233 111 m 128,-1,60
 233 150 233 150 243 176 c 0,61,62
 254 204 254 204 270 218 c 0,63,64
 286 236 286 236 310 242 c 0,65,66
 330 250 330 250 360 250 c 0,67,68
 389 250 389 250 410 242 c 0,69,70
 434 236 434 236 450 218 c 0,71,72
 466 204 466 204 477 176 c 0,73,74
 487 150 487 150 487 111 c 128,-1,75
 487 72 487 72 477 48 c 0,76,77
 466 20 466 20 450 4 c 0,78,79
 432 -14 432 -14 410 -21 c 0,80,81
 384 -29 384 -29 360 -29 c 0,82,83
 334 -29 334 -29 310 -21 c 0,84,85
 288 -14 288 -14 270 4 c 0,86,87
 254 20 254 20 243 48 c 0,88,59
 233 72 233 72 233 111 c 128,-1,60
EndSplineSet
EndChar

StartChar: at
Encoding: 64 64 35
Width: 1774
GlyphClass: 2
Flags: W
LayerCount: 2
Fore
SplineSet
1665 731 m 0,0,1
 1665 669 1665 669 1656 606 c 0,2,3
 1645 539 1645 539 1628 488 c 0,4,5
 1607 426 1607 426 1580 382 c 0,6,7
 1555 337 1555 337 1514 298 c 0,8,9
 1476 261 1476 261 1428 242 c 0,10,11
 1378 221 1378 221 1321 221 c 0,12,13
 1276 221 1276 221 1240 236 c 0,14,15
 1202 251 1202 251 1177 276 c 128,-1,16
 1152 301 1152 301 1134 334 c 0,17,18
 1118 368 1118 368 1112 401 c 1,19,-1
 1108 401 l 1,20,21
 1091 365 1091 365 1063 331 c 0,22,23
 1036 298 1036 298 1000 274 c 0,24,25
 966 249 966 249 920 235 c 0,26,27
 875 221 875 221 823 221 c 0,28,29
 745 221 745 221 686 249 c 0,30,31
 625 279 625 279 586 328 c 0,32,33
 545 378 545 378 524 449 c 0,34,35
 502 518 502 518 502 606 c 0,36,37
 502 707 502 707 532 791 c 0,38,39
 559 871 559 871 616 936 c 0,40,41
 672 997 672 997 751 1031 c 0,42,43
 829 1065 829 1065 928 1065 c 0,44,45
 978 1065 978 1065 1018 1061 c 0,46,47
 1076 1055 1076 1055 1104 1050 c 0,48,49
 1150 1041 1150 1041 1180 1034 c 0,50,51
 1208 1028 1208 1028 1237 1018 c 1,52,-1
 1214 602 l 2,53,54
 1214 596 1214 596 1213.5 583.5 c 128,-1,55
 1213 571 1213 571 1212 566 c 2,56,-1
 1212 545 l 1,57,-1
 1212 533 l 1,58,-1
 1212 526 l 2,59,60
 1212 477 1212 477 1222 439 c 0,61,62
 1234 403 1234 403 1250 385 c 0,63,64
 1268 364 1268 364 1288 358 c 0,65,66
 1308 350 1308 350 1333 350 c 0,67,68
 1380 350 1380 350 1414 380 c 0,69,70
 1451 414 1451 414 1472 463 c 0,71,72
 1496 516 1496 516 1508 585 c 0,73,74
 1520 656 1520 656 1520 733 c 0,75,76
 1520 876 1520 876 1477 986 c 0,77,78
 1433 1097 1433 1097 1358 1172 c 128,-1,79
 1283 1247 1283 1247 1178 1288 c 0,80,81
 1073 1327 1073 1327 950 1327 c 0,82,83
 783 1327 783 1327 652 1272 c 0,84,85
 521 1214 521 1214 436 1116 c 0,86,87
 348 1017 348 1017 303 880 c 0,88,89
 258 745 258 745 258 582 c 0,90,91
 258 430 258 430 298 314 c 0,92,93
 338 195 338 195 414 117 c 0,94,95
 490 37 490 37 604 -4 c 128,-1,96
 718 -45 718 -45 864 -45 c 0,97,98
 929 -45 929 -45 984 -38 c 0,99,100
 1047 -30 1047 -30 1100 -19 c 0,101,102
 1160 -6 1160 -6 1205 8 c 0,103,104
 1254 24 1254 24 1298 41 c 1,105,-1
 1298 -100 l 1,106,107
 1213 -137 1213 -137 1104 -160 c 0,108,109
 998 -182 998 -182 866 -182 c 0,110,111
 687 -182 687 -182 546 -131 c 0,112,113
 406 -80 406 -80 308 18 c 0,114,115
 211 115 211 115 160 256 c 0,116,117
 109 396 109 396 109 575 c 0,118,119
 109 761 109 761 168 926 c 0,120,121
 226 1086 226 1086 336 1207 c 0,122,123
 449 1328 449 1328 602 1394 c 0,124,125
 758 1462 758 1462 950 1462 c 0,126,127
 1105 1462 1105 1462 1237 1412 c 0,128,129
 1370 1360 1370 1360 1464 1266 c 0,130,131
 1560 1172 1560 1172 1612 1036 c 0,132,133
 1665 900 1665 900 1665 731 c 0,0,1
662 602 m 0,134,135
 662 469 662 469 712 410 c 0,136,137
 763 350 763 350 848 350 c 0,138,139
 901 350 901 350 942 372 c 0,140,141
 981 396 981 396 1006 436 c 0,142,143
 1030 476 1030 476 1044 536 c 0,144,145
 1056 587 1056 587 1061 662 c 2,146,-1
 1075 915 l 1,147,148
 1045 923 1045 923 1008 930 c 0,149,150
 970 936 970 936 928 936 c 0,151,152
 854 936 854 936 804 907 c 0,153,154
 752 878 752 878 722 831 c 0,155,156
 690 786 690 786 676 724 c 128,-1,157
 662 662 662 662 662 602 c 0,134,135
EndSplineSet
EndChar

StartChar: A
Encoding: 65 65 36
Width: 1245
GlyphClass: 2
Flags: W
LayerCount: 2
Fore
SplineSet
1055 0 m 1,0,-1
 895 453 l 1,1,-1
 350 453 l 1,2,-1
 188 0 l 1,3,-1
 0 0 l 1,4,-1
 537 1468 l 1,5,-1
 707 1468 l 1,6,-1
 1245 0 l 1,7,-1
 1055 0 l 1,0,-1
836 618 m 1,8,-1
 688 1042 l 2,9,10
 679 1069 679 1069 674 1086 c 0,11,12
 666 1109 666 1109 656 1142 c 0,13,14
 650 1162 650 1162 638 1204 c 0,15,16
 624 1255 624 1255 621 1268 c 1,17,18
 611 1226 611 1226 605 1204 c 128,-1,19
 599 1182 599 1182 587 1140 c 0,20,21
 585 1134 585 1134 579 1114 c 128,-1,22
 573 1094 573 1094 570 1084 c 0,23,24
 567 1075 567 1075 561.5 1060 c 128,-1,25
 556 1045 556 1045 555 1042 c 2,26,-1
 410 618 l 1,27,-1
 836 618 l 1,8,-1
EndSplineSet
EndChar

StartChar: B
Encoding: 66 66 37
Width: 1200
GlyphClass: 2
Flags: W
LayerCount: 2
Fore
SplineSet
670 1118 m 0,0,1
 764 1118 764 1118 841 1082 c 256,2,3
 918 1046 918 1046 972 974 c 0,4,5
 1027 904 1027 904 1057 797 c 256,6,7
 1087 690 1087 690 1087 551 c 0,8,9
 1087 409 1087 409 1057 304 c 0,10,11
 1027 197 1027 197 972 125 c 0,12,13
 919 54 919 54 841 16 c 0,14,15
 764 -20 764 -20 670 -20 c 0,16,17
 609 -20 609 -20 563 -7 c 0,18,19
 512 7 512 7 476 28 c 0,20,21
 439 49 439 49 408 78 c 0,22,23
 378 107 378 107 356 139 c 1,24,-1
 344 139 l 1,25,-1
 307 0 l 1,26,-1
 174 0 l 1,27,-1
 174 1556 l 1,28,-1
 356 1556 l 1,29,-1
 356 1180 l 2,30,31
 356 1132 356 1132 355 1106 c 0,32,33
 354 1072 354 1072 352 1032 c 0,34,35
 351 1018 351 1018 349.5 992 c 128,-1,36
 348 966 348 966 348 954 c 1,37,-1
 356 954 l 1,38,39
 377 987 377 987 408 1019 c 0,40,41
 435 1047 435 1047 476 1071 c 0,42,43
 510 1091 510 1091 562 1106 c 0,44,45
 610 1118 610 1118 670 1118 c 0,0,1
635 967 m 0,46,47
 557 967 557 967 502 942 c 0,48,49
 446 914 446 914 416 864 c 0,50,51
 382 809 382 809 370 734 c 0,52,53
 356 661 356 661 356 551 c 0,54,55
 356 445 356 445 370 372 c 0,56,57
 382 295 382 295 416 240 c 0,58,59
 447 187 447 187 502 158 c 0,60,61
 556 131 556 131 637 131 c 0,62,63
 772 131 772 131 836 240 c 0,64,65
 899 349 899 349 899 553 c 0,66,67
 899 760 899 760 836 864 c 0,68,69
 772 967 772 967 635 967 c 0,46,47
EndSplineSet
EndChar

StartChar: C
Encoding: 67 67 38
Width: 948
GlyphClass: 2
Flags: W
LayerCount: 2
Fore
SplineSet
594 -20 m 0,0,1
 491 -20 491 -20 405 12 c 0,2,3
 318 42 318 42 252 112 c 0,4,5
 188 179 188 179 150 286 c 0,6,7
 113 393 113 393 113 543 c 0,8,9
 113 698 113 698 151 810 c 0,10,11
 189 920 189 920 256 988 c 0,12,13
 322 1055 322 1055 411 1087 c 0,14,15
 498 1118 498 1118 602 1118 c 0,16,17
 678 1118 678 1118 754 1101 c 128,-1,18
 830 1084 830 1084 879 1059 c 1,19,-1
 825 905 l 1,20,21
 806 914 806 914 774 924 c 0,22,23
 765 927 765 927 716 942 c 1,24,25
 676 950 676 950 657 954 c 0,26,27
 619 958 619 958 602 958 c 0,28,29
 446 958 446 958 373 858 c 0,30,31
 301 756 301 756 301 545 c 128,-1,32
 301 334 301 334 374 236 c 0,33,34
 447 139 447 139 594 139 c 0,35,36
 677 139 677 139 740 158 c 0,37,38
 809 177 809 177 860 201 c 1,39,-1
 860 39 l 1,40,41
 803 9 803 9 744 -5 c 0,42,43
 684 -20 684 -20 594 -20 c 0,0,1
EndSplineSet
EndChar

StartChar: D
Encoding: 68 68 39
Width: 1200
GlyphClass: 2
Flags: W
LayerCount: 2
Fore
SplineSet
852 147 m 1,0,-1
 844 147 l 1,1,2
 822 114 822 114 792 82 c 0,3,4
 763 52 763 52 724 29 c 0,5,6
 687 7 687 7 638 -7 c 0,7,8
 592 -20 592 -20 530 -20 c 0,9,10
 436 -20 436 -20 360 16 c 256,11,12
 284 52 284 52 228 124 c 0,13,14
 173 194 173 194 143 301 c 256,15,16
 113 408 113 408 113 547 c 0,17,18
 113 689 113 689 143 794 c 0,19,20
 173 901 173 901 228 973 c 0,21,22
 283 1044 283 1044 360 1082 c 0,23,24
 436 1118 436 1118 530 1118 c 0,25,26
 591 1118 591 1118 637 1105 c 0,27,28
 688 1091 688 1091 724 1070 c 0,29,30
 763 1047 763 1047 792 1019 c 0,31,32
 818 994 818 994 844 958 c 1,33,-1
 856 958 l 1,34,35
 854 981 854 981 850 1023 c 0,36,37
 850 1031 850 1031 848.5 1049 c 128,-1,38
 847 1067 847 1067 846 1076 c 0,39,40
 844 1114 844 1114 844 1120 c 2,41,-1
 844 1556 l 1,42,-1
 1026 1556 l 1,43,-1
 1026 0 l 1,44,-1
 879 0 l 1,45,-1
 852 147 l 1,0,-1
565 131 m 0,46,47
 639 131 639 131 694 154 c 0,48,49
 746 177 746 177 778 224 c 0,50,51
 811 271 811 271 826 342 c 0,52,53
 842 411 842 411 844 506 c 2,54,-1
 844 547 l 2,55,56
 844 653 844 653 830 726 c 0,57,58
 818 803 818 803 784 858 c 0,59,60
 753 911 753 911 698 940 c 0,61,62
 644 967 644 967 563 967 c 0,63,64
 428 967 428 967 364 858 c 0,65,66
 301 748 301 748 301 545 c 0,67,68
 301 336 301 336 364 234 c 0,69,70
 428 131 428 131 565 131 c 0,46,47
EndSplineSet
EndChar

StartChar: E
Encoding: 69 69 40
Width: 1081
GlyphClass: 2
Flags: W
LayerCount: 2
Fore
SplineSet
958 0 m 1,0,-1
 199 0 l 1,1,-1
 199 1462 l 1,2,-1
 958 1462 l 1,3,-1
 958 1298 l 1,4,-1
 385 1298 l 1,5,-1
 385 846 l 1,6,-1
 920 846 l 1,7,-1
 920 684 l 1,8,-1
 385 684 l 1,9,-1
 385 164 l 1,10,-1
 958 164 l 1,11,-1
 958 0 l 1,0,-1
EndSplineSet
EndChar

StartChar: F
Encoding: 70 70 41
Width: 1006
GlyphClass: 2
Flags: W
LayerCount: 2
Fore
SplineSet
385 0 m 1,0,-1
 199 0 l 1,1,-1
 199 1462 l 1,2,-1
 958 1462 l 1,3,-1
 958 1298 l 1,4,-1
 385 1298 l 1,5,-1
 385 782 l 1,6,-1
 920 782 l 1,7,-1
 920 618 l 1,8,-1
 385 618 l 1,9,-1
 385 0 l 1,0,-1
EndSplineSet
EndChar

StartChar: H
Encoding: 72 72 43
Width: 1128
GlyphClass: 2
Flags: W
LayerCount: 2
Fore
SplineSet
102 647 m 1,0,-1
 102 797 l 1,1,-1
 1026 797 l 1,2,-1
 1026 647 l 1,3,-1
 102 647 l 1,0,-1
449 373 m 0,4,5
 449 408 449 408 458 432 c 0,6,7
 467 455 467 455 482 470 c 0,8,9
 498 484 498 484 518 492 c 0,10,11
 539 498 539 498 563 498 c 0,12,13
 586 498 586 498 607 492 c 0,14,15
 628 484 628 484 644 470 c 0,16,17
 659 456 659 456 669 432 c 0,18,19
 678 408 678 408 678 373 c 0,20,21
 678 340 678 340 669 316 c 0,22,23
 659 292 659 292 644 278 c 0,24,25
 629 263 629 263 607 255 c 0,26,27
 587 248 587 248 563 248 c 0,28,29
 538 248 538 248 518 255 c 0,30,31
 497 263 497 263 482 278 c 128,-1,32
 467 293 467 293 458 316 c 0,33,34
 449 340 449 340 449 373 c 0,4,5
449 1071 m 0,35,36
 449 1106 449 1106 458 1130 c 0,37,38
 467 1153 467 1153 482 1168 c 0,39,40
 498 1182 498 1182 518 1190 c 0,41,42
 539 1196 539 1196 563 1196 c 0,43,44
 586 1196 586 1196 607 1190 c 0,45,46
 628 1182 628 1182 644 1168 c 0,47,48
 659 1154 659 1154 669 1130 c 0,49,50
 678 1106 678 1106 678 1071 c 0,51,52
 678 1038 678 1038 669 1014 c 0,53,54
 659 990 659 990 644 976 c 0,55,56
 629 961 629 961 607 953 c 0,57,58
 587 946 587 946 563 946 c 0,59,60
 538 946 538 946 518 953 c 0,61,62
 497 961 497 961 482 976 c 128,-1,63
 467 991 467 991 458 1014 c 0,64,65
 449 1038 449 1038 449 1071 c 0,35,36
EndSplineSet
EndChar

StartChar: I
Encoding: 73 73 44
Width: 694
GlyphClass: 2
Flags: W
LayerCount: 2
Fore
SplineSet
612 0 m 1,0,-1
 82 0 l 1,1,-1
 82 102 l 1,2,-1
 254 143 l 1,3,-1
 254 1319 l 1,4,-1
 82 1360 l 1,5,-1
 82 1462 l 1,6,-1
 612 1462 l 1,7,-1
 612 1360 l 1,8,-1
 440 1319 l 1,9,-1
 440 143 l 1,10,-1
 612 102 l 1,11,-1
 612 0 l 1,0,-1
EndSplineSet
EndChar

StartChar: J
Encoding: 74 74 45
Width: 555
GlyphClass: 2
Flags: W
LayerCount: 2
Fore
SplineSet
-29 -389 m 0,0,1
 -83 -389 -83 -389 -118 -382 c 0,2,3
 -153 -376 -153 -376 -184 -365 c 1,4,-1
 -184 -205 l 1,5,6
 -149 -214 -149 -214 -111 -220 c 0,7,8
 -68 -225 -68 -225 -27 -225 c 0,9,10
 9 -225 9 -225 48 -216 c 0,11,12
 87 -205 87 -205 116 -181 c 0,13,14
 145 -156 145 -156 165 -112 c 0,15,16
 184 -70 184 -70 184 0 c 2,17,-1
 184 1462 l 1,18,-1
 371 1462 l 1,19,-1
 371 20 l 2,20,21
 371 -84 371 -84 342 -162 c 0,22,23
 312 -238 312 -238 260 -290 c 0,24,25
 205 -340 205 -340 134 -364 c 0,26,27
 60 -389 60 -389 -29 -389 c 0,0,1
EndSplineSet
EndChar

StartChar: K
Encoding: 75 75 46
Width: 1128
GlyphClass: 2
Flags: W
LayerCount: 2
Fore
SplineSet
530 444 m 0,0,1
 489 462 489 462 466 471 c 0,2,3
 433 483 433 483 416 488 c 0,4,5
 394 495 394 495 372 498 c 0,6,7
 346 500 346 500 330 500 c 0,8,9
 301 500 301 500 272 490 c 0,10,11
 239 480 239 480 212 464 c 0,12,13
 185 450 185 450 155 426 c 0,14,15
 127 404 127 404 102 379 c 1,16,-1
 102 541 l 1,17,18
 203 649 203 649 350 649 c 0,19,20
 378 649 378 649 404 646 c 0,21,22
 426 645 426 645 456 638 c 0,23,24
 489 629 489 629 518 618 c 0,25,26
 546 608 546 608 598 586 c 0,27,28
 639 568 639 568 662 559 c 0,29,30
 696 547 696 547 714 542 c 0,31,32
 733 536 733 536 757 532 c 0,33,34
 783 530 783 530 799 530 c 0,35,36
 828 530 828 530 857 540 c 0,37,38
 891 550 891 550 916 566 c 0,39,40
 943 579 943 579 974 604 c 0,41,42
 1004 628 1004 628 1026 651 c 1,43,-1
 1026 489 l 1,44,45
 927 381 927 381 778 381 c 0,46,47
 750 381 750 381 724 384 c 0,48,49
 702 385 702 385 672 392 c 0,50,51
 639 401 639 401 610 412 c 0,52,53
 582 422 582 422 530 444 c 0,0,1
530 854 m 0,54,55
 486 873 486 873 466 880 c 0,56,57
 464 881 464 881 416 898 c 0,58,59
 389 905 389 905 372 906 c 0,60,61
 352 909 352 909 330 909 c 0,62,63
 302 909 302 909 272 900 c 0,64,65
 237 888 237 888 212 874 c 0,66,67
 179 855 179 855 155 836 c 128,-1,68
 131 817 131 817 102 788 c 1,69,-1
 102 950 l 1,70,71
 202 1059 202 1059 350 1059 c 0,72,73
 378 1059 378 1059 404 1056 c 0,74,75
 429 1055 429 1055 456 1047 c 0,76,77
 486 1039 486 1039 518 1028 c 0,78,79
 571 1006 571 1006 598 995 c 0,80,81
 611 989 611 989 632 980.5 c 128,-1,82
 653 972 653 972 662 968 c 0,83,84
 708 954 708 954 714 952 c 0,85,86
 733 946 733 946 757 942 c 0,87,88
 783 940 783 940 799 940 c 0,89,90
 828 940 828 940 857 950 c 0,91,92
 890 960 890 960 916 975 c 0,93,94
 950 994 950 994 974 1014 c 0,95,96
 999 1033 999 1033 1026 1061 c 1,97,-1
 1026 899 l 1,98,99
 928 791 928 791 778 791 c 0,100,101
 750 791 750 791 724 794 c 0,102,103
 702 795 702 795 672 802 c 0,104,105
 639 811 639 811 610 822 c 0,106,107
 582 832 582 832 530 854 c 0,54,55
EndSplineSet
EndChar

StartChar: L
Encoding: 76 76 47
Width: 1006
GlyphClass: 2
Flags: W
LayerCount: 2
Fore
SplineSet
199 0 m 1,0,-1
 199 1462 l 1,1,-1
 385 1462 l 1,2,-1
 385 166 l 1,3,-1
 958 166 l 1,4,-1
 958 0 l 1,5,-1
 199 0 l 1,0,-1
EndSplineSet
EndChar

StartChar: M
Encoding: 77 77 48
Width: 1128
GlyphClass: 2
Flags: W
LayerCount: 2
Fore
SplineSet
102 399 m 1,0,-1
 840 721 l 1,1,-1
 102 1083 l 1,2,-1
 102 1245 l 1,3,-1
 1026 764 l 1,4,-1
 1026 662 l 1,5,-1
 102 238 l 1,6,-1
 102 399 l 1,0,-1
102 0 m 1,7,-1
 102 150 l 1,8,-1
 1026 150 l 1,9,-1
 1026 0 l 1,10,-1
 102 0 l 1,7,-1
EndSplineSet
EndChar

StartChar: N
Encoding: 78 78 49
Width: 1206
GlyphClass: 2
Flags: W
LayerCount: 2
Fore
SplineSet
860 0 m 1,0,-1
 860 707 l 2,1,2
 860 836 860 836 808 902 c 0,3,4
 754 967 754 967 643 967 c 0,5,6
 564 967 564 967 507 941 c 0,7,8
 453 916 453 916 418 864 c 0,9,10
 385 813 385 813 370 739 c 0,11,12
 356 663 356 663 356 569 c 2,13,-1
 356 0 l 1,14,-1
 174 0 l 1,15,-1
 174 1098 l 1,16,-1
 322 1098 l 1,17,-1
 348 950 l 1,18,-1
 358 950 l 1,19,20
 386 997 386 997 418 1024 c 0,21,22
 447 1053 447 1053 493 1077 c 0,23,24
 532 1097 532 1097 580 1108 c 0,25,26
 624 1118 624 1118 674 1118 c 0,27,28
 857 1118 857 1118 950 1022 c 0,29,30
 1042 927 1042 927 1042 717 c 2,31,-1
 1042 0 l 1,32,-1
 860 0 l 1,0,-1
EndSplineSet
EndChar

StartChar: O
Encoding: 79 79 50
Width: 1128
GlyphClass: 2
Flags: W
LayerCount: 2
Fore
SplineSet
1026 238 m 1,0,-1
 102 662 l 1,1,-1
 102 764 l 1,2,-1
 1026 1245 l 1,3,-1
 1026 1085 l 1,4,-1
 291 721 l 1,5,-1
 1026 399 l 1,6,-1
 1026 238 l 1,0,-1
102 0 m 1,7,-1
 102 150 l 1,8,-1
 1026 150 l 1,9,-1
 1026 0 l 1,10,-1
 102 0 l 1,7,-1
EndSplineSet
EndChar

StartChar: P
Encoding: 80 80 51
Width: 1180
GlyphClass: 2
Flags: W
LayerCount: 2
Fore
SplineSet
1075 1034 m 0,0,1
 1075 943 1075 943 1048 859 c 0,2,3
 1020 776 1020 776 957 710 c 0,4,5
 891 644 891 644 790 608 c 0,6,7
 688 569 688 569 535 569 c 2,8,-1
 385 569 l 1,9,-1
 385 0 l 1,10,-1
 199 0 l 1,11,-1
 199 1462 l 1,12,-1
 561 1462 l 2,13,14
 691 1462 691 1462 792 1434 c 0,15,16
 891 1403 891 1403 952 1350 c 0,17,18
 1015 1296 1015 1296 1045 1216 c 128,-1,19
 1075 1136 1075 1136 1075 1034 c 0,0,1
385 727 m 1,20,-1
 514 727 l 2,21,22
 609 727 609 727 676 743 c 0,23,24
 745 759 745 759 792 794 c 0,25,26
 837 830 837 830 860 886 c 0,27,28
 883 944 883 944 883 1024 c 0,29,30
 883 1167 883 1167 801 1234 c 0,31,32
 719 1303 719 1303 545 1303 c 2,33,-1
 385 1303 l 1,34,-1
 385 727 l 1,20,-1
EndSplineSet
EndChar

StartChar: Q
Encoding: 81 81 52
Width: 1200
GlyphClass: 2
Flags: W
LayerCount: 2
Fore
SplineSet
565 131 m 0,0,1
 639 131 639 131 694 154 c 0,2,3
 746 177 746 177 778 224 c 0,4,5
 811 271 811 271 826 342 c 0,6,7
 842 411 842 411 844 506 c 2,8,-1
 844 547 l 2,9,10
 844 653 844 653 830 726 c 0,11,12
 818 803 818 803 784 858 c 0,13,14
 753 911 753 911 698 940 c 0,15,16
 644 967 644 967 563 967 c 0,17,18
 428 967 428 967 364 858 c 0,19,20
 301 748 301 748 301 545 c 0,21,22
 301 336 301 336 364 234 c 0,23,24
 428 131 428 131 565 131 c 0,0,1
530 -20 m 0,25,26
 436 -20 436 -20 360 16 c 256,27,28
 284 52 284 52 228 124 c 0,29,30
 173 194 173 194 143 301 c 256,31,32
 113 408 113 408 113 547 c 0,33,34
 113 689 113 689 143 794 c 0,35,36
 173 901 173 901 228 973 c 0,37,38
 283 1044 283 1044 360 1082 c 0,39,40
 436 1118 436 1118 530 1118 c 0,41,42
 592 1118 592 1118 637 1104 c 0,43,44
 686 1092 686 1092 723 1068 c 0,45,46
 759 1048 759 1048 791 1016 c 0,47,48
 823 983 823 983 844 950 c 1,49,-1
 852 950 l 1,50,-1
 879 1098 l 1,51,-1
 1026 1098 l 1,52,-1
 1026 -492 l 1,53,-1
 844 -492 l 1,54,-1
 844 -23 l 2,55,56
 844 -13 844 -13 846 25 c 0,57,58
 847 35 847 35 848.5 53.5 c 128,-1,59
 850 72 850 72 850 81 c 0,60,61
 853 112 853 112 856 147 c 1,62,-1
 844 147 l 1,63,64
 822 114 822 114 792 82 c 0,65,66
 763 52 763 52 724 29 c 0,67,68
 687 7 687 7 638 -7 c 0,69,70
 592 -20 592 -20 530 -20 c 0,25,26
EndSplineSet
EndChar

StartChar: R
Encoding: 82 82 53
Width: 817
GlyphClass: 2
Flags: W
LayerCount: 2
Fore
SplineSet
649 1118 m 0,0,1
 666 1118 666 1118 714 1116 c 0,2,3
 746 1113 746 1113 776 1108 c 1,4,-1
 752 940 l 1,5,6
 714 946 714 946 694 948 c 0,7,8
 669 952 669 952 639 952 c 0,9,10
 575 952 575 952 524 926 c 0,11,12
 476 904 476 904 434 854 c 0,13,14
 396 804 396 804 376 740 c 0,15,16
 356 671 356 671 356 592 c 2,17,-1
 356 0 l 1,18,-1
 174 0 l 1,19,-1
 174 1098 l 1,20,-1
 322 1098 l 1,21,-1
 344 897 l 1,22,-1
 352 897 l 1,23,24
 380 945 380 945 406 980 c 0,25,26
 431 1018 431 1018 470 1050 c 0,27,28
 501 1079 501 1079 549 1100 c 0,29,30
 593 1118 593 1118 649 1118 c 0,0,1
EndSplineSet
EndChar

StartChar: S
Encoding: 83 83 54
Width: 924
GlyphClass: 2
Flags: W
LayerCount: 2
Fore
SplineSet
831 301 m 0,0,1
 831 222 831 222 802 161 c 0,2,3
 774 103 774 103 718 60 c 0,4,5
 661 19 661 19 587 0 c 0,6,7
 509 -20 509 -20 414 -20 c 0,8,9
 305 -20 305 -20 227 -2 c 0,10,11
 148 15 148 15 90 49 c 1,12,-1
 90 215 l 1,13,14
 117 201 117 201 159 184 c 0,15,16
 192 169 192 169 239 156 c 0,17,18
 269 147 269 147 326 136 c 0,19,20
 377 129 377 129 414 129 c 0,21,22
 477 129 477 129 524 140 c 0,23,24
 570 150 570 150 598 172 c 0,25,26
 626 190 626 190 640 222 c 0,27,28
 653 249 653 249 653 287 c 0,29,30
 653 319 653 319 643 343 c 0,31,32
 633 368 633 368 606 392 c 0,33,34
 583 415 583 415 534 442 c 0,35,36
 495 464 495 464 416 498 c 0,37,38
 341 531 341 531 286 559 c 0,39,40
 229 589 229 589 189 626 c 128,-1,41
 149 663 149 663 128 712 c 0,42,43
 106 759 106 759 106 827 c 0,44,45
 106 897 106 897 134 952 c 0,46,47
 160 1005 160 1005 211 1043 c 0,48,49
 258 1079 258 1079 331 1099 c 0,50,51
 400 1118 400 1118 487 1118 c 0,52,53
 584 1118 584 1118 664 1097 c 0,54,55
 747 1075 747 1075 817 1042 c 1,56,-1
 754 895 l 1,57,58
 691 923 691 923 620 946 c 0,59,60
 553 967 553 967 481 967 c 0,61,62
 380 967 380 967 330 934 c 0,63,64
 281 900 281 900 281 838 c 0,65,66
 281 804 281 804 292 777 c 0,67,68
 305 749 305 749 332 728 c 0,69,70
 364 703 364 703 407 682 c 0,71,72
 458 656 458 656 524 629 c 0,73,74
 598 598 598 598 652 569 c 0,75,76
 705 541 705 541 749 502 c 0,77,78
 789 463 789 463 810 416 c 0,79,80
 831 368 831 368 831 301 c 0,0,1
EndSplineSet
EndChar

StartChar: T
Encoding: 84 84 55
Width: 694
GlyphClass: 2
Flags: W
LayerCount: 2
Fore
SplineSet
506 129 m 0,0,1
 518 129 518 129 546 131 c 0,2,3
 562 132 562 132 590 136 c 0,4,5
 616 140 616 140 628 143 c 0,6,7
 652 149 652 149 655 150 c 2,8,-1
 655 12 l 1,9,10
 642 6 642 6 622 0 c 0,11,12
 597 -8 597 -8 578 -10 c 0,13,14
 562 -14 562 -14 528 -18 c 0,15,16
 494 -20 494 -20 477 -20 c 0,17,18
 413 -20 413 -20 362 -4 c 0,19,20
 308 13 308 13 270 51 c 0,21,22
 232 90 232 90 210 156 c 256,23,24
 188 222 188 222 188 324 c 2,25,-1
 188 961 l 1,26,-1
 33 961 l 1,27,-1
 33 1042 l 1,28,-1
 188 1120 l 1,29,-1
 266 1350 l 1,30,-1
 371 1350 l 1,31,-1
 371 1098 l 1,32,-1
 647 1098 l 1,33,-1
 647 961 l 1,34,-1
 371 961 l 1,35,-1
 371 324 l 2,36,37
 371 229 371 229 402 178 c 0,38,39
 435 129 435 129 506 129 c 0,0,1
EndSplineSet
EndChar

StartChar: U
Encoding: 85 85 56
Width: 1430
GlyphClass: 2
Flags: W
LayerCount: 2
Fore
SplineSet
1245 1464 m 1,0,-1
 1245 516 l 2,1,2
 1245 402 1245 402 1212 304 c 0,3,4
 1178 205 1178 205 1112 134 c 0,5,6
 1046 62 1046 62 946 21 c 0,7,8
 843 -20 843 -20 709 -20 c 0,9,10
 582 -20 582 -20 483 18 c 0,11,12
 386 57 386 57 318 128 c 0,13,14
 253 197 253 197 218 298 c 0,15,16
 184 397 184 397 184 520 c 2,17,-1
 184 1462 l 1,18,-1
 371 1462 l 1,19,-1
 371 510 l 2,20,21
 371 335 371 335 458 239 c 0,22,23
 544 143 544 143 719 143 c 0,24,25
 808 143 808 143 872 170 c 0,26,27
 937 197 937 197 977 246 c 0,28,29
 1019 297 1019 297 1038 363 c 0,30,31
 1057 430 1057 430 1059 512 c 2,32,-1
 1059 1464 l 1,33,-1
 1245 1464 l 1,0,-1
EndSplineSet
EndChar

StartChar: V
Encoding: 86 86 57
Width: 1163
GlyphClass: 2
Flags: W
LayerCount: 2
Fore
SplineSet
965 1462 m 1,0,-1
 1163 1462 l 1,1,-1
 674 0 l 1,2,-1
 487 0 l 1,3,-1
 0 1462 l 1,4,-1
 197 1462 l 1,5,-1
 492 535 l 2,6,7
 524 433 524 433 542 360 c 0,8,9
 569 251 569 251 580 201 c 1,10,11
 593 266 593 266 618 360 c 0,12,13
 640 441 640 441 672 541 c 2,14,-1
 965 1462 l 1,0,-1
EndSplineSet
EndChar

StartChar: W
Encoding: 87 87 58
Width: 1401
GlyphClass: 2
Flags: W
LayerCount: 2
Fore
SplineSet
1276 745 m 0,0,1
 1276 561 1276 561 1228 420 c 0,2,3
 1179 280 1179 280 1089 188 c 0,4,5
 997 93 997 93 866 47 c 0,6,7
 731 0 731 0 565 0 c 2,8,-1
 199 0 l 1,9,-1
 199 1462 l 1,10,-1
 606 1462 l 2,11,12
 760 1462 760 1462 883 1416 c 0,13,14
 1007 1370 1007 1370 1094 1280 c 0,15,16
 1182 1188 1182 1188 1228 1055 c 0,17,18
 1276 922 1276 922 1276 745 c 0,0,1
1079 739 m 0,19,20
 1079 884 1079 884 1046 992 c 0,21,22
 1013 1099 1013 1099 950 1167 c 0,23,24
 888 1235 888 1235 795 1270 c 0,25,26
 704 1303 704 1303 586 1303 c 2,27,-1
 385 1303 l 1,28,-1
 385 160 l 1,29,-1
 547 160 l 2,30,31
 811 160 811 160 945 306 c 128,-1,32
 1079 452 1079 452 1079 739 c 0,19,20
EndSplineSet
EndChar

StartChar: X
Encoding: 88 88 59
Width: 1063
GlyphClass: 2
Flags: W
LayerCount: 2
Fore
SplineSet
625 0 m 1,0,-1
 438 0 l 1,1,-1
 438 1298 l 1,2,-1
 20 1298 l 1,3,-1
 20 1462 l 1,4,-1
 1042 1462 l 1,5,-1
 1042 1298 l 1,6,-1
 625 1298 l 1,7,-1
 625 0 l 1,0,-1
EndSplineSet
EndChar

StartChar: Y
Encoding: 89 89 60
Width: 1001
GlyphClass: 2
Flags: W
LayerCount: 2
Fore
SplineSet
10 1098 m 1,0,-1
 199 1098 l 1,1,-1
 414 485 l 2,2,3
 417 476 417 476 423 459 c 128,-1,4
 429 442 429 442 433.5 428 c 128,-1,5
 438 414 438 414 442 401 c 0,6,7
 449 381 449 381 470 313 c 0,8,9
 481 274 481 274 491 228 c 0,10,11
 498 194 498 194 504 152 c 1,12,-1
 510 152 l 1,13,14
 511 158 511 158 526 220 c 0,15,16
 529 234 529 234 537.5 264.5 c 128,-1,17
 546 295 546 295 550 312 c 0,18,19
 556 331 556 331 578 407 c 0,20,21
 582 421 582 421 591 448 c 128,-1,22
 600 475 600 475 604 487 c 2,23,-1
 803 1098 l 1,24,-1
 991 1098 l 1,25,-1
 557 -143 l 2,26,27
 526 -230 526 -230 496 -288 c 0,28,29
 465 -352 465 -352 421 -398 c 0,30,31
 378 -443 378 -443 320 -468 c 0,32,33
 262 -492 262 -492 182 -492 c 0,34,35
 130 -492 130 -492 92 -486 c 0,36,37
 58 -482 58 -482 27 -475 c 1,38,-1
 27 -330 l 1,39,40
 52 -335 52 -335 80 -338 c 0,41,42
 108 -342 108 -342 147 -342 c 0,43,44
 196 -342 196 -342 230 -330 c 0,45,46
 266 -319 266 -319 291 -297 c 0,47,48
 316 -274 316 -274 336 -243 c 0,49,50
 353 -213 353 -213 369 -170 c 2,51,-1
 426 -10 l 1,52,-1
 10 1098 l 1,0,-1
EndSplineSet
EndChar

StartChar: Z
Encoding: 90 90 61
Width: 1292
GlyphClass: 2
Flags: W
LayerCount: 2
Fore
SplineSet
74 -492 m 1,0,-1
 74 -377 l 1,1,-1
 698 537 l 1,2,-1
 90 1348 l 1,3,-1
 90 1462 l 1,4,-1
 1186 1462 l 1,5,-1
 1186 1298 l 1,6,-1
 350 1298 l 1,7,-1
 920 539 l 1,8,-1
 328 -328 l 1,9,-1
 1251 -328 l 1,10,-1
 1251 -492 l 1,11,-1
 74 -492 l 1,0,-1
EndSplineSet
EndChar

StartChar: bracketleft
Encoding: 91 91 62
Width: 621
GlyphClass: 2
Flags: W
LayerCount: 2
Fore
SplineSet
569 -324 m 1,0,-1
 164 -324 l 1,1,-1
 164 1462 l 1,2,-1
 569 1462 l 1,3,-1
 569 1313 l 1,4,-1
 346 1313 l 1,5,-1
 346 -174 l 1,6,-1
 569 -174 l 1,7,-1
 569 -324 l 1,0,-1
EndSplineSet
EndChar

StartChar: backslash
Encoding: 92 92 63
Width: 764
GlyphClass: 2
Flags: W
LayerCount: 2
Fore
SplineSet
201 1462 m 1,0,-1
 745 0 l 1,1,-1
 567 0 l 1,2,-1
 23 1462 l 1,3,-1
 201 1462 l 1,0,-1
EndSplineSet
EndChar

StartChar: bracketright
Encoding: 93 93 64
Width: 621
GlyphClass: 2
Flags: W
LayerCount: 2
Fore
SplineSet
51 -174 m 1,0,-1
 274 -174 l 1,1,-1
 274 1313 l 1,2,-1
 51 1313 l 1,3,-1
 51 1462 l 1,4,-1
 457 1462 l 1,5,-1
 457 -324 l 1,6,-1
 51 -324 l 1,7,-1
 51 -174 l 1,0,-1
EndSplineSet
EndChar

StartChar: asciicircum
Encoding: 94 94 65
Width: 1090
GlyphClass: 2
Flags: W
LayerCount: 2
Fore
SplineSet
41 549 m 1,0,-1
 500 1473 l 1,1,-1
 602 1473 l 1,2,-1
 1049 549 l 1,3,-1
 888 549 l 1,4,-1
 551 1284 l 1,5,-1
 202 549 l 1,6,-1
 41 549 l 1,0,-1
EndSplineSet
EndChar

StartChar: underscore
Encoding: 95 95 66
Width: 842
GlyphClass: 2
Flags: W
LayerCount: 2
Fore
SplineSet
846 -324 m 1,0,-1
 -4 -324 l 1,1,-1
 -4 -184 l 1,2,-1
 846 -184 l 1,3,-1
 846 -324 l 1,0,-1
EndSplineSet
EndChar

StartChar: grave
Encoding: 96 96 67
Width: 1182
GlyphClass: 2
Flags: W
LayerCount: 2
Fore
SplineSet
786 1241 m 1,0,-1
 666 1241 l 1,1,2
 626 1274 626 1274 590 1310 c 0,3,4
 549 1353 549 1353 510 1396 c 0,5,6
 496 1412 496 1412 472.5 1441 c 128,-1,7
 449 1470 449 1470 440 1480 c 0,8,9
 402 1533 402 1533 393 1548 c 1,10,-1
 393 1569 l 1,11,-1
 612 1569 l 1,12,13
 630 1531 630 1531 650 1494 c 0,14,15
 680 1438 680 1438 694 1414 c 0,16,17
 712 1380 712 1380 741 1335 c 128,-1,18
 770 1290 770 1290 786 1268 c 1,19,-1
 786 1241 l 1,0,-1
EndSplineSet
EndChar

StartChar: a
Encoding: 97 97 68
Width: 1087
GlyphClass: 2
Flags: W
LayerCount: 2
Fore
SplineSet
793 0 m 1,0,-1
 756 152 l 1,1,-1
 748 152 l 1,2,3
 715 107 715 107 682 74 c 0,4,5
 648 41 648 41 610 21 c 0,6,7
 573 1 573 1 523 -10 c 0,8,9
 477 -20 477 -20 412 -20 c 0,10,11
 341 -20 341 -20 285 0 c 0,12,13
 228 18 228 18 184 60 c 0,14,15
 142 99 142 99 118 162 c 0,16,17
 94 222 94 222 94 307 c 0,18,19
 94 471 94 471 210 559 c 0,20,21
 324 647 324 647 561 655 c 2,22,-1
 745 662 l 1,23,-1
 745 731 l 2,24,25
 745 798 745 798 730 843 c 0,26,27
 717 887 717 887 688 916 c 0,28,29
 661 943 661 943 620 955 c 0,30,31
 581 967 581 967 528 967 c 0,32,33
 445 967 445 967 374 943 c 0,34,35
 299 918 299 918 236 885 c 1,36,-1
 172 1022 l 1,37,38
 241 1060 241 1060 337 1090 c 0,39,40
 427 1118 427 1118 528 1118 c 128,-1,41
 629 1118 629 1118 704 1098 c 0,42,43
 778 1077 778 1077 828 1032 c 0,44,45
 876 989 876 989 900 919 c 0,46,47
 924 850 924 850 924 752 c 2,48,-1
 924 0 l 1,49,-1
 793 0 l 1,0,-1
459 127 m 0,50,51
 521 127 521 127 572 146 c 0,52,53
 625 166 625 166 662 204 c 0,54,55
 699 241 699 241 722 300 c 0,56,57
 743 360 743 360 743 438 c 2,58,-1
 743 537 l 1,59,-1
 600 530 l 2,60,61
 506 525 506 525 449 510 c 0,62,63
 389 494 389 494 352 466 c 0,64,65
 315 436 315 436 299 396 c 0,66,67
 283 358 283 358 283 305 c 0,68,69
 283 213 283 213 332 170 c 0,70,71
 379 127 379 127 459 127 c 0,50,51
EndSplineSet
EndChar

StartChar: b
Encoding: 98 98 69
Width: 1200
GlyphClass: 2
Flags: W
LayerCount: 2
Fore
SplineSet
670 1118 m 0,0,1
 764 1118 764 1118 841 1082 c 256,2,3
 918 1046 918 1046 972 974 c 0,4,5
 1027 904 1027 904 1057 797 c 256,6,7
 1087 690 1087 690 1087 551 c 0,8,9
 1087 409 1087 409 1057 304 c 0,10,11
 1027 197 1027 197 972 125 c 0,12,13
 919 54 919 54 841 16 c 0,14,15
 764 -20 764 -20 670 -20 c 0,16,17
 609 -20 609 -20 563 -7 c 0,18,19
 512 7 512 7 476 28 c 0,20,21
 439 49 439 49 408 78 c 0,22,23
 378 107 378 107 356 139 c 1,24,-1
 344 139 l 1,25,-1
 307 0 l 1,26,-1
 174 0 l 1,27,-1
 174 1556 l 1,28,-1
 356 1556 l 1,29,-1
 356 1180 l 2,30,31
 356 1132 356 1132 355 1106 c 0,32,33
 354 1072 354 1072 352 1032 c 0,34,35
 351 1018 351 1018 349.5 992 c 128,-1,36
 348 966 348 966 348 954 c 1,37,-1
 356 954 l 1,38,39
 377 987 377 987 408 1019 c 0,40,41
 435 1047 435 1047 476 1071 c 0,42,43
 510 1091 510 1091 562 1106 c 0,44,45
 610 1118 610 1118 670 1118 c 0,0,1
635 967 m 0,46,47
 557 967 557 967 502 942 c 0,48,49
 446 914 446 914 416 864 c 0,50,51
 382 809 382 809 370 734 c 0,52,53
 356 661 356 661 356 551 c 0,54,55
 356 445 356 445 370 372 c 0,56,57
 382 295 382 295 416 240 c 0,58,59
 447 187 447 187 502 158 c 0,60,61
 556 131 556 131 637 131 c 0,62,63
 772 131 772 131 836 240 c 0,64,65
 899 349 899 349 899 553 c 0,66,67
 899 760 899 760 836 864 c 0,68,69
 772 967 772 967 635 967 c 0,46,47
EndSplineSet
EndChar

StartChar: c
Encoding: 99 99 70
Width: 948
GlyphClass: 2
Flags: W
LayerCount: 2
Fore
SplineSet
594 -20 m 0,0,1
 491 -20 491 -20 405 12 c 0,2,3
 318 42 318 42 252 112 c 0,4,5
 188 179 188 179 150 286 c 0,6,7
 113 393 113 393 113 543 c 0,8,9
 113 698 113 698 151 810 c 0,10,11
 189 920 189 920 256 988 c 0,12,13
 322 1055 322 1055 411 1087 c 0,14,15
 498 1118 498 1118 602 1118 c 0,16,17
 678 1118 678 1118 754 1101 c 128,-1,18
 830 1084 830 1084 879 1059 c 1,19,-1
 825 905 l 1,20,21
 806 914 806 914 774 924 c 0,22,23
 765 927 765 927 716 942 c 1,24,25
 676 950 676 950 657 954 c 0,26,27
 619 958 619 958 602 958 c 0,28,29
 446 958 446 958 373 858 c 0,30,31
 301 756 301 756 301 545 c 128,-1,32
 301 334 301 334 374 236 c 0,33,34
 447 139 447 139 594 139 c 0,35,36
 677 139 677 139 740 158 c 0,37,38
 809 177 809 177 860 201 c 1,39,-1
 860 39 l 1,40,41
 803 9 803 9 744 -5 c 0,42,43
 684 -20 684 -20 594 -20 c 0,0,1
EndSplineSet
EndChar

StartChar: d
Encoding: 100 100 71
Width: 1200
GlyphClass: 2
Flags: W
LayerCount: 2
Fore
SplineSet
852 147 m 1,0,-1
 844 147 l 1,1,2
 822 114 822 114 792 82 c 0,3,4
 763 52 763 52 724 29 c 0,5,6
 687 7 687 7 638 -7 c 0,7,8
 592 -20 592 -20 530 -20 c 0,9,10
 436 -20 436 -20 360 16 c 256,11,12
 284 52 284 52 228 124 c 0,13,14
 173 194 173 194 143 301 c 256,15,16
 113 408 113 408 113 547 c 0,17,18
 113 689 113 689 143 794 c 0,19,20
 173 901 173 901 228 973 c 0,21,22
 283 1044 283 1044 360 1082 c 0,23,24
 436 1118 436 1118 530 1118 c 0,25,26
 591 1118 591 1118 637 1105 c 0,27,28
 688 1091 688 1091 724 1070 c 0,29,30
 763 1047 763 1047 792 1019 c 0,31,32
 818 994 818 994 844 958 c 1,33,-1
 856 958 l 1,34,35
 854 981 854 981 850 1023 c 0,36,37
 850 1031 850 1031 848.5 1049 c 128,-1,38
 847 1067 847 1067 846 1076 c 0,39,40
 844 1114 844 1114 844 1120 c 2,41,-1
 844 1556 l 1,42,-1
 1026 1556 l 1,43,-1
 1026 0 l 1,44,-1
 879 0 l 1,45,-1
 852 147 l 1,0,-1
565 131 m 0,46,47
 639 131 639 131 694 154 c 0,48,49
 746 177 746 177 778 224 c 0,50,51
 811 271 811 271 826 342 c 0,52,53
 842 411 842 411 844 506 c 2,54,-1
 844 547 l 2,55,56
 844 653 844 653 830 726 c 0,57,58
 818 803 818 803 784 858 c 0,59,60
 753 911 753 911 698 940 c 0,61,62
 644 967 644 967 563 967 c 0,63,64
 428 967 428 967 364 858 c 0,65,66
 301 748 301 748 301 545 c 0,67,68
 301 336 301 336 364 234 c 0,69,70
 428 131 428 131 565 131 c 0,46,47
EndSplineSet
EndChar

StartChar: e
Encoding: 101 101 72
Width: 1096
GlyphClass: 2
Flags: W
LayerCount: 2
Fore
SplineSet
608 -20 m 0,0,1
 497 -20 497 -20 407 17 c 0,2,3
 316 54 316 54 250 125 c 0,4,5
 185 196 185 196 149 301 c 128,-1,6
 113 406 113 406 113 541 c 0,7,8
 113 678 113 678 146 784 c 0,9,10
 179 891 179 891 239 966 c 0,11,12
 299 1040 299 1040 382 1079 c 0,13,14
 466 1118 466 1118 567 1118 c 0,15,16
 666 1118 666 1118 745 1082 c 0,17,18
 824 1048 824 1048 879 982 c 0,19,20
 933 921 933 921 964 828 c 0,21,22
 993 735 993 735 993 627 c 2,23,-1
 993 514 l 1,24,-1
 301 514 l 1,25,26
 305 323 305 323 382 230 c 0,27,28
 460 139 460 139 610 139 c 0,29,30
 657 139 657 139 704 144 c 0,31,32
 745 148 745 148 788 158 c 0,33,34
 828 168 828 168 867 182 c 0,35,36
 908 198 908 198 944 215 c 1,37,-1
 944 53 l 1,38,39
 904 34 904 34 866 20 c 0,40,41
 822 5 822 5 786 -3 c 0,42,43
 751 -11 751 -11 702 -16 c 0,44,45
 665 -20 665 -20 608 -20 c 0,0,1
563 967 m 0,46,47
 450 967 450 967 382 889 c 0,48,49
 315 810 315 810 305 662 c 1,50,-1
 797 662 l 1,51,52
 797 726 797 726 784 786 c 0,53,54
 769 842 769 842 742 883 c 0,55,56
 713 922 713 922 669 945 c 0,57,58
 626 967 626 967 563 967 c 0,46,47
EndSplineSet
EndChar

StartChar: f
Encoding: 102 102 73
Width: 674
GlyphClass: 2
Flags: W
LayerCount: 2
Fore
SplineSet
651 961 m 1,0,-1
 406 961 l 1,1,-1
 406 0 l 1,2,-1
 223 0 l 1,3,-1
 223 961 l 1,4,-1
 29 961 l 1,5,-1
 29 1036 l 1,6,-1
 223 1104 l 1,7,-1
 223 1200 l 2,8,9
 223 1309 223 1309 246 1378 c 0,10,11
 267 1447 267 1447 310 1490 c 0,12,13
 354 1532 354 1532 415 1550 c 0,14,15
 478 1567 478 1567 555 1567 c 0,16,17
 611 1567 611 1567 664 1556 c 0,18,19
 710 1544 710 1544 752 1530 c 1,20,-1
 705 1389 l 1,21,22
 665 1402 665 1402 638 1408 c 0,23,24
 600 1417 600 1417 561 1417 c 0,25,26
 520 1417 520 1417 492 1408 c 0,27,28
 463 1397 463 1397 444 1374 c 128,-1,29
 425 1351 425 1351 416 1308 c 0,30,31
 406 1269 406 1269 406 1202 c 2,32,-1
 406 1098 l 1,33,-1
 651 1098 l 1,34,-1
 651 961 l 1,0,-1
EndSplineSet
EndChar

StartChar: g
Encoding: 103 103 74
Width: 1061
GlyphClass: 2
Flags: W
LayerCount: 2
Fore
SplineSet
1020 1098 m 1,0,-1
 1020 985 l 1,1,-1
 823 958 l 1,2,3
 850 926 850 926 870 868 c 0,4,5
 889 815 889 815 889 745 c 0,6,7
 889 671 889 671 866 604 c 0,8,9
 841 539 841 539 794 493 c 0,10,11
 746 445 746 445 677 420 c 0,12,13
 606 393 606 393 514 393 c 0,14,15
 485 393 485 393 470 394 c 0,16,17
 448 394 448 394 434 397 c 1,18,19
 412 383 412 383 400 374 c 0,20,21
 383 361 383 361 370 346 c 0,22,23
 355 326 355 326 348 310 c 0,24,25
 340 289 340 289 340 266 c 0,26,27
 340 240 340 240 352 222 c 0,28,29
 365 206 365 206 384 197 c 0,30,31
 405 188 405 188 433 185 c 128,-1,32
 461 182 461 182 492 182 c 2,33,-1
 668 182 l 2,34,35
 760 182 760 182 825 158 c 0,36,37
 887 136 887 136 930 95 c 0,38,39
 971 52 971 52 988 0 c 0,40,41
 1006 -54 1006 -54 1006 -115 c 0,42,43
 1006 -201 1006 -201 974 -273 c 0,44,45
 941 -343 941 -343 874 -392 c 0,46,47
 805 -441 805 -441 704 -466 c 0,48,49
 600 -492 600 -492 463 -492 c 0,50,51
 356 -492 356 -492 276 -471 c 0,52,53
 194 -449 194 -449 143 -410 c 0,54,55
 89 -368 89 -368 64 -314 c 0,56,57
 37 -257 37 -257 37 -186 c 0,58,59
 37 -129 37 -129 56 -80 c 0,60,61
 78 -33 78 -33 109 -2 c 0,62,63
 143 32 143 32 186 52 c 0,64,65
 229 73 229 73 276 84 c 1,66,67
 234 104 234 104 207 144 c 256,68,69
 180 184 180 184 180 238 c 0,70,71
 180 298 180 298 212 344 c 0,72,73
 244 388 244 388 313 430 c 1,74,75
 268 448 268 448 234 480 c 0,76,77
 200 510 200 510 174 552 c 0,78,79
 153 587 153 587 136 640 c 0,80,81
 123 692 123 692 123 739 c 0,82,83
 123 829 123 829 148 898 c 0,84,85
 174 968 174 968 222 1017 c 0,86,87
 272 1067 272 1067 344 1092 c 0,88,89
 419 1118 419 1118 514 1118 c 0,90,91
 551 1118 551 1118 590 1112 c 0,92,93
 627 1108 627 1108 657 1098 c 1,94,-1
 1020 1098 l 1,0,-1
209 -180 m 0,95,96
 209 -219 209 -219 222 -249 c 0,97,98
 236 -282 236 -282 264 -304 c 0,99,100
 297 -329 297 -329 342 -340 c 0,101,102
 388 -354 388 -354 463 -354 c 0,103,104
 650 -354 650 -354 742 -296 c 0,105,106
 834 -239 834 -239 834 -131 c 0,107,108
 834 -84 834 -84 822 -56 c 256,109,110
 810 -28 810 -28 782 -10 c 0,111,112
 753 6 753 6 710 12 c 0,113,114
 665 18 665 18 600 18 c 2,115,-1
 424 18 l 2,116,117
 391 18 391 18 351 10 c 128,-1,118
 311 2 311 2 282 -20 c 0,119,120
 250 -42 250 -42 230 -80 c 0,121,122
 209 -119 209 -119 209 -180 c 0,95,96
301 745 m 0,123,124
 301 630 301 630 355 574 c 256,125,126
 409 518 409 518 508 518 c 0,127,128
 608 518 608 518 660 574 c 0,129,130
 711 628 711 628 711 748 c 0,131,132
 711 872 711 872 658 929 c 0,133,134
 607 987 607 987 506 987 c 0,135,136
 406 987 406 987 354 927 c 0,137,138
 301 866 301 866 301 745 c 0,123,124
EndSplineSet
EndChar

StartChar: h
Encoding: 104 104 75
Width: 1436
GlyphClass: 2
Flags: W
LayerCount: 2
Fore
SplineSet
1237 0 m 1,0,-1
 1051 0 l 1,1,-1
 1051 682 l 1,2,-1
 385 682 l 1,3,-1
 385 0 l 1,4,-1
 199 0 l 1,5,-1
 199 1462 l 1,6,-1
 385 1462 l 1,7,-1
 385 846 l 1,8,-1
 1051 846 l 1,9,-1
 1051 1462 l 1,10,-1
 1237 1462 l 1,11,-1
 1237 0 l 1,0,-1
EndSplineSet
EndChar

StartChar: i
Encoding: 105 105 76
Width: 530
GlyphClass: 2
Flags: W
LayerCount: 2
Fore
SplineSet
356 0 m 1,0,-1
 174 0 l 1,1,-1
 174 1098 l 1,2,-1
 356 1098 l 1,3,-1
 356 0 l 1,0,-1
160 1395 m 0,4,5
 160 1455 160 1455 190 1482 c 0,6,7
 222 1509 222 1509 266 1509 c 0,8,9
 288 1509 288 1509 308 1502 c 0,10,11
 327 1496 327 1496 342 1482 c 0,12,13
 357 1467 357 1467 364 1446 c 0,14,15
 373 1425 373 1425 373 1395 c 0,16,17
 373 1339 373 1339 342 1308 c 1,18,19
 308 1280 308 1280 266 1280 c 0,20,21
 221 1280 221 1280 190 1308 c 0,22,23
 160 1336 160 1336 160 1395 c 0,4,5
EndSplineSet
EndChar

StartChar: j
Encoding: 106 106 77
Width: 530
GlyphClass: 2
Flags: W
LayerCount: 2
Fore
SplineSet
66 -492 m 0,0,1
 17 -492 17 -492 -14 -485 c 0,2,3
 -47 -477 -47 -477 -68 -467 c 1,4,-1
 -68 -319 l 1,5,6
 -43 -329 -43 -329 -15 -334 c 0,7,8
 12 -340 12 -340 47 -340 c 0,9,10
 77 -340 77 -340 97 -332 c 0,11,12
 117 -327 117 -327 138 -306 c 0,13,14
 156 -284 156 -284 164 -254 c 0,15,16
 174 -223 174 -223 174 -170 c 2,17,-1
 174 1098 l 1,18,-1
 356 1098 l 1,19,-1
 356 -158 l 2,20,21
 356 -234 356 -234 339 -296 c 0,22,23
 324 -355 324 -355 286 -402 c 0,24,25
 248 -446 248 -446 196 -468 c 0,26,27
 141 -492 141 -492 66 -492 c 0,0,1
160 1395 m 0,28,29
 160 1455 160 1455 190 1482 c 0,30,31
 222 1509 222 1509 266 1509 c 0,32,33
 288 1509 288 1509 308 1502 c 0,34,35
 327 1496 327 1496 342 1482 c 0,36,37
 357 1467 357 1467 364 1446 c 0,38,39
 373 1425 373 1425 373 1395 c 0,40,41
 373 1339 373 1339 342 1308 c 1,42,43
 308 1280 308 1280 266 1280 c 0,44,45
 221 1280 221 1280 190 1308 c 0,46,47
 160 1336 160 1336 160 1395 c 0,28,29
EndSplineSet
EndChar

StartChar: k
Encoding: 107 107 78
Width: 1016
GlyphClass: 2
Flags: W
LayerCount: 2
Fore
SplineSet
342 567 m 1,0,-1
 477 737 l 1,1,-1
 770 1098 l 1,2,-1
 981 1098 l 1,3,-1
 580 623 l 1,4,-1
 1008 0 l 1,5,-1
 799 0 l 1,6,-1
 463 504 l 1,7,-1
 354 422 l 1,8,-1
 354 0 l 1,9,-1
 174 0 l 1,10,-1
 174 1556 l 1,11,-1
 354 1556 l 1,12,-1
 354 842 l 1,13,-1
 338 567 l 1,14,-1
 342 567 l 1,0,-1
EndSplineSet
EndChar

StartChar: l
Encoding: 108 108 79
Width: 530
GlyphClass: 2
Flags: W
LayerCount: 2
Fore
SplineSet
356 0 m 1,0,-1
 174 0 l 1,1,-1
 174 1556 l 1,2,-1
 356 1556 l 1,3,-1
 356 0 l 1,0,-1
EndSplineSet
EndChar

StartChar: m
Encoding: 109 109 80
Width: 1835
GlyphClass: 2
Flags: W
LayerCount: 2
Fore
SplineSet
1489 0 m 1,0,-1
 1489 707 l 2,1,2
 1489 837 1489 837 1439 902 c 128,-1,3
 1389 967 1389 967 1284 967 c 0,4,5
 1212 967 1212 967 1160 944 c 0,6,7
 1108 920 1108 920 1076 874 c 128,-1,8
 1044 828 1044 828 1029 762 c 0,9,10
 1014 693 1014 693 1014 606 c 2,11,-1
 1014 0 l 1,12,-1
 831 0 l 1,13,-1
 831 707 l 2,14,15
 831 836 831 836 782 902 c 0,16,17
 731 967 731 967 627 967 c 0,18,19
 552 967 552 967 498 941 c 0,20,21
 448 917 448 917 414 864 c 0,22,23
 381 808 381 808 370 739 c 0,24,25
 356 670 356 670 356 569 c 2,26,-1
 356 0 l 1,27,-1
 174 0 l 1,28,-1
 174 1098 l 1,29,-1
 322 1098 l 1,30,-1
 348 950 l 1,31,-1
 358 950 l 1,32,33
 383 995 383 995 415 1024 c 0,34,35
 446 1055 446 1055 488 1077 c 0,36,37
 525 1097 525 1097 572 1108 c 0,38,39
 613 1118 613 1118 662 1118 c 0,40,41
 780 1118 780 1118 862 1074 c 0,42,43
 942 1029 942 1029 979 936 c 1,44,-1
 987 936 l 1,45,46
 1012 982 1012 982 1050 1017 c 0,47,48
 1084 1049 1084 1049 1130 1074 c 0,49,50
 1177 1097 1177 1097 1221 1107 c 0,51,52
 1271 1118 1271 1118 1319 1118 c 0,53,54
 1495 1118 1495 1118 1582 1022 c 0,55,56
 1671 929 1671 929 1671 717 c 2,57,-1
 1671 0 l 1,58,-1
 1489 0 l 1,0,-1
EndSplineSet
EndChar

StartChar: n
Encoding: 110 110 81
Width: 1206
GlyphClass: 2
Flags: W
LayerCount: 2
Fore
SplineSet
860 0 m 1,0,-1
 860 707 l 2,1,2
 860 836 860 836 808 902 c 0,3,4
 754 967 754 967 643 967 c 0,5,6
 564 967 564 967 507 941 c 0,7,8
 453 916 453 916 418 864 c 0,9,10
 385 813 385 813 370 739 c 0,11,12
 356 663 356 663 356 569 c 2,13,-1
 356 0 l 1,14,-1
 174 0 l 1,15,-1
 174 1098 l 1,16,-1
 322 1098 l 1,17,-1
 348 950 l 1,18,-1
 358 950 l 1,19,20
 386 997 386 997 418 1024 c 0,21,22
 447 1053 447 1053 493 1077 c 0,23,24
 532 1097 532 1097 580 1108 c 0,25,26
 624 1118 624 1118 674 1118 c 0,27,28
 857 1118 857 1118 950 1022 c 0,29,30
 1042 927 1042 927 1042 717 c 2,31,-1
 1042 0 l 1,32,-1
 860 0 l 1,0,-1
EndSplineSet
EndChar

StartChar: o
Encoding: 111 111 82
Width: 1182
GlyphClass: 2
Flags: W
LayerCount: 2
Fore
SplineSet
1069 551 m 0,0,1
 1069 413 1069 413 1036 308 c 0,2,3
 1002 202 1002 202 940 128 c 0,4,5
 877 56 877 56 788 18 c 0,6,7
 698 -20 698 -20 588 -20 c 0,8,9
 486 -20 486 -20 398 18 c 0,10,11
 312 55 312 55 248 128 c 0,12,13
 183 202 183 202 148 308 c 0,14,15
 113 415 113 415 113 551 c 128,-1,16
 113 687 113 687 146 792 c 0,17,18
 180 898 180 898 242 970 c 0,19,20
 304 1044 304 1044 394 1080 c 0,21,22
 480 1118 480 1118 594 1118 c 0,23,24
 699 1118 699 1118 784 1080 c 0,25,26
 870 1044 870 1044 934 970 c 0,27,28
 998 899 998 899 1034 792 c 0,29,30
 1069 685 1069 685 1069 551 c 0,0,1
301 551 m 0,31,32
 301 342 301 342 370 236 c 0,33,34
 438 131 438 131 592 131 c 0,35,36
 745 131 745 131 814 236 c 0,37,38
 881 344 881 344 881 551 c 0,39,40
 881 759 881 759 812 864 c 0,41,42
 744 967 744 967 590 967 c 0,43,44
 438 967 438 967 368 864 c 1,45,46
 301 757 301 757 301 551 c 0,31,32
EndSplineSet
EndChar

StartChar: p
Encoding: 112 112 83
Width: 1200
GlyphClass: 2
Flags: W
LayerCount: 2
Fore
SplineSet
670 -20 m 0,0,1
 609 -20 609 -20 563 -7 c 0,2,3
 512 7 512 7 476 28 c 0,4,5
 439 49 439 49 408 78 c 0,6,7
 378 107 378 107 356 139 c 1,8,-1
 344 139 l 1,9,10
 346 116 346 116 350 74 c 0,11,12
 350 66 350 66 351.5 48 c 128,-1,13
 353 30 353 30 354 20 c 0,14,15
 356 -16 356 -16 356 -23 c 2,16,-1
 356 -492 l 1,17,-1
 174 -492 l 1,18,-1
 174 1098 l 1,19,-1
 322 1098 l 1,20,-1
 348 950 l 1,21,-1
 356 950 l 1,22,23
 376 981 376 981 408 1016 c 0,24,25
 438 1047 438 1047 476 1068 c 0,26,27
 513 1092 513 1092 562 1104 c 0,28,29
 607 1118 607 1118 670 1118 c 0,30,31
 764 1118 764 1118 841 1082 c 256,32,33
 918 1046 918 1046 972 974 c 0,34,35
 1027 904 1027 904 1057 797 c 256,36,37
 1087 690 1087 690 1087 551 c 0,38,39
 1087 409 1087 409 1057 304 c 0,40,41
 1027 197 1027 197 972 125 c 0,42,43
 919 54 919 54 841 16 c 0,44,45
 764 -20 764 -20 670 -20 c 0,0,1
635 967 m 0,46,47
 561 967 561 967 506 944 c 0,48,49
 454 921 454 921 422 874 c 0,50,51
 389 828 389 828 374 757 c 0,52,53
 358 686 358 686 356 592 c 2,54,-1
 356 551 l 2,55,56
 356 445 356 445 370 372 c 0,57,58
 382 295 382 295 416 240 c 0,59,60
 447 187 447 187 502 158 c 0,61,62
 556 131 556 131 637 131 c 0,63,64
 772 131 772 131 836 240 c 0,65,66
 899 349 899 349 899 553 c 0,67,68
 899 760 899 760 836 864 c 0,69,70
 772 967 772 967 635 967 c 0,46,47
EndSplineSet
EndChar

StartChar: q
Encoding: 113 113 84
Width: 1200
GlyphClass: 2
Flags: W
LayerCount: 2
Fore
SplineSet
565 131 m 0,0,1
 639 131 639 131 694 154 c 0,2,3
 746 177 746 177 778 224 c 0,4,5
 811 271 811 271 826 342 c 0,6,7
 842 411 842 411 844 506 c 2,8,-1
 844 547 l 2,9,10
 844 653 844 653 830 726 c 0,11,12
 818 803 818 803 784 858 c 0,13,14
 753 911 753 911 698 940 c 0,15,16
 644 967 644 967 563 967 c 0,17,18
 428 967 428 967 364 858 c 0,19,20
 301 748 301 748 301 545 c 0,21,22
 301 336 301 336 364 234 c 0,23,24
 428 131 428 131 565 131 c 0,0,1
530 -20 m 0,25,26
 436 -20 436 -20 360 16 c 256,27,28
 284 52 284 52 228 124 c 0,29,30
 173 194 173 194 143 301 c 256,31,32
 113 408 113 408 113 547 c 0,33,34
 113 689 113 689 143 794 c 0,35,36
 173 901 173 901 228 973 c 0,37,38
 283 1044 283 1044 360 1082 c 0,39,40
 436 1118 436 1118 530 1118 c 0,41,42
 592 1118 592 1118 637 1104 c 0,43,44
 686 1092 686 1092 723 1068 c 0,45,46
 759 1048 759 1048 791 1016 c 0,47,48
 823 983 823 983 844 950 c 1,49,-1
 852 950 l 1,50,-1
 879 1098 l 1,51,-1
 1026 1098 l 1,52,-1
 1026 -492 l 1,53,-1
 844 -492 l 1,54,-1
 844 -23 l 2,55,56
 844 -13 844 -13 846 25 c 0,57,58
 847 35 847 35 848.5 53.5 c 128,-1,59
 850 72 850 72 850 81 c 0,60,61
 853 112 853 112 856 147 c 1,62,-1
 844 147 l 1,63,64
 822 114 822 114 792 82 c 0,65,66
 763 52 763 52 724 29 c 0,67,68
 687 7 687 7 638 -7 c 0,69,70
 592 -20 592 -20 530 -20 c 0,25,26
EndSplineSet
EndChar

StartChar: r
Encoding: 114 114 85
Width: 817
GlyphClass: 2
Flags: W
LayerCount: 2
Fore
SplineSet
649 1118 m 0,0,1
 666 1118 666 1118 714 1116 c 0,2,3
 746 1113 746 1113 776 1108 c 1,4,-1
 752 940 l 1,5,6
 714 946 714 946 694 948 c 0,7,8
 669 952 669 952 639 952 c 0,9,10
 575 952 575 952 524 926 c 0,11,12
 476 904 476 904 434 854 c 0,13,14
 396 804 396 804 376 740 c 0,15,16
 356 671 356 671 356 592 c 2,17,-1
 356 0 l 1,18,-1
 174 0 l 1,19,-1
 174 1098 l 1,20,-1
 322 1098 l 1,21,-1
 344 897 l 1,22,-1
 352 897 l 1,23,24
 380 945 380 945 406 980 c 0,25,26
 431 1018 431 1018 470 1050 c 0,27,28
 501 1079 501 1079 549 1100 c 0,29,30
 593 1118 593 1118 649 1118 c 0,0,1
EndSplineSet
EndChar

StartChar: s
Encoding: 115 115 86
Width: 924
GlyphClass: 2
Flags: W
LayerCount: 2
Fore
SplineSet
831 301 m 0,0,1
 831 222 831 222 802 161 c 0,2,3
 774 103 774 103 718 60 c 0,4,5
 661 19 661 19 587 0 c 0,6,7
 509 -20 509 -20 414 -20 c 0,8,9
 305 -20 305 -20 227 -2 c 0,10,11
 148 15 148 15 90 49 c 1,12,-1
 90 215 l 1,13,14
 117 201 117 201 159 184 c 0,15,16
 192 169 192 169 239 156 c 0,17,18
 269 147 269 147 326 136 c 0,19,20
 377 129 377 129 414 129 c 0,21,22
 477 129 477 129 524 140 c 0,23,24
 570 150 570 150 598 172 c 0,25,26
 626 190 626 190 640 222 c 0,27,28
 653 249 653 249 653 287 c 0,29,30
 653 319 653 319 643 343 c 0,31,32
 633 368 633 368 606 392 c 0,33,34
 583 415 583 415 534 442 c 0,35,36
 495 464 495 464 416 498 c 0,37,38
 341 531 341 531 286 559 c 0,39,40
 229 589 229 589 189 626 c 128,-1,41
 149 663 149 663 128 712 c 0,42,43
 106 759 106 759 106 827 c 0,44,45
 106 897 106 897 134 952 c 0,46,47
 160 1005 160 1005 211 1043 c 0,48,49
 258 1079 258 1079 331 1099 c 0,50,51
 400 1118 400 1118 487 1118 c 0,52,53
 584 1118 584 1118 664 1097 c 0,54,55
 747 1075 747 1075 817 1042 c 1,56,-1
 754 895 l 1,57,58
 691 923 691 923 620 946 c 0,59,60
 553 967 553 967 481 967 c 0,61,62
 380 967 380 967 330 934 c 0,63,64
 281 900 281 900 281 838 c 0,65,66
 281 804 281 804 292 777 c 0,67,68
 305 749 305 749 332 728 c 0,69,70
 364 703 364 703 407 682 c 0,71,72
 458 656 458 656 524 629 c 0,73,74
 598 598 598 598 652 569 c 0,75,76
 705 541 705 541 749 502 c 0,77,78
 789 463 789 463 810 416 c 0,79,80
 831 368 831 368 831 301 c 0,0,1
EndSplineSet
EndChar

StartChar: t
Encoding: 116 116 87
Width: 694
GlyphClass: 2
Flags: W
LayerCount: 2
Fore
SplineSet
506 129 m 0,0,1
 518 129 518 129 546 131 c 0,2,3
 562 132 562 132 590 136 c 0,4,5
 616 140 616 140 628 143 c 0,6,7
 652 149 652 149 655 150 c 2,8,-1
 655 12 l 1,9,10
 642 6 642 6 622 0 c 0,11,12
 597 -8 597 -8 578 -10 c 0,13,14
 562 -14 562 -14 528 -18 c 0,15,16
 494 -20 494 -20 477 -20 c 0,17,18
 413 -20 413 -20 362 -4 c 0,19,20
 308 13 308 13 270 51 c 0,21,22
 232 90 232 90 210 156 c 256,23,24
 188 222 188 222 188 324 c 2,25,-1
 188 961 l 1,26,-1
 33 961 l 1,27,-1
 33 1042 l 1,28,-1
 188 1120 l 1,29,-1
 266 1350 l 1,30,-1
 371 1350 l 1,31,-1
 371 1098 l 1,32,-1
 647 1098 l 1,33,-1
 647 961 l 1,34,-1
 371 961 l 1,35,-1
 371 324 l 2,36,37
 371 229 371 229 402 178 c 0,38,39
 435 129 435 129 506 129 c 0,0,1
EndSplineSet
EndChar

StartChar: u
Encoding: 117 117 88
Width: 1206
GlyphClass: 2
Flags: W
LayerCount: 2
Fore
SplineSet
885 0 m 1,0,-1
 858 147 l 1,1,-1
 848 147 l 1,2,3
 823 104 823 104 788 72 c 0,4,5
 754 41 754 41 713 20 c 0,6,7
 672 0 672 0 626 -10 c 0,8,9
 582 -20 582 -20 532 -20 c 0,10,11
 443 -20 443 -20 372 3 c 0,12,13
 304 25 304 25 257 75 c 128,-1,14
 210 125 210 125 188 200 c 0,15,16
 164 276 164 276 164 381 c 2,17,-1
 164 1098 l 1,18,-1
 346 1098 l 1,19,-1
 346 391 l 2,20,21
 346 261 346 261 399 196 c 128,-1,22
 452 131 452 131 563 131 c 0,23,24
 642 131 642 131 699 157 c 0,25,26
 753 182 753 182 788 234 c 0,27,28
 821 283 821 283 836 358 c 0,29,30
 850 434 850 434 850 528 c 2,31,-1
 850 1098 l 1,32,-1
 1032 1098 l 1,33,-1
 1032 0 l 1,34,-1
 885 0 l 1,0,-1
EndSplineSet
EndChar

StartChar: v
Encoding: 118 118 89
Width: 981
GlyphClass: 2
Flags: W
LayerCount: 2
Fore
SplineSet
375 0 m 1,0,-1
 0 1098 l 1,1,-1
 188 1098 l 1,2,-1
 387 487 l 2,3,4
 404 434 404 434 413 402 c 0,5,6
 433 332 433 332 443 296 c 0,7,8
 458 242 458 242 470 194 c 0,9,10
 481 155 481 155 487 121 c 1,11,-1
 494 121 l 1,12,13
 497 138 497 138 511 194 c 0,14,15
 523 242 523 242 538 296 c 0,16,17
 548 332 548 332 568 402 c 0,18,19
 577 434 577 434 594 487 c 2,20,-1
 793 1098 l 1,21,-1
 981 1098 l 1,22,-1
 606 0 l 1,23,-1
 375 0 l 1,0,-1
EndSplineSet
EndChar

StartChar: w
Encoding: 119 119 90
Width: 1401
GlyphClass: 2
Flags: W
LayerCount: 2
Fore
SplineSet
1276 745 m 0,0,1
 1276 561 1276 561 1228 420 c 0,2,3
 1179 280 1179 280 1089 188 c 0,4,5
 997 93 997 93 866 47 c 0,6,7
 731 0 731 0 565 0 c 2,8,-1
 199 0 l 1,9,-1
 199 1462 l 1,10,-1
 606 1462 l 2,11,12
 760 1462 760 1462 883 1416 c 0,13,14
 1007 1370 1007 1370 1094 1280 c 0,15,16
 1182 1188 1182 1188 1228 1055 c 0,17,18
 1276 922 1276 922 1276 745 c 0,0,1
1079 739 m 0,19,20
 1079 884 1079 884 1046 992 c 0,21,22
 1013 1099 1013 1099 950 1167 c 0,23,24
 888 1235 888 1235 795 1270 c 0,25,26
 704 1303 704 1303 586 1303 c 2,27,-1
 385 1303 l 1,28,-1
 385 160 l 1,29,-1
 547 160 l 2,30,31
 811 160 811 160 945 306 c 128,-1,32
 1079 452 1079 452 1079 739 c 0,19,20
EndSplineSet
EndChar

StartChar: x
Encoding: 120 120 91
Width: 1063
GlyphClass: 2
Flags: W
LayerCount: 2
Fore
SplineSet
625 0 m 1,0,-1
 438 0 l 1,1,-1
 438 1298 l 1,2,-1
 20 1298 l 1,3,-1
 20 1462 l 1,4,-1
 1042 1462 l 1,5,-1
 1042 1298 l 1,6,-1
 625 1298 l 1,7,-1
 625 0 l 1,0,-1
EndSplineSet
EndChar

StartChar: y
Encoding: 121 121 92
Width: 1001
GlyphClass: 2
Flags: W
LayerCount: 2
Fore
SplineSet
10 1098 m 1,0,-1
 199 1098 l 1,1,-1
 414 485 l 2,2,3
 417 476 417 476 423 459 c 128,-1,4
 429 442 429 442 433.5 428 c 128,-1,5
 438 414 438 414 442 401 c 0,6,7
 449 381 449 381 470 313 c 0,8,9
 481 274 481 274 491 228 c 0,10,11
 498 194 498 194 504 152 c 1,12,-1
 510 152 l 1,13,14
 511 158 511 158 526 220 c 0,15,16
 529 234 529 234 537.5 264.5 c 128,-1,17
 546 295 546 295 550 312 c 0,18,19
 556 331 556 331 578 407 c 0,20,21
 582 421 582 421 591 448 c 128,-1,22
 600 475 600 475 604 487 c 2,23,-1
 803 1098 l 1,24,-1
 991 1098 l 1,25,-1
 557 -143 l 2,26,27
 526 -230 526 -230 496 -288 c 0,28,29
 465 -352 465 -352 421 -398 c 0,30,31
 378 -443 378 -443 320 -468 c 0,32,33
 262 -492 262 -492 182 -492 c 0,34,35
 130 -492 130 -492 92 -486 c 0,36,37
 58 -482 58 -482 27 -475 c 1,38,-1
 27 -330 l 1,39,40
 52 -335 52 -335 80 -338 c 0,41,42
 108 -342 108 -342 147 -342 c 0,43,44
 196 -342 196 -342 230 -330 c 0,45,46
 266 -319 266 -319 291 -297 c 0,47,48
 316 -274 316 -274 336 -243 c 0,49,50
 353 -213 353 -213 369 -170 c 2,51,-1
 426 -10 l 1,52,-1
 10 1098 l 1,0,-1
EndSplineSet
EndChar

StartChar: z
Encoding: 122 122 93
Width: 1292
GlyphClass: 2
Flags: W
LayerCount: 2
Fore
SplineSet
74 -492 m 1,0,-1
 74 -377 l 1,1,-1
 698 537 l 1,2,-1
 90 1348 l 1,3,-1
 90 1462 l 1,4,-1
 1186 1462 l 1,5,-1
 1186 1298 l 1,6,-1
 350 1298 l 1,7,-1
 920 539 l 1,8,-1
 328 -328 l 1,9,-1
 1251 -328 l 1,10,-1
 1251 -492 l 1,11,-1
 74 -492 l 1,0,-1
EndSplineSet
EndChar

StartChar: braceleft
Encoding: 123 123 94
Width: 725
GlyphClass: 2
Flags: W
LayerCount: 2
Fore
SplineSet
500 -16 m 2,0,1
 500 -64 500 -64 512 -94 c 128,-1,2
 524 -124 524 -124 546 -142 c 0,3,4
 570 -160 570 -160 602 -166 c 0,5,6
 629 -172 629 -172 674 -174 c 1,7,-1
 674 -324 l 1,8,9
 591 -322 591 -322 532 -306 c 0,10,11
 468 -291 468 -291 418 -254 c 0,12,13
 371 -219 371 -219 344 -164 c 128,-1,14
 317 -109 317 -109 317 -31 c 2,15,-1
 317 303 l 2,16,17
 317 405 317 405 252 449 c 0,18,19
 187 492 187 492 61 492 c 1,20,-1
 61 647 l 1,21,22
 187 647 187 647 252 690 c 0,23,24
 317 734 317 734 317 836 c 2,25,-1
 317 1169 l 2,26,27
 317 1246 317 1246 344 1302 c 0,28,29
 371 1357 371 1357 418 1392 c 0,30,31
 468 1429 468 1429 532 1444 c 0,32,33
 591 1460 591 1460 674 1462 c 1,34,-1
 674 1313 l 1,35,36
 630 1311 630 1311 602 1306 c 0,37,38
 570 1299 570 1299 546 1282 c 0,39,40
 523 1263 523 1263 512 1234 c 0,41,42
 500 1202 500 1202 500 1155 c 2,43,-1
 500 823 l 2,44,45
 500 719 500 719 440 656 c 0,46,47
 380 594 380 594 266 575 c 1,48,-1
 266 563 l 1,49,50
 382 544 382 544 440 482 c 0,51,52
 500 420 500 420 500 315 c 2,53,-1
 500 -16 l 2,0,1
EndSplineSet
EndChar

StartChar: bar
Encoding: 124 124 95
Width: 1128
GlyphClass: 2
Flags: W
LayerCount: 2
Fore
SplineSet
489 1556 m 1,0,-1
 639 1556 l 1,1,-1
 639 -492 l 1,2,-1
 489 -492 l 1,3,-1
 489 1556 l 1,0,-1
EndSplineSet
EndChar

StartChar: braceright
Encoding: 125 125 96
Width: 725
GlyphClass: 2
Flags: W
LayerCount: 2
Fore
SplineSet
225 315 m 2,0,1
 225 420 225 420 284 482 c 0,2,3
 344 544 344 544 459 563 c 1,4,-1
 459 575 l 1,5,6
 346 594 346 594 284 656 c 0,7,8
 225 720 225 720 225 823 c 2,9,-1
 225 1155 l 2,10,11
 225 1202 225 1202 213 1234 c 0,12,13
 201 1265 201 1265 178 1282 c 0,14,15
 158 1298 158 1298 124 1306 c 0,16,17
 94 1311 94 1311 51 1313 c 1,18,-1
 51 1462 l 1,19,20
 134 1460 134 1460 194 1444 c 0,21,22
 258 1429 258 1429 306 1392 c 0,23,24
 354 1358 354 1358 381 1302 c 256,25,26
 408 1246 408 1246 408 1169 c 2,27,-1
 408 836 l 2,28,29
 408 786 408 786 424 748 c 0,30,31
 443 710 443 710 474 690 c 0,32,33
 503 668 503 668 554 657 c 0,34,35
 600 647 600 647 664 647 c 1,36,-1
 664 492 l 1,37,38
 538 492 538 492 474 449 c 0,39,40
 408 406 408 406 408 303 c 2,41,-1
 408 -31 l 2,42,43
 408 -108 408 -108 381 -164 c 256,44,45
 354 -220 354 -220 306 -254 c 0,46,47
 258 -291 258 -291 194 -306 c 0,48,49
 134 -322 134 -322 51 -324 c 1,50,-1
 51 -174 l 1,51,52
 96 -172 96 -172 124 -166 c 0,53,54
 157 -160 157 -160 178 -142 c 0,55,56
 201 -126 201 -126 213 -94 c 0,57,58
 225 -64 225 -64 225 -16 c 2,59,-1
 225 315 l 2,0,1
EndSplineSet
EndChar

StartChar: asciitilde
Encoding: 126 126 97
Width: 1128
GlyphClass: 2
Flags: W
LayerCount: 2
Fore
SplineSet
530 651 m 0,0,1
 489 669 489 669 466 678 c 0,2,3
 453 683 453 683 416 696 c 0,4,5
 389 703 389 703 372 704 c 0,6,7
 352 707 352 707 330 707 c 0,8,9
 302 707 302 707 272 698 c 0,10,11
 245 689 245 689 212 672 c 0,12,13
 174 648 174 648 155 633 c 0,14,15
 127 610 127 610 102 586 c 1,16,-1
 102 748 l 1,17,18
 202 856 202 856 350 856 c 0,19,20
 370 856 370 856 404 854 c 0,21,22
 432 851 432 851 456 844 c 0,23,24
 482 839 482 839 518 826 c 0,25,26
 571 804 571 804 598 793 c 0,27,28
 639 775 639 775 662 766 c 0,29,30
 693 754 693 754 714 748 c 0,31,32
 739 741 739 741 757 740 c 0,33,34
 776 737 776 737 799 737 c 0,35,36
 827 737 827 737 857 746 c 0,37,38
 886 756 886 756 916 772 c 0,39,40
 952 794 952 794 974 811 c 0,41,42
 1004 835 1004 835 1026 858 c 1,43,-1
 1026 696 l 1,44,45
 927 588 927 588 778 588 c 0,46,47
 758 588 758 588 724 590 c 0,48,49
 696 593 696 593 672 600 c 0,50,51
 646 605 646 605 610 618 c 0,52,53
 557 640 557 640 530 651 c 0,0,1
EndSplineSet
EndChar

StartChar: exclamdown
Encoding: 161 161 99
Width: 551
GlyphClass: 2
Flags: W
LayerCount: 2
Fore
SplineSet
213 676 m 1,0,-1
 334 676 l 1,1,-1
 385 -373 l 1,2,-1
 162 -373 l 1,3,-1
 213 676 l 1,0,-1
401 979 m 0,4,5
 401 941 401 941 392 914 c 0,6,7
 380 886 380 886 364 872 c 0,8,9
 348 854 348 854 324 848 c 0,10,11
 304 840 304 840 274 840 c 0,12,13
 245 840 245 840 225 848 c 0,14,15
 202 854 202 854 184 872 c 0,16,17
 168 886 168 886 157 914 c 0,18,19
 147 940 147 940 147 979 c 128,-1,20
 147 1018 147 1018 157 1042 c 0,21,22
 168 1069 168 1069 184 1085 c 0,23,24
 203 1103 203 1103 225 1110 c 0,25,26
 249 1118 249 1118 274 1118 c 0,27,28
 300 1118 300 1118 324 1110 c 0,29,30
 346 1102 346 1102 364 1085 c 0,31,32
 381 1070 381 1070 392 1042 c 0,33,34
 401 1016 401 1016 401 979 c 0,4,5
EndSplineSet
EndChar

StartChar: cent
Encoding: 162 162 100
Width: 1128
GlyphClass: 2
Flags: W
LayerCount: 2
Fore
SplineSet
831 197 m 0,0,1
 773 181 773 181 700 180 c 1,2,-1
 700 -20 l 1,3,-1
 563 -20 l 1,4,-1
 563 186 l 1,5,6
 477 199 477 199 407 236 c 0,7,8
 338 275 338 275 289 340 c 0,9,10
 239 408 239 408 214 506 c 0,11,12
 188 608 188 608 188 743 c 0,13,14
 188 882 188 882 214 986 c 0,15,16
 242 1089 242 1089 290 1155 c 0,17,18
 340 1225 340 1225 408 1260 c 0,19,20
 473 1297 473 1297 563 1311 c 1,21,-1
 563 1483 l 1,22,-1
 700 1483 l 1,23,-1
 700 1319 l 1,24,25
 767 1316 767 1316 840 1300 c 0,26,27
 910 1281 910 1281 954 1260 c 1,28,-1
 901 1106 l 1,29,30
 889 1112 889 1112 850 1126 c 0,31,32
 812 1138 812 1138 792 1142 c 0,33,34
 762 1151 762 1151 732 1154 c 0,35,36
 708 1159 708 1159 678 1159 c 0,37,38
 521 1159 521 1159 449 1058 c 0,39,40
 377 958 377 958 377 745 c 0,41,42
 377 533 377 533 450 438 c 0,43,44
 521 340 521 340 670 340 c 0,45,46
 752 340 752 340 816 358 c 0,47,48
 885 378 885 378 936 401 c 1,49,-1
 936 240 l 1,50,51
 888 212 888 212 831 197 c 0,0,1
EndSplineSet
EndChar

StartChar: sterling
Encoding: 163 163 101
Width: 1128
GlyphClass: 2
Flags: W
LayerCount: 2
Fore
SplineSet
666 1481 m 0,0,1
 776 1481 776 1481 859 1458 c 0,2,3
 941 1438 941 1438 1012 1401 c 1,4,-1
 946 1257 l 1,5,6
 893 1284 893 1284 820 1308 c 0,7,8
 748 1329 748 1329 674 1329 c 0,9,10
 629 1329 629 1329 585 1316 c 0,11,12
 542 1300 542 1300 514 1272 c 0,13,14
 483 1243 483 1243 468 1196 c 0,15,16
 451 1152 451 1152 451 1083 c 2,17,-1
 451 788 l 1,18,-1
 827 788 l 1,19,-1
 827 651 l 1,20,-1
 451 651 l 1,21,-1
 451 440 l 2,22,23
 451 380 451 380 440 334 c 0,24,25
 427 286 427 286 408 257 c 0,26,27
 391 228 391 228 364 204 c 0,28,29
 339 183 339 183 311 166 c 1,30,-1
 1059 166 l 1,31,-1
 1059 0 l 1,32,-1
 68 0 l 1,33,-1
 68 154 l 1,34,35
 111 164 111 164 148 186 c 0,36,37
 185 205 185 205 212 240 c 0,38,39
 239 276 239 276 253 322 c 0,40,41
 268 371 268 371 268 438 c 2,42,-1
 268 651 l 1,43,-1
 70 651 l 1,44,-1
 70 788 l 1,45,-1
 268 788 l 1,46,-1
 268 1112 l 2,47,48
 268 1199 268 1199 298 1268 c 0,49,50
 327 1337 327 1337 380 1384 c 0,51,52
 431 1430 431 1430 505 1456 c 0,53,54
 577 1481 577 1481 666 1481 c 0,0,1
EndSplineSet
EndChar

StartChar: currency
Encoding: 164 164 102
Width: 1128
GlyphClass: 2
Flags: W
LayerCount: 2
Fore
SplineSet
186 723 m 0,0,1
 186 782 186 782 204 836 c 0,2,3
 221 890 221 890 252 936 c 1,4,-1
 123 1065 l 1,5,-1
 221 1163 l 1,6,-1
 348 1034 l 1,7,8
 395 1066 395 1066 449 1084 c 128,-1,9
 503 1102 503 1102 563 1102 c 0,10,11
 624 1102 624 1102 676 1084 c 0,12,13
 728 1067 728 1067 776 1034 c 1,14,-1
 905 1163 l 1,15,-1
 1004 1067 l 1,16,-1
 874 938 l 1,17,18
 904 894 904 894 924 838 c 0,19,20
 942 782 942 782 942 723 c 128,-1,21
 942 664 942 664 924 608 c 0,22,23
 908 554 908 554 874 508 c 1,24,-1
 1001 381 l 1,25,-1
 905 285 l 1,26,-1
 776 412 l 1,27,28
 729 380 729 380 676 364 c 0,29,30
 624 346 624 346 563 346 c 0,31,32
 503 346 503 346 448 364 c 0,33,34
 395 381 395 381 348 414 c 1,35,-1
 221 287 l 1,36,-1
 125 383 l 1,37,-1
 252 510 l 1,38,39
 220 555 220 555 204 609 c 0,40,41
 186 663 186 663 186 723 c 0,0,1
324 723 m 128,-1,43
 324 672 324 672 342 630 c 0,44,45
 361 585 361 585 394 554 c 0,46,47
 425 521 425 521 470 502 c 0,48,49
 511 483 511 483 563 483 c 0,50,51
 616 483 616 483 658 502 c 0,52,53
 704 522 704 522 736 554 c 0,54,55
 769 585 769 585 788 630 c 0,56,57
 807 671 807 671 807 723 c 0,58,59
 807 776 807 776 788 818 c 0,60,61
 768 864 768 864 736 896 c 128,-1,62
 704 928 704 928 658 948 c 0,63,64
 616 967 616 967 563 967 c 0,65,66
 511 967 511 967 470 948 c 0,67,68
 425 929 425 929 394 896 c 0,69,70
 362 864 362 864 342 818 c 0,71,42
 324 774 324 774 324 723 c 128,-1,43
EndSplineSet
EndChar

StartChar: yen
Encoding: 165 165 103
Width: 1128
GlyphClass: 2
Flags: W
LayerCount: 2
Fore
SplineSet
563 723 m 1,0,-1
 909 1462 l 1,1,-1
 1100 1462 l 1,2,-1
 715 694 l 1,3,-1
 954 694 l 1,4,-1
 954 557 l 1,5,-1
 653 557 l 1,6,-1
 653 399 l 1,7,-1
 954 399 l 1,8,-1
 954 262 l 1,9,-1
 653 262 l 1,10,-1
 653 0 l 1,11,-1
 475 0 l 1,12,-1
 475 262 l 1,13,-1
 174 262 l 1,14,-1
 174 399 l 1,15,-1
 475 399 l 1,16,-1
 475 557 l 1,17,-1
 174 557 l 1,18,-1
 174 694 l 1,19,-1
 408 694 l 1,20,-1
 29 1462 l 1,21,-1
 221 1462 l 1,22,-1
 563 723 l 1,0,-1
EndSplineSet
EndChar

StartChar: brokenbar
Encoding: 166 166 104
Width: 1128
GlyphClass: 2
Flags: W
LayerCount: 2
Fore
SplineSet
489 1556 m 1,0,-1
 639 1556 l 1,1,-1
 639 776 l 1,2,-1
 489 776 l 1,3,-1
 489 1556 l 1,0,-1
489 289 m 1,4,-1
 639 289 l 1,5,-1
 639 -492 l 1,6,-1
 489 -492 l 1,7,-1
 489 289 l 1,4,-1
EndSplineSet
EndChar

StartChar: section
Encoding: 167 167 105
Width: 995
GlyphClass: 2
Flags: W
LayerCount: 2
Fore
SplineSet
137 809 m 0,0,1
 137 862 137 862 150 902 c 0,2,3
 165 948 165 948 186 975 c 0,4,5
 204 1002 204 1002 237 1030 c 0,6,7
 269 1054 269 1054 297 1067 c 1,8,9
 223 1104 223 1104 180 1162 c 0,10,11
 137 1218 137 1218 137 1303 c 0,12,13
 137 1364 137 1364 164 1413 c 0,14,15
 192 1461 192 1461 242 1496 c 0,16,17
 290 1530 290 1530 362 1548 c 0,18,19
 431 1567 431 1567 518 1567 c 0,20,21
 612 1567 612 1567 694 1547 c 0,22,23
 767 1529 767 1529 844 1495 c 1,24,-1
 788 1356 l 1,25,26
 734 1380 734 1380 653 1404 c 0,27,28
 579 1423 579 1423 512 1423 c 0,29,30
 414 1423 414 1423 362 1394 c 0,31,32
 311 1364 311 1364 311 1307 c 0,33,34
 311 1280 311 1280 323 1257 c 0,35,36
 336 1233 336 1233 364 1212 c 0,37,38
 388 1192 388 1192 440 1166 c 0,39,40
 499 1137 499 1137 557 1114 c 0,41,42
 629 1086 629 1086 686 1054 c 0,43,44
 743 1020 743 1020 781 982 c 0,45,46
 820 943 820 943 841 894 c 0,47,48
 862 846 862 846 862 784 c 0,49,50
 862 732 862 732 850 690 c 0,51,52
 839 650 839 650 818 613 c 0,53,54
 799 582 799 582 771 554 c 0,55,56
 747 531 747 531 717 514 c 1,57,58
 786 476 786 476 824 422 c 0,59,60
 862 366 862 366 862 289 c 0,61,62
 862 219 862 219 832 162 c 0,63,64
 803 107 803 107 749 68 c 0,65,66
 693 29 693 29 618 10 c 0,67,68
 538 -10 538 -10 444 -10 c 0,69,70
 341 -10 341 -10 258 6 c 0,71,72
 177 25 177 25 121 55 c 1,73,-1
 121 213 l 1,74,75
 152 198 152 198 190 183 c 0,76,77
 226 168 226 168 270 156 c 0,78,79
 311 146 311 146 356 138 c 0,80,81
 398 131 398 131 444 131 c 0,82,83
 512 131 512 131 560 143 c 0,84,85
 603 154 603 154 634 174 c 0,86,87
 663 196 663 196 672 220 c 0,88,89
 684 244 684 244 684 272 c 0,90,91
 684 298 684 298 676 324 c 0,92,93
 666 347 666 347 642 368 c 0,94,95
 619 389 619 389 569 416 c 0,96,97
 527 438 527 438 446 471 c 0,98,99
 367 505 367 505 316 533 c 0,100,101
 259 564 259 564 218 603 c 0,102,103
 178 642 178 642 158 692 c 0,104,105
 137 742 137 742 137 809 c 0,0,1
291 831 m 0,106,107
 291 796 291 796 305 762 c 0,108,109
 319 732 319 732 350 702 c 0,110,111
 385 671 385 671 432 646 c 0,112,113
 479 619 479 619 555 588 c 2,114,-1
 590 573 l 1,115,116
 616 591 616 591 630 604 c 0,117,118
 647 618 647 618 668 645 c 0,119,120
 687 673 687 673 694 696 c 0,121,122
 705 722 705 722 705 758 c 0,123,124
 705 798 705 798 692 828 c 0,125,126
 678 861 678 861 646 890 c 0,127,128
 617 916 617 916 560 948 c 0,129,130
 497 979 497 979 424 1006 c 1,131,132
 398 998 398 998 376 982 c 0,133,134
 351 967 351 967 333 944 c 0,135,136
 316 925 316 925 302 893 c 0,137,138
 291 863 291 863 291 831 c 0,106,107
EndSplineSet
EndChar

StartChar: dieresis
Encoding: 168 168 106
Width: 1182
GlyphClass: 2
Flags: W
LayerCount: 2
Fore
SplineSet
307 1395 m 0,0,1
 307 1449 307 1449 335 1473 c 0,2,3
 364 1497 364 1497 403 1497 c 0,4,5
 443 1497 443 1497 471 1472 c 0,6,7
 500 1448 500 1448 500 1395 c 0,8,9
 500 1343 500 1343 471 1317 c 0,10,11
 443 1292 443 1292 403 1292 c 128,-1,12
 363 1292 363 1292 335 1317 c 128,-1,13
 307 1342 307 1342 307 1395 c 0,0,1
682 1395 m 0,14,15
 682 1449 682 1449 710 1473 c 128,-1,16
 738 1497 738 1497 778 1497 c 0,17,18
 798 1497 798 1497 814 1491 c 0,19,20
 832 1485 832 1485 845 1472 c 0,21,22
 859 1460 859 1460 866 1441 c 0,23,24
 874 1420 874 1420 874 1395 c 0,25,26
 874 1343 874 1343 845 1317 c 0,27,28
 817 1292 817 1292 778 1292 c 0,29,30
 738 1292 738 1292 710 1317 c 128,-1,31
 682 1342 682 1342 682 1395 c 0,14,15
EndSplineSet
EndChar

StartChar: copyright
Encoding: 169 169 107
Width: 1704
GlyphClass: 2
Flags: W
LayerCount: 2
Fore
SplineSet
891 1053 m 0,0,1
 828 1053 828 1053 783 1031 c 0,2,3
 735 1008 735 1008 704 968 c 0,4,5
 670 923 670 923 656 866 c 0,6,7
 639 809 639 809 639 731 c 128,-1,8
 639 653 639 653 654 593 c 0,9,10
 667 533 667 533 698 492 c 0,11,12
 730 451 730 451 776 430 c 0,13,14
 823 408 823 408 891 408 c 0,15,16
 917 408 917 408 941 412 c 0,17,18
 970 415 970 415 996 421 c 0,19,20
 1022 426 1022 426 1053 436 c 0,21,22
 1072 441 1072 441 1106 453 c 1,23,-1
 1106 322 l 1,24,25
 1074 308 1074 308 1058 302 c 0,26,27
 1037 295 1037 295 1006 286 c 0,28,29
 983 279 983 279 950 276 c 0,30,31
 923 272 923 272 885 272 c 0,32,33
 784 272 784 272 707 305 c 0,34,35
 631 338 631 338 580 399 c 0,36,37
 531 460 531 460 504 545 c 0,38,39
 479 634 479 634 479 733 c 0,40,41
 479 834 479 834 506 918 c 0,42,43
 534 1003 534 1003 586 1061 c 0,44,45
 636 1120 636 1120 714 1154 c 0,46,47
 791 1188 791 1188 891 1188 c 0,48,49
 950 1188 950 1188 1020 1172 c 0,50,51
 1089 1153 1089 1153 1145 1126 c 1,52,-1
 1083 999 l 1,53,54
 1025 1027 1025 1027 982 1039 c 0,55,56
 932 1053 932 1053 891 1053 c 0,0,1
100 731 m 128,-1,58
 100 835 100 835 127 931 c 0,59,60
 154 1028 154 1028 202 1110 c 0,61,62
 252 1195 252 1195 320 1263 c 128,-1,63
 388 1331 388 1331 472 1380 c 0,64,65
 554 1429 554 1429 652 1456 c 0,66,67
 748 1483 748 1483 852 1483 c 128,-1,68
 956 1483 956 1483 1052 1456 c 0,69,70
 1150 1429 1150 1429 1232 1380 c 0,71,72
 1316 1331 1316 1331 1384 1263 c 128,-1,73
 1452 1195 1452 1195 1502 1110 c 0,74,75
 1550 1028 1550 1028 1577 931 c 0,76,77
 1604 835 1604 835 1604 731 c 128,-1,78
 1604 627 1604 627 1577 531 c 0,79,80
 1550 434 1550 434 1502 352 c 0,81,82
 1451 266 1451 266 1384 200 c 0,83,84
 1317 133 1317 133 1232 82 c 0,85,86
 1150 33 1150 33 1052 6 c 0,87,88
 954 -20 954 -20 852 -20 c 128,-1,89
 750 -20 750 -20 652 6 c 0,90,91
 554 33 554 33 472 82 c 0,92,93
 387 133 387 133 320 200 c 0,94,95
 253 266 253 266 202 352 c 0,96,97
 154 434 154 434 127 531 c 0,98,57
 100 627 100 627 100 731 c 128,-1,58
209 731 m 128,-1,100
 209 598 209 598 260 481 c 0,101,102
 309 365 309 365 398 276 c 0,103,104
 485 189 485 189 602 138 c 0,105,106
 720 88 720 88 852 88 c 128,-1,107
 984 88 984 88 1102 138 c 0,108,109
 1219 189 1219 189 1306 276 c 0,110,111
 1395 365 1395 365 1444 481 c 0,112,113
 1495 598 1495 598 1495 731 c 128,-1,114
 1495 864 1495 864 1444 981 c 0,115,116
 1395 1097 1395 1097 1306 1186 c 0,117,118
 1219 1273 1219 1273 1102 1324 c 0,119,120
 984 1374 984 1374 852 1374 c 128,-1,121
 720 1374 720 1374 602 1324 c 0,122,123
 485 1273 485 1273 398 1186 c 0,124,125
 309 1097 309 1097 260 981 c 0,126,99
 209 864 209 864 209 731 c 128,-1,100
EndSplineSet
EndChar

StartChar: ordfeminine
Encoding: 170 170 108
Width: 678
GlyphClass: 2
Flags: W
LayerCount: 2
Fore
SplineSet
487 797 m 1,0,-1
 459 879 l 1,1,2
 444 860 444 860 422 840 c 0,3,4
 400 821 400 821 378 810 c 0,5,6
 358 798 358 798 327 790 c 0,7,8
 298 784 298 784 264 784 c 0,9,10
 220 784 220 784 185 797 c 0,11,12
 146 812 146 812 123 836 c 0,13,14
 97 860 97 860 82 900 c 0,15,16
 68 939 68 939 68 989 c 0,17,18
 68 1090 68 1090 138 1145 c 0,19,20
 211 1200 211 1200 352 1204 c 2,21,-1
 451 1208 l 1,22,-1
 451 1239 l 2,23,24
 451 1310 451 1310 420 1340 c 0,25,26
 389 1368 389 1368 334 1368 c 0,27,28
 288 1368 288 1368 241 1354 c 0,29,30
 194 1338 194 1338 154 1317 c 1,31,-1
 106 1417 l 1,32,33
 161 1444 161 1444 216 1461 c 0,34,35
 273 1479 273 1479 334 1479 c 0,36,37
 459 1479 459 1479 518 1426 c 0,38,39
 578 1373 578 1373 578 1251 c 2,40,-1
 578 797 l 1,41,-1
 487 797 l 1,0,-1
377 1110 m 2,42,43
 327 1107 327 1107 292 1098 c 0,44,45
 258 1089 258 1089 238 1074 c 0,46,47
 217 1059 217 1059 208 1038 c 0,48,49
 199 1016 199 1016 199 987 c 0,50,51
 199 935 199 935 224 914 c 0,52,53
 248 891 248 891 291 891 c 0,54,55
 328 891 328 891 354 902 c 0,56,57
 383 911 383 911 404 934 c 0,58,59
 426 956 426 956 438 988 c 0,60,61
 451 1020 451 1020 451 1065 c 2,62,-1
 451 1114 l 1,63,-1
 377 1110 l 2,42,43
EndSplineSet
EndChar

StartChar: guillemotleft
Encoding: 171 171 109
Width: 997
GlyphClass: 2
Flags: W
LayerCount: 2
Fore
SplineSet
82 553 m 1,0,-1
 391 967 l 1,1,-1
 508 889 l 1,2,-1
 270 541 l 1,3,-1
 508 193 l 1,4,-1
 391 115 l 1,5,-1
 82 526 l 1,6,-1
 82 553 l 1,0,-1
489 553 m 1,7,-1
 799 967 l 1,8,-1
 915 889 l 1,9,-1
 678 541 l 1,10,-1
 915 193 l 1,11,-1
 799 115 l 1,12,-1
 489 526 l 1,13,-1
 489 553 l 1,7,-1
EndSplineSet
EndChar

StartChar: logicalnot
Encoding: 172 172 110
Width: 1128
GlyphClass: 2
Flags: W
LayerCount: 2
Fore
SplineSet
1026 797 m 1,0,-1
 1026 262 l 1,1,-1
 877 262 l 1,2,-1
 877 647 l 1,3,-1
 102 647 l 1,4,-1
 102 797 l 1,5,-1
 1026 797 l 1,0,-1
EndSplineSet
EndChar

StartChar: registered
Encoding: 174 174 112
Width: 1704
GlyphClass: 2
Flags: W
LayerCount: 2
Fore
SplineSet
743 768 m 1,0,-1
 815 768 l 2,1,2
 906 768 906 768 946 804 c 0,3,4
 985 840 985 840 985 909 c 0,5,6
 985 983 985 983 944 1012 c 0,7,8
 902 1042 902 1042 813 1042 c 2,9,-1
 743 1042 l 1,10,-1
 743 768 l 1,0,-1
1145 913 m 0,11,12
 1145 867 1145 867 1132 828 c 0,13,14
 1117 789 1117 789 1096 762 c 0,15,16
 1071 730 1071 730 1044 713 c 0,17,18
 1018 694 1018 694 985 680 c 1,19,20
 1038 594 1038 594 1105 483 c 0,21,22
 1109 476 1109 476 1125 450 c 128,-1,23
 1141 424 1141 424 1149 410 c 0,24,25
 1177 363 1177 363 1186 347 c 0,26,27
 1193 337 1193 337 1201.5 322 c 128,-1,28
 1210 307 1210 307 1213 302 c 2,29,-1
 1223 285 l 1,30,-1
 1044 285 l 1,31,-1
 838 637 l 1,32,-1
 743 637 l 1,33,-1
 743 285 l 1,34,-1
 586 285 l 1,35,-1
 586 1178 l 1,36,-1
 819 1178 l 2,37,38
 986 1178 986 1178 1066 1113 c 0,39,40
 1145 1049 1145 1049 1145 913 c 0,11,12
100 731 m 128,-1,42
 100 835 100 835 127 931 c 0,43,44
 154 1028 154 1028 202 1110 c 0,45,46
 252 1195 252 1195 320 1263 c 128,-1,47
 388 1331 388 1331 472 1380 c 0,48,49
 554 1429 554 1429 652 1456 c 0,50,51
 748 1483 748 1483 852 1483 c 128,-1,52
 956 1483 956 1483 1052 1456 c 0,53,54
 1150 1429 1150 1429 1232 1380 c 0,55,56
 1316 1331 1316 1331 1384 1263 c 128,-1,57
 1452 1195 1452 1195 1502 1110 c 0,58,59
 1550 1028 1550 1028 1577 931 c 0,60,61
 1604 835 1604 835 1604 731 c 128,-1,62
 1604 627 1604 627 1577 531 c 0,63,64
 1550 434 1550 434 1502 352 c 0,65,66
 1451 266 1451 266 1384 200 c 0,67,68
 1317 133 1317 133 1232 82 c 0,69,70
 1150 33 1150 33 1052 6 c 0,71,72
 954 -20 954 -20 852 -20 c 128,-1,73
 750 -20 750 -20 652 6 c 0,74,75
 554 33 554 33 472 82 c 0,76,77
 387 133 387 133 320 200 c 0,78,79
 253 266 253 266 202 352 c 0,80,81
 154 434 154 434 127 531 c 0,82,41
 100 627 100 627 100 731 c 128,-1,42
209 731 m 128,-1,84
 209 598 209 598 260 481 c 0,85,86
 309 365 309 365 398 276 c 0,87,88
 485 189 485 189 602 138 c 0,89,90
 720 88 720 88 852 88 c 128,-1,91
 984 88 984 88 1102 138 c 0,92,93
 1219 189 1219 189 1306 276 c 0,94,95
 1395 365 1395 365 1444 481 c 0,96,97
 1495 598 1495 598 1495 731 c 128,-1,98
 1495 864 1495 864 1444 981 c 0,99,100
 1395 1097 1395 1097 1306 1186 c 0,101,102
 1219 1273 1219 1273 1102 1324 c 0,103,104
 984 1374 984 1374 852 1374 c 128,-1,105
 720 1374 720 1374 602 1324 c 0,106,107
 485 1273 485 1273 398 1186 c 0,108,109
 309 1097 309 1097 260 981 c 0,110,83
 209 864 209 864 209 731 c 128,-1,84
EndSplineSet
EndChar

StartChar: overscore
Encoding: 65537 -1 113
Width: 1024
GlyphClass: 2
Flags: W
LayerCount: 2
Fore
SplineSet
1030 1556 m 1,0,-1
 -6 1556 l 1,1,-1
 -6 1696 l 1,2,-1
 1030 1696 l 1,3,-1
 1030 1556 l 1,0,-1
EndSplineSet
EndChar

StartChar: degree
Encoding: 176 176 114
Width: 877
GlyphClass: 2
Flags: W
LayerCount: 2
Fore
SplineSet
123 1167 m 128,-1,1
 123 1233 123 1233 148 1290 c 0,2,3
 174 1348 174 1348 216 1390 c 0,4,5
 257 1432 257 1432 316 1458 c 0,6,7
 372 1483 372 1483 438 1483 c 128,-1,8
 504 1483 504 1483 560 1458 c 0,9,10
 618 1432 618 1432 661 1390 c 0,11,12
 703 1348 703 1348 729 1290 c 0,13,14
 754 1233 754 1233 754 1167 c 128,-1,15
 754 1101 754 1101 729 1045 c 0,16,17
 703 986 703 986 661 946 c 0,18,19
 618 904 618 904 560 878 c 0,20,21
 503 854 503 854 438 854 c 128,-1,22
 373 854 373 854 316 878 c 0,23,24
 257 904 257 904 216 946 c 0,25,26
 174 986 174 986 148 1045 c 0,27,0
 123 1101 123 1101 123 1167 c 128,-1,1
246 1167 m 0,28,29
 246 1127 246 1127 261 1094 c 0,30,31
 275 1060 275 1060 302 1033 c 0,32,33
 328 1007 328 1007 363 992 c 256,34,35
 398 977 398 977 438 977 c 128,-1,36
 478 977 478 977 513 992 c 256,37,38
 548 1007 548 1007 574 1033 c 0,39,40
 601 1059 601 1059 616 1094 c 0,41,42
 631 1127 631 1127 631 1167 c 0,43,44
 631 1208 631 1208 616 1242 c 0,45,46
 601 1279 601 1279 574 1304 c 0,47,48
 549 1330 549 1330 513 1346 c 0,49,50
 480 1362 480 1362 438 1362 c 128,-1,51
 396 1362 396 1362 363 1346 c 0,52,53
 327 1330 327 1330 302 1304 c 0,54,55
 276 1278 276 1278 261 1242 c 0,56,57
 246 1208 246 1208 246 1167 c 0,28,29
EndSplineSet
EndChar

StartChar: plusminus
Encoding: 177 177 115
Width: 1128
GlyphClass: 2
Flags: W
LayerCount: 2
Fore
SplineSet
489 647 m 1,0,-1
 102 647 l 1,1,-1
 102 797 l 1,2,-1
 489 797 l 1,3,-1
 489 1186 l 1,4,-1
 639 1186 l 1,5,-1
 639 797 l 1,6,-1
 1026 797 l 1,7,-1
 1026 647 l 1,8,-1
 639 647 l 1,9,-1
 639 262 l 1,10,-1
 489 262 l 1,11,-1
 489 647 l 1,0,-1
102 0 m 1,12,-1
 102 150 l 1,13,-1
 1026 150 l 1,14,-1
 1026 0 l 1,15,-1
 102 0 l 1,12,-1
EndSplineSet
EndChar

StartChar: twosuperior
Encoding: 178 178 116
Width: 678
GlyphClass: 2
Flags: W
LayerCount: 2
Fore
SplineSet
621 586 m 1,0,-1
 49 586 l 1,1,-1
 49 698 l 1,2,-1
 258 926 l 2,3,4
 309 981 309 981 351 1030 c 0,5,6
 390 1077 390 1077 407 1106 c 0,7,8
 429 1145 429 1145 434 1170 c 0,9,10
 442 1195 442 1195 442 1233 c 0,11,12
 442 1298 442 1298 409 1330 c 0,13,14
 375 1362 375 1362 322 1362 c 0,15,16
 271 1362 271 1362 224 1337 c 0,17,18
 176 1310 176 1310 133 1274 c 1,19,-1
 55 1368 l 1,20,21
 111 1418 111 1418 176 1448 c 0,22,23
 242 1481 242 1481 324 1481 c 0,24,25
 387 1481 387 1481 432 1464 c 0,26,27
 480 1449 480 1449 515 1416 c 0,28,29
 547 1388 547 1388 568 1340 c 0,30,31
 586 1294 586 1294 586 1237 c 0,32,33
 586 1189 586 1189 572 1144 c 0,34,35
 558 1103 558 1103 530 1058 c 0,36,37
 504 1018 504 1018 464 970 c 0,38,39
 422 923 422 923 373 870 c 2,40,-1
 225 713 l 1,41,-1
 621 713 l 1,42,-1
 621 586 l 1,0,-1
EndSplineSet
EndChar

StartChar: threesuperior
Encoding: 179 179 117
Width: 678
GlyphClass: 2
Flags: W
LayerCount: 2
Fore
SplineSet
590 1255 m 0,0,1
 590 1178 590 1178 550 1124 c 0,2,3
 507 1070 507 1070 440 1047 c 1,4,5
 527 1025 527 1025 572 971 c 0,6,7
 616 918 616 918 616 840 c 0,8,9
 616 781 616 781 596 730 c 0,10,11
 576 680 576 680 534 644 c 128,-1,12
 492 608 492 608 430 589 c 0,13,14
 365 569 365 569 281 569 c 0,15,16
 208 569 208 569 150 582 c 0,17,18
 87 594 87 594 31 625 c 1,19,-1
 31 758 l 1,20,21
 90 726 90 726 160 705 c 0,22,23
 224 686 224 686 279 686 c 0,24,25
 378 686 378 686 421 728 c 0,26,27
 465 769 465 769 465 842 c 128,-1,28
 465 915 465 915 412 950 c 0,29,30
 358 983 358 983 262 983 c 2,31,-1
 164 983 l 1,32,-1
 164 1096 l 1,33,-1
 262 1096 l 2,34,35
 355 1096 355 1096 396 1136 c 0,36,37
 438 1175 438 1175 438 1239 c 0,38,39
 438 1273 438 1273 428 1294 c 0,40,41
 417 1319 417 1319 400 1333 c 0,42,43
 385 1347 385 1347 360 1355 c 0,44,45
 338 1362 338 1362 309 1362 c 0,46,47
 251 1362 251 1362 202 1342 c 0,48,49
 152 1321 152 1321 102 1284 c 1,50,-1
 33 1380 l 1,51,52
 59 1401 59 1401 92 1422 c 0,53,54
 123 1440 123 1440 157 1453 c 0,55,56
 182 1463 182 1463 229 1474 c 0,57,58
 273 1481 273 1481 311 1481 c 0,59,60
 379 1481 379 1481 432 1464 c 0,61,62
 484 1448 484 1448 520 1417 c 128,-1,63
 556 1386 556 1386 572 1346 c 0,64,65
 590 1304 590 1304 590 1255 c 0,0,1
EndSplineSet
EndChar

StartChar: acute
Encoding: 180 180 118
Width: 1182
GlyphClass: 2
Flags: W
LayerCount: 2
Fore
SplineSet
393 1268 m 1,0,1
 413 1293 413 1293 438 1335 c 0,2,3
 465 1377 465 1377 486 1414 c 0,4,5
 500 1438 500 1438 530 1494 c 0,6,7
 556 1546 556 1546 567 1569 c 1,8,-1
 786 1569 l 1,9,-1
 786 1548 l 1,10,11
 767 1517 767 1517 738 1480 c 0,12,13
 706 1438 706 1438 668 1396 c 0,14,15
 644 1368 644 1368 590 1310 c 0,16,17
 545 1267 545 1267 514 1241 c 1,18,-1
 393 1241 l 1,19,-1
 393 1268 l 1,0,1
EndSplineSet
EndChar

StartChar: mu
Encoding: 181 181 119
Width: 1217
GlyphClass: 2
Flags: W
LayerCount: 2
Fore
SplineSet
356 391 m 2,0,1
 356 261 356 261 409 196 c 128,-1,2
 462 131 462 131 573 131 c 0,3,4
 653 131 653 131 710 157 c 0,5,6
 764 182 764 182 798 234 c 0,7,8
 832 283 832 283 846 358 c 0,9,10
 860 434 860 434 860 528 c 2,11,-1
 860 1098 l 1,12,-1
 1042 1098 l 1,13,-1
 1042 0 l 1,14,-1
 895 0 l 1,15,-1
 868 147 l 1,16,-1
 858 147 l 1,17,18
 810 64 810 64 738 22 c 128,-1,19
 666 -20 666 -20 563 -20 c 0,20,21
 492 -20 492 -20 438 3 c 0,22,23
 385 26 385 26 350 68 c 1,24,25
 352 30 352 30 353 -10 c 0,26,27
 354 -44 354 -44 356 -88 c 2,28,-1
 356 -172 l 1,29,-1
 356 -492 l 1,30,-1
 174 -492 l 1,31,-1
 174 1098 l 1,32,-1
 356 1098 l 1,33,-1
 356 391 l 2,0,1
EndSplineSet
EndChar

StartChar: paragraph
Encoding: 182 182 120
Width: 1341
GlyphClass: 2
Flags: W
LayerCount: 2
Fore
SplineSet
1126 -260 m 1,0,-1
 1006 -260 l 1,1,-1
 1006 1397 l 1,2,-1
 799 1397 l 1,3,-1
 799 -260 l 1,4,-1
 678 -260 l 1,5,-1
 678 559 l 1,6,7
 616 541 616 541 532 541 c 0,8,9
 440 541 440 541 360 566 c 0,10,11
 281 593 281 593 228 651 c 0,12,13
 173 708 173 708 143 806 c 0,14,15
 113 902 113 902 113 1042 c 0,16,17
 113 1189 113 1189 146 1288 c 0,18,19
 178 1385 178 1385 238 1446 c 0,20,21
 295 1505 295 1505 380 1531 c 0,22,23
 461 1556 461 1556 563 1556 c 2,24,-1
 1126 1556 l 1,25,-1
 1126 -260 l 1,0,-1
EndSplineSet
EndChar

StartChar: periodcentered
Encoding: 183 183 121
Width: 549
GlyphClass: 2
Flags: W
LayerCount: 2
Fore
SplineSet
147 723 m 128,-1,1
 147 762 147 762 157 788 c 0,2,3
 168 816 168 816 184 830 c 0,4,5
 200 848 200 848 224 854 c 0,6,7
 244 862 244 862 274 862 c 0,8,9
 303 862 303 862 324 854 c 0,10,11
 348 848 348 848 364 830 c 0,12,13
 380 816 380 816 391 788 c 0,14,15
 401 762 401 762 401 723 c 128,-1,16
 401 684 401 684 391 660 c 0,17,18
 380 633 380 633 364 617 c 0,19,20
 346 600 346 600 324 592 c 0,21,22
 298 584 298 584 274 584 c 0,23,24
 248 584 248 584 224 592 c 0,25,26
 202 600 202 600 184 617 c 0,27,28
 168 633 168 633 157 660 c 0,29,0
 147 684 147 684 147 723 c 128,-1,1
EndSplineSet
EndChar

StartChar: cedilla
Encoding: 184 184 122
Width: 420
GlyphClass: 2
Flags: W
LayerCount: 2
Fore
SplineSet
408 -287 m 0,0,1
 408 -383 408 -383 338 -438 c 0,2,3
 266 -492 266 -492 117 -492 c 0,4,5
 96 -492 96 -492 72 -489 c 128,-1,6
 48 -486 48 -486 35 -483 c 1,7,-1
 35 -375 l 2,8,9
 37 -375 37 -375 74 -380 c 0,10,11
 83 -380 83 -380 96.5 -380.5 c 128,-1,12
 110 -381 110 -381 115 -381 c 0,13,14
 186 -381 186 -381 226 -360 c 0,15,16
 266 -338 266 -338 266 -289 c 0,17,18
 266 -264 266 -264 253 -248 c 0,19,20
 240 -231 240 -231 217 -217 c 0,21,22
 197 -205 197 -205 162 -194 c 0,23,24
 134 -186 134 -186 94 -176 c 1,25,-1
 184 0 l 1,26,-1
 305 0 l 1,27,-1
 248 -115 l 1,28,29
 282 -122 282 -122 311 -136 c 0,30,31
 341 -150 341 -150 362 -170 c 0,32,33
 381 -188 381 -188 396 -219 c 0,34,35
 408 -248 408 -248 408 -287 c 0,0,1
EndSplineSet
EndChar

StartChar: onesuperior
Encoding: 185 185 123
Width: 678
GlyphClass: 2
Flags: W
LayerCount: 2
Fore
SplineSet
307 1462 m 1,0,-1
 442 1462 l 1,1,-1
 442 586 l 1,2,-1
 297 586 l 1,3,-1
 297 1102 l 2,4,5
 297 1137 297 1137 298 1157 c 0,6,7
 298 1197 298 1197 300 1217 c 0,8,9
 300 1227 300 1227 301 1246.5 c 128,-1,10
 302 1266 302 1266 302 1275 c 0,11,12
 303 1286 303 1286 304 1304 c 128,-1,13
 305 1322 305 1322 305 1325 c 1,14,15
 287 1303 287 1303 272 1288 c 0,16,17
 246 1262 246 1262 231 1251 c 2,18,-1
 137 1178 l 1,19,-1
 63 1274 l 1,20,-1
 307 1462 l 1,0,-1
EndSplineSet
EndChar

StartChar: ordmasculine
Encoding: 186 186 124
Width: 717
GlyphClass: 2
Flags: W
LayerCount: 2
Fore
SplineSet
651 1133 m 0,0,1
 651 1050 651 1050 630 985 c 0,2,3
 611 921 611 921 572 876 c 0,4,5
 532 830 532 830 478 808 c 0,6,7
 424 784 424 784 356 784 c 0,8,9
 292 784 292 784 240 808 c 0,10,11
 187 831 187 831 148 876 c 0,12,13
 110 919 110 919 88 985 c 0,14,15
 66 1048 66 1048 66 1133 c 0,16,17
 66 1215 66 1215 86 1280 c 0,18,19
 106 1344 106 1344 145 1389 c 128,-1,20
 184 1434 184 1434 238 1456 c 0,21,22
 293 1479 293 1479 360 1479 c 0,23,24
 421 1479 421 1479 476 1456 c 0,25,26
 528 1434 528 1434 568 1389 c 0,27,28
 606 1346 606 1346 629 1280 c 0,29,30
 651 1218 651 1218 651 1133 c 0,0,1
197 1133 m 0,31,32
 197 1016 197 1016 234 954 c 0,33,34
 273 893 273 893 358 893 c 0,35,36
 444 893 444 893 480 954 c 0,37,38
 518 1012 518 1012 518 1133 c 128,-1,39
 518 1254 518 1254 480 1310 c 0,40,41
 444 1368 444 1368 358 1368 c 0,42,43
 273 1368 273 1368 234 1310 c 0,44,45
 197 1251 197 1251 197 1133 c 0,31,32
EndSplineSet
EndChar

StartChar: guillemotright
Encoding: 187 187 125
Width: 997
GlyphClass: 2
Flags: W
LayerCount: 2
Fore
SplineSet
918 526 m 1,0,-1
 608 115 l 1,1,-1
 492 193 l 1,2,-1
 729 541 l 1,3,-1
 492 889 l 1,4,-1
 608 967 l 1,5,-1
 918 553 l 1,6,-1
 918 526 l 1,0,-1
510 526 m 1,7,-1
 201 115 l 1,8,-1
 84 193 l 1,9,-1
 322 541 l 1,10,-1
 84 889 l 1,11,-1
 201 967 l 1,12,-1
 510 553 l 1,13,-1
 510 526 l 1,7,-1
EndSplineSet
EndChar

StartChar: onequarter
Encoding: 188 188 126
Width: 1509
GlyphClass: 2
Flags: W
LayerCount: 2
Fore
SplineSet
307 1462 m 1,0,-1
 442 1462 l 1,1,-1
 442 586 l 1,2,-1
 297 586 l 1,3,-1
 297 1102 l 2,4,5
 297 1137 297 1137 298 1157 c 0,6,7
 298 1197 298 1197 300 1217 c 0,8,9
 300 1227 300 1227 301 1246.5 c 128,-1,10
 302 1266 302 1266 302 1275 c 0,11,12
 303 1286 303 1286 304 1304 c 128,-1,13
 305 1322 305 1322 305 1325 c 1,14,15
 287 1303 287 1303 272 1288 c 0,16,17
 246 1262 246 1262 231 1251 c 2,18,-1
 137 1178 l 1,19,-1
 63 1274 l 1,20,-1
 307 1462 l 1,0,-1
1202 1462 m 1,21,-1
 391 0 l 1,22,-1
 234 0 l 1,23,-1
 1045 1462 l 1,24,-1
 1202 1462 l 1,21,-1
1419 193 m 1,25,-1
 1294 193 l 1,26,-1
 1294 1 l 1,27,-1
 1151 1 l 1,28,-1
 1151 193 l 1,29,-1
 776 193 l 1,30,-1
 776 304 l 1,31,-1
 1153 883 l 1,32,-1
 1294 883 l 1,33,-1
 1294 320 l 1,34,-1
 1419 320 l 1,35,-1
 1419 193 l 1,25,-1
1151 320 m 1,36,-1
 1151 515 l 2,37,38
 1151 528 1151 528 1151.5 559 c 128,-1,39
 1152 590 1152 590 1152 606 c 0,40,41
 1153 623 1153 623 1154.5 655.5 c 128,-1,42
 1156 688 1156 688 1157 705 c 1,43,44
 1152 693 1152 693 1142 676 c 0,45,46
 1128 650 1128 650 1121 636 c 0,47,48
 1111 617 1111 617 1098 595 c 2,49,-1
 1077 560 l 1,50,-1
 922 320 l 1,51,-1
 1151 320 l 1,36,-1
EndSplineSet
EndChar

StartChar: onehalf
Encoding: 189 189 127
Width: 1509
GlyphClass: 2
Flags: W
LayerCount: 2
Fore
SplineSet
288 1462 m 1,0,-1
 423 1462 l 1,1,-1
 423 586 l 1,2,-1
 278 586 l 1,3,-1
 278 1102 l 1,4,-1
 278 1157 l 2,5,6
 280 1197 280 1197 280 1217 c 0,7,8
 281 1227 281 1227 282 1246 c 128,-1,9
 283 1265 283 1265 284 1275 c 0,10,11
 284 1295 284 1295 286 1325 c 1,12,13
 268 1303 268 1303 253 1288 c 0,14,15
 227 1262 227 1262 212 1251 c 2,16,-1
 118 1178 l 1,17,-1
 44 1274 l 1,18,-1
 288 1462 l 1,0,-1
1181 1462 m 1,19,-1
 370 0 l 1,20,-1
 213 0 l 1,21,-1
 1024 1462 l 1,22,-1
 1181 1462 l 1,19,-1
1440 1 m 1,23,-1
 868 1 l 1,24,-1
 868 113 l 1,25,-1
 1077 341 l 2,26,27
 1134 402 1134 402 1170 446 c 0,28,29
 1208 491 1208 491 1226 522 c 128,-1,30
 1244 553 1244 553 1254 584 c 0,31,32
 1261 619 1261 619 1261 648 c 0,33,34
 1261 714 1261 714 1228 745 c 0,35,36
 1194 777 1194 777 1141 777 c 128,-1,37
 1088 777 1088 777 1044 752 c 0,38,39
 999 728 999 728 952 689 c 1,40,-1
 874 783 l 1,41,42
 928 831 928 831 994 864 c 0,43,44
 1063 896 1063 896 1143 896 c 0,45,46
 1199 896 1199 896 1252 880 c 0,47,48
 1299 862 1299 862 1334 832 c 0,49,50
 1369 799 1369 799 1386 754 c 0,51,52
 1405 710 1405 710 1405 652 c 0,53,54
 1405 602 1405 602 1390 559 c 0,55,56
 1377 518 1377 518 1349 474 c 0,57,58
 1322 430 1322 430 1282 386 c 0,59,60
 1253 351 1253 351 1192 285 c 2,61,-1
 1044 128 l 1,62,-1
 1440 128 l 1,63,-1
 1440 1 l 1,23,-1
EndSplineSet
EndChar

StartChar: threequarters
Encoding: 190 190 128
Width: 1509
GlyphClass: 2
Flags: W
LayerCount: 2
Fore
SplineSet
590 1255 m 0,0,1
 590 1178 590 1178 550 1124 c 0,2,3
 507 1070 507 1070 440 1047 c 1,4,5
 527 1025 527 1025 572 971 c 0,6,7
 616 918 616 918 616 840 c 0,8,9
 616 781 616 781 596 730 c 0,10,11
 576 680 576 680 534 644 c 128,-1,12
 492 608 492 608 430 589 c 0,13,14
 365 569 365 569 281 569 c 0,15,16
 208 569 208 569 150 582 c 0,17,18
 87 594 87 594 31 625 c 1,19,-1
 31 758 l 1,20,21
 90 726 90 726 160 705 c 0,22,23
 224 686 224 686 279 686 c 0,24,25
 378 686 378 686 421 728 c 0,26,27
 465 769 465 769 465 842 c 128,-1,28
 465 915 465 915 412 950 c 0,29,30
 358 983 358 983 262 983 c 2,31,-1
 164 983 l 1,32,-1
 164 1096 l 1,33,-1
 262 1096 l 2,34,35
 355 1096 355 1096 396 1136 c 0,36,37
 438 1175 438 1175 438 1239 c 0,38,39
 438 1273 438 1273 428 1294 c 0,40,41
 417 1319 417 1319 400 1333 c 0,42,43
 385 1347 385 1347 360 1355 c 0,44,45
 338 1362 338 1362 309 1362 c 0,46,47
 251 1362 251 1362 202 1342 c 0,48,49
 152 1321 152 1321 102 1284 c 1,50,-1
 33 1380 l 1,51,52
 59 1401 59 1401 92 1422 c 0,53,54
 123 1440 123 1440 157 1453 c 0,55,56
 182 1463 182 1463 229 1474 c 0,57,58
 273 1481 273 1481 311 1481 c 0,59,60
 379 1481 379 1481 432 1464 c 0,61,62
 484 1448 484 1448 520 1417 c 128,-1,63
 556 1386 556 1386 572 1346 c 0,64,65
 590 1304 590 1304 590 1255 c 0,0,1
1296 1462 m 1,66,-1
 485 0 l 1,67,-1
 328 0 l 1,68,-1
 1139 1462 l 1,69,-1
 1296 1462 l 1,66,-1
1486 193 m 1,70,-1
 1361 193 l 1,71,-1
 1361 1 l 1,72,-1
 1218 1 l 1,73,-1
 1218 193 l 1,74,-1
 843 193 l 1,75,-1
 843 304 l 1,76,-1
 1220 883 l 1,77,-1
 1361 883 l 1,78,-1
 1361 320 l 1,79,-1
 1486 320 l 1,80,-1
 1486 193 l 1,70,-1
1218 320 m 1,81,-1
 1218 515 l 2,82,83
 1218 574 1218 574 1220 606 c 0,84,85
 1220 639 1220 639 1224 705 c 1,86,87
 1219 693 1219 693 1209 676 c 0,88,89
 1195 650 1195 650 1188 636 c 0,90,91
 1178 617 1178 617 1165 595 c 2,92,-1
 1144 560 l 1,93,-1
 989 320 l 1,94,-1
 1218 320 l 1,81,-1
EndSplineSet
EndChar

StartChar: questiondown
Encoding: 191 191 129
Width: 872
GlyphClass: 2
Flags: W
LayerCount: 2
Fore
SplineSet
592 676 m 1,0,-1
 592 639 l 2,1,2
 592 584 592 584 584 536 c 0,3,4
 576 487 576 487 556 450 c 0,5,6
 539 411 539 411 504 371 c 0,7,8
 474 335 474 335 422 291 c 0,9,10
 377 253 377 253 340 216 c 0,11,12
 306 184 306 184 284 148 c 0,13,14
 265 118 265 118 252 74 c 0,15,16
 242 31 242 31 242 -18 c 0,17,18
 242 -66 242 -66 257 -106 c 0,19,20
 271 -141 271 -141 300 -174 c 1,21,22
 332 -203 332 -203 372 -218 c 0,23,24
 414 -233 414 -233 469 -233 c 0,25,26
 550 -233 550 -233 628 -208 c 0,27,28
 707 -180 707 -180 772 -147 c 1,29,-1
 836 -293 l 1,30,31
 750 -337 750 -337 660 -364 c 0,32,33
 564 -393 564 -393 469 -393 c 0,34,35
 379 -393 379 -393 302 -368 c 0,36,37
 225 -340 225 -340 176 -294 c 0,38,39
 125 -247 125 -247 96 -177 c 0,40,41
 68 -109 68 -109 68 -20 c 0,42,43
 68 51 68 51 82 100 c 0,44,45
 93 149 93 149 122 197 c 0,46,47
 145 238 145 238 188 284 c 0,48,49
 240 336 240 336 283 373 c 0,50,51
 335 418 335 418 368 452 c 0,52,53
 400 484 400 484 420 516 c 0,54,55
 438 545 438 545 446 580 c 0,56,57
 453 612 453 612 453 657 c 2,58,-1
 453 676 l 1,59,-1
 592 676 l 1,0,-1
639 979 m 0,60,61
 639 941 639 941 630 914 c 0,62,63
 618 886 618 886 602 872 c 0,64,65
 586 854 586 854 562 848 c 0,66,67
 542 840 542 840 512 840 c 0,68,69
 483 840 483 840 463 848 c 0,70,71
 440 854 440 854 422 872 c 0,72,73
 406 886 406 886 395 914 c 0,74,75
 385 940 385 940 385 979 c 128,-1,76
 385 1018 385 1018 395 1042 c 0,77,78
 406 1069 406 1069 422 1085 c 0,79,80
 441 1103 441 1103 463 1110 c 0,81,82
 487 1118 487 1118 512 1118 c 0,83,84
 538 1118 538 1118 562 1110 c 0,85,86
 584 1102 584 1102 602 1085 c 0,87,88
 619 1070 619 1070 630 1042 c 0,89,90
 639 1016 639 1016 639 979 c 0,60,61
EndSplineSet
EndChar

StartChar: AE
Encoding: 198 198 136
Width: 1745
GlyphClass: 2
Flags: W
LayerCount: 2
Fore
SplineSet
1622 0 m 1,0,-1
 862 0 l 1,1,-1
 862 453 l 1,2,-1
 387 453 l 1,3,-1
 184 0 l 1,4,-1
 -2 0 l 1,5,-1
 653 1462 l 1,6,-1
 1622 1462 l 1,7,-1
 1622 1298 l 1,8,-1
 1049 1298 l 1,9,-1
 1049 846 l 1,10,-1
 1583 846 l 1,11,-1
 1583 684 l 1,12,-1
 1049 684 l 1,13,-1
 1049 164 l 1,14,-1
 1622 164 l 1,15,-1
 1622 0 l 1,0,-1
459 618 m 1,16,-1
 862 618 l 1,17,-1
 862 1298 l 1,18,-1
 754 1298 l 1,19,-1
 459 618 l 1,16,-1
EndSplineSet
EndChar

StartChar: Igrave
Encoding: 204 204 142
Width: 694
GlyphClass: 2
Flags: W
LayerCount: 2
Fore
SplineSet
612 0 m 1,0,-1
 82 0 l 1,1,-1
 82 102 l 1,2,-1
 254 143 l 1,3,-1
 254 1319 l 1,4,-1
 82 1360 l 1,5,-1
 82 1462 l 1,6,-1
 612 1462 l 1,7,-1
 612 1360 l 1,8,-1
 440 1319 l 1,9,-1
 440 143 l 1,10,-1
 612 102 l 1,11,-1
 612 0 l 1,0,-1
455 1579 m 1,12,-1
 335 1579 l 1,13,14
 295 1612 295 1612 259 1648 c 0,15,16
 213 1696 213 1696 180 1734 c 0,17,18
 142 1776 142 1776 110 1818 c 0,19,20
 81 1855 81 1855 62 1886 c 1,21,-1
 62 1907 l 1,22,-1
 281 1907 l 1,23,24
 292 1884 292 1884 318 1832 c 0,25,26
 326 1819 326 1819 341 1792 c 128,-1,27
 356 1765 356 1765 363 1752 c 0,28,29
 381 1718 381 1718 410 1673 c 128,-1,30
 439 1628 439 1628 455 1606 c 1,31,-1
 455 1579 l 1,12,-1
EndSplineSet
EndChar

StartChar: Icircumflex
Encoding: 206 206 144
Width: 694
GlyphClass: 2
Flags: W
LayerCount: 2
Fore
SplineSet
612 0 m 1,0,-1
 82 0 l 1,1,-1
 82 102 l 1,2,-1
 254 143 l 1,3,-1
 254 1319 l 1,4,-1
 82 1360 l 1,5,-1
 82 1462 l 1,6,-1
 612 1462 l 1,7,-1
 612 1360 l 1,8,-1
 440 1319 l 1,9,-1
 440 143 l 1,10,-1
 612 102 l 1,11,-1
 612 0 l 1,0,-1
681 1579 m 1,12,-1
 560 1579 l 1,13,14
 505 1616 505 1616 455 1662 c 0,15,16
 401 1710 401 1710 349 1765 c 1,17,18
 303 1718 303 1718 242 1662 c 0,19,20
 195 1617 195 1617 138 1579 c 1,21,-1
 17 1579 l 1,22,-1
 17 1606 l 1,23,24
 75 1671 75 1671 77 1673 c 0,25,26
 111 1710 111 1710 144 1752 c 0,27,28
 163 1773 163 1773 208 1832 c 0,29,30
 239 1878 239 1878 253 1907 c 1,31,-1
 445 1907 l 1,32,33
 459 1878 459 1878 490 1832 c 0,34,35
 535 1773 535 1773 554 1752 c 0,36,37
 589 1707 589 1707 622 1673 c 0,38,39
 679 1609 679 1609 681 1606 c 2,40,-1
 681 1579 l 1,12,-1
EndSplineSet
EndChar

StartChar: Idieresis
Encoding: 207 207 145
Width: 694
GlyphClass: 2
Flags: W
LayerCount: 2
Fore
SplineSet
612 0 m 1,0,-1
 82 0 l 1,1,-1
 82 102 l 1,2,-1
 254 143 l 1,3,-1
 254 1319 l 1,4,-1
 82 1360 l 1,5,-1
 82 1462 l 1,6,-1
 612 1462 l 1,7,-1
 612 1360 l 1,8,-1
 440 1319 l 1,9,-1
 440 143 l 1,10,-1
 612 102 l 1,11,-1
 612 0 l 1,0,-1
64 1733 m 0,12,13
 64 1787 64 1787 92 1811 c 128,-1,14
 120 1835 120 1835 160 1835 c 128,-1,15
 200 1835 200 1835 228 1810 c 0,16,17
 257 1786 257 1786 257 1733 c 0,18,19
 257 1681 257 1681 228 1655 c 0,20,21
 200 1630 200 1630 160 1630 c 128,-1,22
 120 1630 120 1630 92 1655 c 128,-1,23
 64 1680 64 1680 64 1733 c 0,12,13
439 1733 m 0,24,25
 439 1787 439 1787 467 1811 c 0,26,27
 496 1835 496 1835 535 1835 c 0,28,29
 554 1835 554 1835 572 1829 c 0,30,31
 589 1823 589 1823 602 1810 c 0,32,33
 616 1798 616 1798 623 1779 c 0,34,35
 631 1758 631 1758 631 1733 c 0,36,37
 631 1681 631 1681 602 1655 c 0,38,39
 574 1630 574 1630 535 1630 c 0,40,41
 495 1630 495 1630 467 1655 c 128,-1,42
 439 1680 439 1680 439 1733 c 0,24,25
EndSplineSet
EndChar

StartChar: Eth
Encoding: 208 208 146
Width: 1401
GlyphClass: 2
Flags: W
LayerCount: 2
Fore
SplineSet
47 805 m 1,0,-1
 199 805 l 1,1,-1
 199 1462 l 1,2,-1
 606 1462 l 2,3,4
 760 1462 760 1462 883 1416 c 0,5,6
 1007 1370 1007 1370 1094 1280 c 0,7,8
 1182 1188 1182 1188 1228 1055 c 0,9,10
 1276 922 1276 922 1276 745 c 0,11,12
 1276 561 1276 561 1228 420 c 0,13,14
 1179 280 1179 280 1089 188 c 0,15,16
 997 93 997 93 866 47 c 0,17,18
 731 0 731 0 565 0 c 2,19,-1
 199 0 l 1,20,-1
 199 643 l 1,21,-1
 47 643 l 1,22,-1
 47 805 l 1,0,-1
1079 739 m 0,23,24
 1079 884 1079 884 1046 992 c 0,25,26
 1013 1099 1013 1099 950 1167 c 0,27,28
 888 1235 888 1235 795 1270 c 0,29,30
 704 1303 704 1303 586 1303 c 2,31,-1
 385 1303 l 1,32,-1
 385 805 l 1,33,-1
 721 805 l 1,34,-1
 721 643 l 1,35,-1
 385 643 l 1,36,-1
 385 160 l 1,37,-1
 547 160 l 2,38,39
 811 160 811 160 945 306 c 128,-1,40
 1079 452 1079 452 1079 739 c 0,23,24
EndSplineSet
EndChar

StartChar: multiply
Encoding: 215 215 153
Width: 1128
GlyphClass: 2
Flags: W
LayerCount: 2
Fore
SplineSet
459 723 m 1,0,-1
 141 1042 l 1,1,-1
 246 1147 l 1,2,-1
 563 829 l 1,3,-1
 885 1147 l 1,4,-1
 989 1044 l 1,5,-1
 668 723 l 1,6,-1
 987 403 l 1,7,-1
 885 301 l 1,8,-1
 563 618 l 1,9,-1
 246 303 l 1,10,-1
 143 406 l 1,11,-1
 459 723 l 1,0,-1
EndSplineSet
EndChar

StartChar: Oslash
Encoding: 216 216 154
Width: 1520
GlyphClass: 2
Flags: W
LayerCount: 2
Fore
SplineSet
1300 1454 m 1,0,-1
 1208 1305 l 1,1,2
 1300 1206 1300 1206 1346 1061 c 0,3,4
 1393 914 1393 914 1393 733 c 0,5,6
 1393 561 1393 561 1352 425 c 0,7,8
 1314 289 1314 289 1232 187 c 0,9,10
 1153 89 1153 89 1034 34 c 0,11,12
 914 -20 914 -20 760 -20 c 0,13,14
 572 -20 572 -20 438 51 c 1,15,-1
 360 -76 l 1,16,-1
 223 2 l 1,17,-1
 313 147 l 1,18,19
 217 246 217 246 170 396 c 0,20,21
 125 544 125 544 125 735 c 0,22,23
 125 903 125 903 163 1044 c 0,24,25
 201 1183 201 1183 280 1280 c 0,26,27
 360 1379 360 1379 479 1432 c 0,28,29
 600 1485 600 1485 762 1485 c 0,30,31
 856 1485 856 1485 936 1464 c 0,32,33
 1015 1443 1015 1443 1083 1405 c 1,34,-1
 1163 1532 l 1,35,-1
 1300 1454 l 1,0,-1
322 733 m 0,36,37
 322 604 322 604 345 498 c 0,38,39
 367 394 367 394 416 315 c 1,40,-1
 995 1260 l 1,41,42
 947 1288 947 1288 890 1305 c 0,43,44
 835 1321 835 1321 762 1321 c 0,45,46
 646 1321 646 1321 565 1280 c 0,47,48
 482 1241 482 1241 428 1164 c 0,49,50
 373 1088 373 1088 348 980 c 0,51,52
 322 868 322 868 322 733 c 0,36,37
1196 733 m 0,53,54
 1196 990 1196 990 1108 1141 c 1,55,-1
 530 201 l 1,56,57
 575 174 575 174 634 158 c 0,58,59
 691 143 691 143 760 143 c 0,60,61
 877 143 877 143 956 184 c 0,62,63
 1037 222 1037 222 1092 300 c 0,64,65
 1145 377 1145 377 1171 486 c 0,66,67
 1196 595 1196 595 1196 733 c 0,53,54
EndSplineSet
EndChar

StartChar: Thorn
Encoding: 222 222 160
Width: 1180
GlyphClass: 2
Flags: W
LayerCount: 2
Fore
SplineSet
1075 782 m 0,0,1
 1075 691 1075 691 1048 607 c 0,2,3
 1020 524 1020 524 957 458 c 0,4,5
 891 392 891 392 790 356 c 0,6,7
 688 317 688 317 535 317 c 2,8,-1
 385 317 l 1,9,-1
 385 0 l 1,10,-1
 199 0 l 1,11,-1
 199 1462 l 1,12,-1
 385 1462 l 1,13,-1
 385 1210 l 1,14,-1
 561 1210 l 2,15,16
 691 1210 691 1210 792 1182 c 0,17,18
 891 1151 891 1151 952 1098 c 0,19,20
 1015 1044 1015 1044 1045 964 c 128,-1,21
 1075 884 1075 884 1075 782 c 0,0,1
385 475 m 1,22,-1
 514 475 l 2,23,24
 609 475 609 475 676 491 c 0,25,26
 745 507 745 507 792 542 c 0,27,28
 837 578 837 578 860 634 c 0,29,30
 883 692 883 692 883 772 c 0,31,32
 883 916 883 916 801 983 c 0,33,34
 718 1051 718 1051 545 1051 c 2,35,-1
 385 1051 l 1,36,-1
 385 475 l 1,22,-1
EndSplineSet
EndChar

StartChar: germandbls
Encoding: 223 223 161
Width: 1233
GlyphClass: 2
Flags: W
LayerCount: 2
Fore
SplineSet
1010 1260 m 0,0,1
 1010 1202 1010 1202 988 1158 c 0,2,3
 968 1116 968 1116 936 1078 c 0,4,5
 900 1037 900 1037 866 1011 c 0,6,7
 803 959 803 959 798 954 c 0,8,9
 769 929 769 929 744 899 c 0,10,11
 723 872 723 872 723 842 c 0,12,13
 723 821 723 821 730 804 c 0,14,15
 737 790 737 790 756 768 c 1,16,17
 784 744 784 744 811 724 c 0,18,19
 850 697 850 697 903 662 c 0,20,21
 967 619 967 619 1003 589 c 0,22,23
 1045 554 1045 554 1078 512 c 0,24,25
 1109 470 1109 470 1124 423 c 0,26,27
 1141 378 1141 378 1141 313 c 0,28,29
 1141 225 1141 225 1113 163 c 0,30,31
 1084 98 1084 98 1034 60 c 0,32,33
 985 19 985 19 914 0 c 0,34,35
 845 -20 845 -20 758 -20 c 0,36,37
 661 -20 661 -20 592 -2 c 0,38,39
 522 14 522 14 469 49 c 1,40,-1
 469 215 l 1,41,42
 491 201 491 201 528 184 c 0,43,44
 556 169 556 169 596 156 c 0,45,46
 620 148 620 148 670 136 c 0,47,48
 714 129 714 129 745 129 c 0,49,50
 802 129 802 129 842 142 c 0,51,52
 881 154 881 154 908 176 c 0,53,54
 935 201 935 201 946 231 c 0,55,56
 958 262 958 262 958 303 c 0,57,58
 958 338 958 338 950 368 c 0,59,60
 941 397 941 397 920 426 c 0,61,62
 897 456 897 456 862 483 c 0,63,64
 822 515 822 515 770 547 c 0,65,66
 703 590 703 590 664 621 c 0,67,68
 620 657 620 657 596 688 c 0,69,70
 568 724 568 724 558 757 c 0,71,72
 547 793 547 793 547 834 c 0,73,74
 547 888 547 888 568 928 c 0,75,76
 588 969 588 969 619 998 c 0,77,78
 648 1029 648 1029 686 1057 c 0,79,80
 716 1079 716 1079 753 1113 c 0,81,82
 784 1142 784 1142 804 1176 c 0,83,84
 825 1209 825 1209 825 1253 c 0,85,86
 825 1296 825 1296 808 1326 c 0,87,88
 794 1356 794 1356 762 1378 c 0,89,90
 732 1398 732 1398 690 1408 c 0,91,92
 649 1417 649 1417 598 1417 c 0,93,94
 548 1417 548 1417 505 1408 c 0,95,96
 460 1397 460 1397 428 1374 c 0,97,98
 394 1349 394 1349 376 1308 c 0,99,100
 356 1269 356 1269 356 1202 c 2,101,-1
 356 0 l 1,102,-1
 174 0 l 1,103,-1
 174 1200 l 2,104,105
 174 1307 174 1307 206 1374 c 0,106,107
 235 1443 235 1443 294 1488 c 0,108,109
 349 1530 349 1530 428 1548 c 0,110,111
 504 1567 504 1567 598 1567 c 0,112,113
 691 1567 691 1567 766 1548 c 0,114,115
 842 1529 842 1529 896 1491 c 0,116,117
 950 1454 950 1454 980 1395 c 128,-1,118
 1010 1336 1010 1336 1010 1260 c 0,0,1
EndSplineSet
EndChar

StartChar: ae
Encoding: 230 230 168
Width: 1706
GlyphClass: 2
Flags: W
LayerCount: 2
Fore
SplineSet
94 307 m 0,0,1
 94 471 94 471 210 559 c 0,2,3
 324 647 324 647 561 655 c 2,4,-1
 745 662 l 1,5,-1
 745 731 l 2,6,7
 745 798 745 798 730 843 c 0,8,9
 717 887 717 887 688 916 c 0,10,11
 661 943 661 943 620 955 c 0,12,13
 581 967 581 967 528 967 c 0,14,15
 445 967 445 967 374 943 c 0,16,17
 299 918 299 918 236 885 c 1,18,-1
 172 1022 l 1,19,20
 241 1060 241 1060 337 1090 c 0,21,22
 427 1118 427 1118 528 1118 c 0,23,24
 660 1118 660 1118 742 1076 c 0,25,26
 825 1032 825 1032 868 940 c 1,27,28
 917 1023 917 1023 1002 1072 c 0,29,30
 1086 1118 1086 1118 1188 1118 c 0,31,32
 1286 1118 1286 1118 1362 1082 c 0,33,34
 1440 1047 1440 1047 1493 982 c 0,35,36
 1545 922 1545 922 1576 828 c 0,37,38
 1604 733 1604 733 1604 627 c 2,39,-1
 1604 514 l 1,40,-1
 932 514 l 1,41,42
 936 323 936 323 1010 230 c 0,43,44
 1085 139 1085 139 1231 139 c 0,45,46
 1275 139 1275 139 1322 144 c 0,47,48
 1361 148 1361 148 1404 158 c 0,49,50
 1441 168 1441 168 1480 182 c 0,51,52
 1512 195 1512 195 1554 215 c 1,53,-1
 1554 53 l 1,54,55
 1518 35 1518 35 1478 20 c 0,56,57
 1432 4 1432 4 1400 -3 c 0,58,59
 1365 -11 1365 -11 1318 -16 c 0,60,61
 1281 -20 1281 -20 1227 -20 c 0,62,63
 1088 -20 1088 -20 988 37 c 0,64,65
 886 95 886 95 825 209 c 1,66,67
 792 157 792 157 753 112 c 0,68,69
 717 72 717 72 668 40 c 0,70,71
 618 10 618 10 562 -4 c 0,72,73
 505 -20 505 -20 430 -20 c 128,-1,74
 355 -20 355 -20 298 0 c 0,75,76
 236 18 236 18 191 60 c 0,77,78
 145 100 145 100 120 162 c 0,79,80
 94 223 94 223 94 307 c 0,0,1
283 305 m 0,81,82
 283 213 283 213 332 170 c 0,83,84
 379 127 379 127 459 127 c 0,85,86
 521 127 521 127 572 146 c 0,87,88
 625 166 625 166 662 204 c 0,89,90
 699 241 699 241 722 300 c 0,91,92
 743 360 743 360 743 438 c 2,93,-1
 743 537 l 1,94,-1
 600 530 l 2,95,96
 506 525 506 525 449 510 c 0,97,98
 389 494 389 494 352 466 c 0,99,100
 315 436 315 436 299 396 c 0,101,102
 283 358 283 358 283 305 c 0,81,82
1184 967 m 0,103,104
 1074 967 1074 967 1010 889 c 0,105,106
 946 810 946 810 936 662 c 1,107,-1
 1407 662 l 1,108,109
 1407 733 1407 733 1394 786 c 0,110,111
 1380 843 1380 843 1354 883 c 0,112,113
 1326 922 1326 922 1284 945 c 0,114,115
 1243 967 1243 967 1184 967 c 0,103,104
EndSplineSet
EndChar

StartChar: igrave
Encoding: 236 236 174
Width: 530
GlyphClass: 2
Flags: W
LayerCount: 2
Fore
SplineSet
356 0 m 1,0,-1
 174 0 l 1,1,-1
 174 1098 l 1,2,-1
 356 1098 l 1,3,-1
 356 0 l 1,0,-1
359 1241 m 1,4,-1
 239 1241 l 1,5,6
 199 1274 199 1274 163 1310 c 0,7,8
 117 1358 117 1358 84 1396 c 0,9,10
 46 1438 46 1438 14 1480 c 0,11,12
 -15 1517 -15 1517 -34 1548 c 1,13,-1
 -34 1569 l 1,14,-1
 185 1569 l 1,15,16
 196 1546 196 1546 222 1494 c 0,17,18
 230 1481 230 1481 245 1454 c 128,-1,19
 260 1427 260 1427 267 1414 c 0,20,21
 285 1380 285 1380 314 1335 c 128,-1,22
 343 1290 343 1290 359 1268 c 1,23,-1
 359 1241 l 1,4,-1
EndSplineSet
EndChar

StartChar: icircumflex
Encoding: 238 238 176
Width: 530
GlyphClass: 2
Flags: W
LayerCount: 2
Fore
SplineSet
356 0 m 1,0,-1
 174 0 l 1,1,-1
 174 1098 l 1,2,-1
 356 1098 l 1,3,-1
 356 0 l 1,0,-1
597 1241 m 1,4,-1
 476 1241 l 1,5,6
 421 1278 421 1278 371 1324 c 0,7,8
 317 1372 317 1372 265 1427 c 1,9,10
 219 1380 219 1380 158 1324 c 0,11,12
 111 1279 111 1279 54 1241 c 1,13,-1
 -67 1241 l 1,14,-1
 -67 1268 l 1,15,16
 -9 1333 -9 1333 -7 1335 c 0,17,18
 27 1372 27 1372 60 1414 c 0,19,20
 79 1435 79 1435 124 1494 c 0,21,22
 155 1540 155 1540 169 1569 c 1,23,-1
 361 1569 l 1,24,25
 375 1540 375 1540 406 1494 c 0,26,27
 451 1435 451 1435 470 1414 c 0,28,29
 505 1369 505 1369 538 1335 c 0,30,31
 595 1271 595 1271 597 1268 c 2,32,-1
 597 1241 l 1,4,-1
EndSplineSet
EndChar

StartChar: idieresis
Encoding: 239 239 177
Width: 530
GlyphClass: 2
Flags: W
LayerCount: 2
Fore
SplineSet
356 0 m 1,0,-1
 174 0 l 1,1,-1
 174 1098 l 1,2,-1
 356 1098 l 1,3,-1
 356 0 l 1,0,-1
-18 1395 m 0,4,5
 -18 1449 -18 1449 10 1473 c 0,6,7
 39 1497 39 1497 78 1497 c 0,8,9
 118 1497 118 1497 146 1472 c 0,10,11
 175 1448 175 1448 175 1395 c 0,12,13
 175 1343 175 1343 146 1317 c 0,14,15
 118 1292 118 1292 78 1292 c 128,-1,16
 38 1292 38 1292 10 1317 c 128,-1,17
 -18 1342 -18 1342 -18 1395 c 0,4,5
357 1395 m 0,18,19
 357 1449 357 1449 385 1473 c 0,20,21
 414 1497 414 1497 453 1497 c 0,22,23
 472 1497 472 1497 490 1491 c 0,24,25
 507 1485 507 1485 520 1472 c 0,26,27
 534 1460 534 1460 541 1441 c 0,28,29
 549 1420 549 1420 549 1395 c 0,30,31
 549 1343 549 1343 520 1317 c 0,32,33
 492 1292 492 1292 453 1292 c 0,34,35
 413 1292 413 1292 385 1317 c 128,-1,36
 357 1342 357 1342 357 1395 c 0,18,19
EndSplineSet
EndChar

StartChar: eth
Encoding: 240 240 178
Width: 1182
GlyphClass: 2
Flags: W
LayerCount: 2
Fore
SplineSet
1069 573 m 0,0,1
 1069 430 1069 430 1036 321 c 0,2,3
 1002 212 1002 212 940 135 c 0,4,5
 878 60 878 60 788 20 c 0,6,7
 701 -20 701 -20 588 -20 c 0,8,9
 484 -20 484 -20 396 13 c 256,10,11
 308 46 308 46 246 110 c 0,12,13
 182 172 182 172 146 266 c 0,14,15
 111 359 111 359 111 477 c 0,16,17
 111 593 111 593 142 688 c 0,18,19
 176 781 176 781 233 843 c 0,20,21
 292 906 292 906 376 938 c 0,22,23
 460 971 460 971 565 971 c 0,24,25
 666 971 666 971 744 942 c 0,26,27
 820 912 820 912 864 852 c 1,28,-1
 872 856 l 1,29,30
 840 975 840 975 781 1070 c 0,31,32
 721 1166 721 1166 631 1247 c 1,33,-1
 375 1094 l 1,34,-1
 301 1208 l 1,35,-1
 518 1339 l 1,36,37
 480 1365 480 1365 436 1394 c 0,38,39
 392 1422 392 1422 346 1448 c 1,40,-1
 416 1571 l 1,41,42
 475 1542 475 1542 542 1503 c 0,43,44
 600 1469 600 1469 662 1423 c 1,45,-1
 889 1561 l 1,46,-1
 963 1448 l 1,47,-1
 768 1331 l 1,48,49
 836 1266 836 1266 890 1188 c 0,50,51
 944 1114 944 1114 986 1016 c 0,52,53
 1024 925 1024 925 1047 812 c 0,54,55
 1069 705 1069 705 1069 573 c 0,0,1
881 526 m 0,56,57
 881 580 881 580 864 636 c 0,58,59
 848 688 848 688 812 730 c 0,60,61
 778 770 778 770 722 796 c 0,62,63
 668 821 668 821 592 821 c 0,64,65
 517 821 517 821 460 798 c 0,66,67
 406 776 406 776 371 731 c 0,68,69
 335 685 335 685 320 622 c 0,70,71
 303 560 303 560 303 471 c 0,72,73
 303 392 303 392 320 332 c 0,74,75
 335 272 335 272 372 225 c 0,76,77
 406 180 406 180 462 156 c 0,78,79
 515 131 515 131 592 131 c 0,80,81
 745 131 745 131 814 230 c 0,82,83
 881 332 881 332 881 526 c 0,56,57
EndSplineSet
EndChar

StartChar: divide
Encoding: 247 247 185
Width: 1128
GlyphClass: 2
Flags: W
LayerCount: 2
Fore
SplineSet
102 647 m 1,0,-1
 102 797 l 1,1,-1
 1026 797 l 1,2,-1
 1026 647 l 1,3,-1
 102 647 l 1,0,-1
449 373 m 0,4,5
 449 408 449 408 458 432 c 0,6,7
 467 455 467 455 482 470 c 0,8,9
 498 484 498 484 518 492 c 0,10,11
 539 498 539 498 563 498 c 0,12,13
 586 498 586 498 607 492 c 0,14,15
 628 484 628 484 644 470 c 0,16,17
 659 456 659 456 669 432 c 0,18,19
 678 408 678 408 678 373 c 0,20,21
 678 340 678 340 669 316 c 0,22,23
 659 292 659 292 644 278 c 0,24,25
 629 263 629 263 607 255 c 0,26,27
 587 248 587 248 563 248 c 0,28,29
 538 248 538 248 518 255 c 0,30,31
 497 263 497 263 482 278 c 128,-1,32
 467 293 467 293 458 316 c 0,33,34
 449 340 449 340 449 373 c 0,4,5
449 1071 m 0,35,36
 449 1106 449 1106 458 1130 c 0,37,38
 467 1153 467 1153 482 1168 c 0,39,40
 498 1182 498 1182 518 1190 c 0,41,42
 539 1196 539 1196 563 1196 c 0,43,44
 586 1196 586 1196 607 1190 c 0,45,46
 628 1182 628 1182 644 1168 c 0,47,48
 659 1154 659 1154 669 1130 c 0,49,50
 678 1106 678 1106 678 1071 c 0,51,52
 678 1038 678 1038 669 1014 c 0,53,54
 659 990 659 990 644 976 c 0,55,56
 629 961 629 961 607 953 c 0,57,58
 587 946 587 946 563 946 c 0,59,60
 538 946 538 946 518 953 c 0,61,62
 497 961 497 961 482 976 c 128,-1,63
 467 991 467 991 458 1014 c 0,64,65
 449 1038 449 1038 449 1071 c 0,35,36
EndSplineSet
EndChar

StartChar: oslash
Encoding: 248 248 186
Width: 1182
GlyphClass: 2
Flags: W
LayerCount: 2
Fore
SplineSet
1071 551 m 0,0,1
 1071 413 1071 413 1038 308 c 0,2,3
 1004 202 1004 202 942 128 c 0,4,5
 879 56 879 56 790 18 c 0,6,7
 700 -20 700 -20 590 -20 c 0,8,9
 465 -20 465 -20 367 33 c 1,10,-1
 299 -76 l 1,11,-1
 168 -2 l 1,12,-1
 248 129 l 1,13,14
 184 202 184 202 150 308 c 0,15,16
 115 415 115 415 115 551 c 128,-1,17
 115 687 115 687 148 792 c 0,18,19
 182 898 182 898 244 970 c 0,20,21
 306 1044 306 1044 396 1080 c 0,22,23
 482 1118 482 1118 596 1118 c 0,24,25
 657 1118 657 1118 716 1104 c 0,26,27
 773 1089 773 1089 821 1061 c 1,28,-1
 889 1169 l 1,29,-1
 1020 1096 l 1,30,-1
 940 967 l 1,31,32
 1004 891 1004 891 1036 790 c 0,33,34
 1071 688 1071 688 1071 551 c 0,0,1
303 551 m 0,35,36
 303 467 303 467 312 402 c 0,37,38
 323 332 323 332 344 285 c 1,39,-1
 741 932 l 1,40,41
 711 950 711 950 674 958 c 0,42,43
 638 967 638 967 592 967 c 0,44,45
 440 967 440 967 370 864 c 1,46,47
 303 757 303 757 303 551 c 0,35,36
883 551 m 0,48,49
 883 710 883 710 844 809 c 1,50,-1
 446 164 l 1,51,52
 481 146 481 146 513 139 c 0,53,54
 551 131 551 131 594 131 c 0,55,56
 747 131 747 131 816 236 c 0,57,58
 883 344 883 344 883 551 c 0,48,49
EndSplineSet
EndChar

StartChar: thorn
Encoding: 254 254 192
Width: 1200
GlyphClass: 2
Flags: W
LayerCount: 2
Fore
SplineSet
356 950 m 1,0,1
 376 981 376 981 408 1016 c 0,2,3
 438 1047 438 1047 476 1068 c 0,4,5
 513 1092 513 1092 562 1104 c 0,6,7
 607 1118 607 1118 670 1118 c 0,8,9
 764 1118 764 1118 841 1082 c 256,10,11
 918 1046 918 1046 972 974 c 0,12,13
 1027 904 1027 904 1057 797 c 256,14,15
 1087 690 1087 690 1087 551 c 0,16,17
 1087 409 1087 409 1057 304 c 0,18,19
 1027 197 1027 197 972 125 c 0,20,21
 919 54 919 54 841 16 c 0,22,23
 764 -20 764 -20 670 -20 c 0,24,25
 609 -20 609 -20 563 -7 c 0,26,27
 512 7 512 7 476 28 c 0,28,29
 439 49 439 49 408 78 c 0,30,31
 378 107 378 107 356 139 c 1,32,-1
 344 139 l 1,33,34
 346 116 346 116 350 74 c 0,35,36
 350 66 350 66 351.5 48 c 128,-1,37
 353 30 353 30 354 20 c 0,38,39
 356 -16 356 -16 356 -23 c 2,40,-1
 356 -492 l 1,41,-1
 174 -492 l 1,42,-1
 174 1556 l 1,43,-1
 356 1556 l 1,44,-1
 356 1098 l 1,45,-1
 348 950 l 1,46,-1
 356 950 l 1,0,1
635 967 m 0,47,48
 561 967 561 967 506 944 c 0,49,50
 454 921 454 921 422 874 c 0,51,52
 389 828 389 828 374 757 c 0,53,54
 358 686 358 686 356 592 c 2,55,-1
 356 551 l 2,56,57
 356 445 356 445 370 372 c 0,58,59
 382 295 382 295 416 240 c 0,60,61
 447 187 447 187 502 158 c 0,62,63
 556 131 556 131 637 131 c 0,64,65
 772 131 772 131 836 240 c 0,66,67
 899 349 899 349 899 553 c 0,68,69
 899 760 899 760 836 864 c 0,70,71
 772 967 772 967 635 967 c 0,47,48
EndSplineSet
EndChar

StartChar: dcaron
Encoding: 271 271 209
Width: 1200
GlyphClass: 2
Flags: W
LayerCount: 2
Fore
SplineSet
852 147 m 1,0,-1
 844 147 l 1,1,2
 822 114 822 114 792 82 c 0,3,4
 763 52 763 52 724 29 c 0,5,6
 687 7 687 7 638 -7 c 0,7,8
 592 -20 592 -20 530 -20 c 0,9,10
 436 -20 436 -20 360 16 c 256,11,12
 284 52 284 52 228 124 c 0,13,14
 173 194 173 194 143 301 c 256,15,16
 113 408 113 408 113 547 c 0,17,18
 113 689 113 689 143 794 c 0,19,20
 173 901 173 901 228 973 c 0,21,22
 283 1044 283 1044 360 1082 c 0,23,24
 436 1118 436 1118 530 1118 c 0,25,26
 591 1118 591 1118 637 1105 c 0,27,28
 688 1091 688 1091 724 1070 c 0,29,30
 763 1047 763 1047 792 1019 c 0,31,32
 818 994 818 994 844 958 c 1,33,-1
 856 958 l 1,34,35
 854 981 854 981 850 1023 c 0,36,37
 850 1031 850 1031 848.5 1049 c 128,-1,38
 847 1067 847 1067 846 1076 c 0,39,40
 844 1114 844 1114 844 1120 c 2,41,-1
 844 1556 l 1,42,-1
 1026 1556 l 1,43,-1
 1026 0 l 1,44,-1
 879 0 l 1,45,-1
 852 147 l 1,0,-1
565 131 m 0,46,47
 639 131 639 131 694 154 c 0,48,49
 746 177 746 177 778 224 c 0,50,51
 811 271 811 271 826 342 c 0,52,53
 842 411 842 411 844 506 c 2,54,-1
 844 547 l 2,55,56
 844 653 844 653 830 726 c 0,57,58
 818 803 818 803 784 858 c 0,59,60
 753 911 753 911 698 940 c 0,61,62
 644 967 644 967 563 967 c 0,63,64
 428 967 428 967 364 858 c 0,65,66
 301 748 301 748 301 545 c 0,67,68
 301 336 301 336 364 234 c 0,69,70
 428 131 428 131 565 131 c 0,46,47
1120 1255 m 1,71,72
 1129 1285 1129 1285 1138 1324 c 2,73,-1
 1156 1402 l 2,74,75
 1158 1414 1158 1414 1160.5 1427.5 c 128,-1,76
 1163 1441 1163 1441 1166 1457.5 c 128,-1,77
 1169 1474 1169 1474 1171 1483 c 0,78,79
 1175 1504 1175 1504 1182 1556 c 1,80,-1
 1362 1556 l 1,81,-1
 1362 1536 l 1,82,83
 1356 1509 1356 1509 1340 1472 c 0,84,85
 1326 1435 1326 1435 1304 1390 c 0,86,87
 1294 1368 1294 1368 1261 1304 c 0,88,89
 1238 1260 1238 1260 1216 1229 c 1,90,-1
 1120 1229 l 1,91,-1
 1120 1255 l 1,71,72
EndSplineSet
EndChar

StartChar: Dcroat
Encoding: 272 272 210
Width: 1401
GlyphClass: 2
Flags: W
LayerCount: 2
Fore
SplineSet
47 805 m 1,0,-1
 199 805 l 1,1,-1
 199 1462 l 1,2,-1
 606 1462 l 2,3,4
 760 1462 760 1462 883 1416 c 0,5,6
 1007 1370 1007 1370 1094 1280 c 0,7,8
 1182 1188 1182 1188 1228 1055 c 0,9,10
 1276 922 1276 922 1276 745 c 0,11,12
 1276 561 1276 561 1228 420 c 0,13,14
 1179 280 1179 280 1089 188 c 0,15,16
 997 93 997 93 866 47 c 0,17,18
 731 0 731 0 565 0 c 2,19,-1
 199 0 l 1,20,-1
 199 643 l 1,21,-1
 47 643 l 1,22,-1
 47 805 l 1,0,-1
1079 739 m 0,23,24
 1079 884 1079 884 1046 992 c 0,25,26
 1013 1099 1013 1099 950 1167 c 0,27,28
 888 1235 888 1235 795 1270 c 0,29,30
 704 1303 704 1303 586 1303 c 2,31,-1
 385 1303 l 1,32,-1
 385 805 l 1,33,-1
 721 805 l 1,34,-1
 721 643 l 1,35,-1
 385 643 l 1,36,-1
 385 160 l 1,37,-1
 547 160 l 2,38,39
 811 160 811 160 945 306 c 128,-1,40
 1079 452 1079 452 1079 739 c 0,23,24
EndSplineSet
EndChar

StartChar: dcroat
Encoding: 273 273 211
Width: 1200
GlyphClass: 2
Flags: W
LayerCount: 2
Fore
SplineSet
852 147 m 1,0,-1
 844 147 l 1,1,2
 822 114 822 114 792 82 c 0,3,4
 763 52 763 52 724 29 c 0,5,6
 687 7 687 7 638 -7 c 0,7,8
 592 -20 592 -20 530 -20 c 0,9,10
 438 -20 438 -20 360 15 c 0,11,12
 284 49 284 49 228 119 c 0,13,14
 173 187 173 187 143 290 c 0,15,16
 113 392 113 392 113 526 c 128,-1,17
 113 660 113 660 143 764 c 128,-1,18
 173 868 173 868 228 936 c 0,19,20
 283 1006 283 1006 360 1042 c 0,21,22
 438 1077 438 1077 530 1077 c 0,23,24
 591 1077 591 1077 637 1064 c 0,25,26
 687 1052 687 1052 724 1030 c 0,27,28
 763 1007 763 1007 792 979 c 0,29,30
 818 954 818 954 844 918 c 1,31,-1
 856 918 l 1,32,33
 854 940 854 940 850 982 c 0,34,35
 850 990 850 990 848.5 1008 c 128,-1,36
 847 1026 847 1026 846 1036 c 0,37,38
 844 1072 844 1072 844 1079 c 2,39,-1
 844 1237 l 1,40,-1
 465 1237 l 1,41,-1
 465 1374 l 1,42,-1
 844 1374 l 1,43,-1
 844 1556 l 1,44,-1
 1026 1556 l 1,45,-1
 1026 1374 l 1,46,-1
 1182 1374 l 1,47,-1
 1182 1237 l 1,48,-1
 1026 1237 l 1,49,-1
 1026 0 l 1,50,-1
 879 0 l 1,51,-1
 852 147 l 1,0,-1
565 131 m 0,52,53
 641 131 641 131 694 153 c 0,54,55
 748 177 748 177 778 220 c 0,56,57
 811 263 811 263 826 330 c 0,58,59
 843 398 843 398 844 487 c 2,60,-1
 844 526 l 2,61,62
 844 628 844 628 830 698 c 0,63,64
 818 770 818 770 784 823 c 0,65,66
 752 874 752 874 698 900 c 0,67,68
 643 926 643 926 563 926 c 0,69,70
 428 926 428 926 364 822 c 0,71,72
 301 720 301 720 301 524 c 0,73,74
 301 327 301 327 364 228 c 0,75,76
 429 131 429 131 565 131 c 0,52,53
EndSplineSet
EndChar

StartChar: Gcommaaccent
Encoding: 290 290 228
Width: 1061
GlyphClass: 2
Flags: W
LayerCount: 2
Fore
SplineSet
1020 1098 m 1,0,-1
 1020 985 l 1,1,-1
 823 958 l 1,2,3
 850 926 850 926 870 868 c 0,4,5
 889 815 889 815 889 745 c 0,6,7
 889 671 889 671 866 604 c 0,8,9
 841 539 841 539 794 493 c 0,10,11
 746 445 746 445 677 420 c 0,12,13
 606 393 606 393 514 393 c 0,14,15
 485 393 485 393 470 394 c 0,16,17
 448 394 448 394 434 397 c 1,18,19
 412 383 412 383 400 374 c 0,20,21
 383 361 383 361 370 346 c 0,22,23
 355 326 355 326 348 310 c 0,24,25
 340 289 340 289 340 266 c 0,26,27
 340 240 340 240 352 222 c 0,28,29
 365 206 365 206 384 197 c 0,30,31
 405 188 405 188 433 185 c 128,-1,32
 461 182 461 182 492 182 c 2,33,-1
 668 182 l 2,34,35
 760 182 760 182 825 158 c 0,36,37
 887 136 887 136 930 95 c 0,38,39
 971 52 971 52 988 0 c 0,40,41
 1006 -54 1006 -54 1006 -115 c 0,42,43
 1006 -201 1006 -201 974 -273 c 0,44,45
 941 -343 941 -343 874 -392 c 0,46,47
 805 -441 805 -441 704 -466 c 0,48,49
 600 -492 600 -492 463 -492 c 0,50,51
 356 -492 356 -492 276 -471 c 0,52,53
 194 -449 194 -449 143 -410 c 0,54,55
 89 -368 89 -368 64 -314 c 0,56,57
 37 -257 37 -257 37 -186 c 0,58,59
 37 -129 37 -129 56 -80 c 0,60,61
 78 -33 78 -33 109 -2 c 0,62,63
 143 32 143 32 186 52 c 0,64,65
 229 73 229 73 276 84 c 1,66,67
 234 104 234 104 207 144 c 256,68,69
 180 184 180 184 180 238 c 0,70,71
 180 298 180 298 212 344 c 0,72,73
 244 388 244 388 313 430 c 1,74,75
 268 448 268 448 234 480 c 0,76,77
 200 510 200 510 174 552 c 0,78,79
 153 587 153 587 136 640 c 0,80,81
 123 692 123 692 123 739 c 0,82,83
 123 829 123 829 148 898 c 0,84,85
 174 968 174 968 222 1017 c 0,86,87
 272 1067 272 1067 344 1092 c 0,88,89
 419 1118 419 1118 514 1118 c 0,90,91
 551 1118 551 1118 590 1112 c 0,92,93
 627 1108 627 1108 657 1098 c 1,94,-1
 1020 1098 l 1,0,-1
209 -180 m 0,95,96
 209 -219 209 -219 222 -249 c 0,97,98
 236 -282 236 -282 264 -304 c 0,99,100
 297 -329 297 -329 342 -340 c 0,101,102
 388 -354 388 -354 463 -354 c 0,103,104
 650 -354 650 -354 742 -296 c 0,105,106
 834 -239 834 -239 834 -131 c 0,107,108
 834 -84 834 -84 822 -56 c 256,109,110
 810 -28 810 -28 782 -10 c 0,111,112
 753 6 753 6 710 12 c 0,113,114
 665 18 665 18 600 18 c 2,115,-1
 424 18 l 2,116,117
 391 18 391 18 351 10 c 128,-1,118
 311 2 311 2 282 -20 c 0,119,120
 250 -42 250 -42 230 -80 c 0,121,122
 209 -119 209 -119 209 -180 c 0,95,96
301 745 m 0,123,124
 301 630 301 630 355 574 c 256,125,126
 409 518 409 518 508 518 c 0,127,128
 608 518 608 518 660 574 c 0,129,130
 711 628 711 628 711 748 c 0,131,132
 711 872 711 872 658 929 c 0,133,134
 607 987 607 987 506 987 c 0,135,136
 406 987 406 987 354 927 c 0,137,138
 301 866 301 866 301 745 c 0,123,124
402 1395 m 0,139,140
 402 1455 402 1455 432 1482 c 0,141,142
 463 1509 463 1509 508 1509 c 0,143,144
 530 1509 530 1509 550 1502 c 0,145,146
 569 1496 569 1496 584 1482 c 0,147,148
 599 1467 599 1467 606 1446 c 0,149,150
 615 1425 615 1425 615 1395 c 0,151,152
 615 1339 615 1339 584 1308 c 1,153,154
 550 1280 550 1280 508 1280 c 0,155,156
 463 1280 463 1280 432 1308 c 0,157,158
 402 1336 402 1336 402 1395 c 0,139,140
646 -426 m 1,159,160
 656 -400 656 -400 670 -363 c 0,161,162
 680 -334 680 -334 695 -283 c 0,163,164
 706 -243 706 -243 716 -200 c 0,165,166
 724 -167 724 -167 730 -125 c 1,167,-1
 908 -125 l 1,168,-1
 908 -145 l 1,169,170
 901 -173 901 -173 886 -208 c 0,171,172
 868 -254 868 -254 849 -290 c 0,173,174
 828 -331 828 -331 800 -377 c 0,175,176
 775 -417 775 -417 744 -453 c 1,177,-1
 646 -453 l 1,178,-1
 646 -426 l 1,159,160
EndSplineSet
EndChar

StartChar: gcommaaccent
Encoding: 291 291 229
Width: 1061
GlyphClass: 2
Flags: W
LayerCount: 2
Fore
SplineSet
1020 1098 m 1,0,-1
 1020 985 l 1,1,-1
 823 958 l 1,2,3
 850 926 850 926 870 868 c 0,4,5
 889 815 889 815 889 745 c 0,6,7
 889 671 889 671 866 604 c 0,8,9
 841 539 841 539 794 493 c 0,10,11
 746 445 746 445 677 420 c 0,12,13
 606 393 606 393 514 393 c 0,14,15
 485 393 485 393 470 394 c 0,16,17
 448 394 448 394 434 397 c 1,18,19
 412 383 412 383 400 374 c 0,20,21
 383 361 383 361 370 346 c 0,22,23
 355 326 355 326 348 310 c 0,24,25
 340 289 340 289 340 266 c 0,26,27
 340 240 340 240 352 222 c 0,28,29
 365 206 365 206 384 197 c 0,30,31
 405 188 405 188 433 185 c 128,-1,32
 461 182 461 182 492 182 c 2,33,-1
 668 182 l 2,34,35
 760 182 760 182 825 158 c 0,36,37
 887 136 887 136 930 95 c 0,38,39
 971 52 971 52 988 0 c 0,40,41
 1006 -54 1006 -54 1006 -115 c 0,42,43
 1006 -201 1006 -201 974 -273 c 0,44,45
 941 -343 941 -343 874 -392 c 0,46,47
 805 -441 805 -441 704 -466 c 0,48,49
 600 -492 600 -492 463 -492 c 0,50,51
 356 -492 356 -492 276 -471 c 0,52,53
 194 -449 194 -449 143 -410 c 0,54,55
 89 -368 89 -368 64 -314 c 0,56,57
 37 -257 37 -257 37 -186 c 0,58,59
 37 -129 37 -129 56 -80 c 0,60,61
 78 -33 78 -33 109 -2 c 0,62,63
 143 32 143 32 186 52 c 0,64,65
 229 73 229 73 276 84 c 1,66,67
 234 104 234 104 207 144 c 256,68,69
 180 184 180 184 180 238 c 0,70,71
 180 298 180 298 212 344 c 0,72,73
 244 388 244 388 313 430 c 1,74,75
 268 448 268 448 234 480 c 0,76,77
 200 510 200 510 174 552 c 0,78,79
 153 587 153 587 136 640 c 0,80,81
 123 692 123 692 123 739 c 0,82,83
 123 829 123 829 148 898 c 0,84,85
 174 968 174 968 222 1017 c 0,86,87
 272 1067 272 1067 344 1092 c 0,88,89
 419 1118 419 1118 514 1118 c 0,90,91
 551 1118 551 1118 590 1112 c 0,92,93
 627 1108 627 1108 657 1098 c 1,94,-1
 1020 1098 l 1,0,-1
209 -180 m 0,95,96
 209 -219 209 -219 222 -249 c 0,97,98
 236 -282 236 -282 264 -304 c 0,99,100
 297 -329 297 -329 342 -340 c 0,101,102
 388 -354 388 -354 463 -354 c 0,103,104
 650 -354 650 -354 742 -296 c 0,105,106
 834 -239 834 -239 834 -131 c 0,107,108
 834 -84 834 -84 822 -56 c 256,109,110
 810 -28 810 -28 782 -10 c 0,111,112
 753 6 753 6 710 12 c 0,113,114
 665 18 665 18 600 18 c 2,115,-1
 424 18 l 2,116,117
 391 18 391 18 351 10 c 128,-1,118
 311 2 311 2 282 -20 c 0,119,120
 250 -42 250 -42 230 -80 c 0,121,122
 209 -119 209 -119 209 -180 c 0,95,96
301 745 m 0,123,124
 301 630 301 630 355 574 c 256,125,126
 409 518 409 518 508 518 c 0,127,128
 608 518 608 518 660 574 c 0,129,130
 711 628 711 628 711 748 c 0,131,132
 711 872 711 872 658 929 c 0,133,134
 607 987 607 987 506 987 c 0,135,136
 406 987 406 987 354 927 c 0,137,138
 301 866 301 866 301 745 c 0,123,124
688 1542 m 1,139,140
 678 1521 678 1521 663 1479 c 0,141,142
 653 1450 653 1450 638 1399 c 0,143,144
 626 1359 626 1359 617 1316 c 0,145,146
 609 1280 609 1280 604 1241 c 1,147,-1
 426 1241 l 1,148,-1
 426 1262 l 1,149,150
 430 1283 430 1283 446 1325 c 0,151,152
 457 1352 457 1352 484 1407 c 0,153,154
 511 1456 511 1456 534 1493 c 0,155,156
 564 1539 564 1539 590 1569 c 1,157,-1
 688 1569 l 1,158,-1
 688 1542 l 1,139,140
EndSplineSet
EndChar

StartChar: Hbar
Encoding: 294 294 232
Width: 1436
GlyphClass: 2
Flags: W
LayerCount: 2
Fore
SplineSet
199 1219 m 1,0,-1
 199 1462 l 1,1,-1
 385 1462 l 1,2,-1
 385 1219 l 1,3,-1
 1051 1219 l 1,4,-1
 1051 1462 l 1,5,-1
 1237 1462 l 1,6,-1
 1237 1219 l 1,7,-1
 1436 1219 l 1,8,-1
 1436 1069 l 1,9,-1
 1237 1069 l 1,10,-1
 1237 0 l 1,11,-1
 1051 0 l 1,12,-1
 1051 682 l 1,13,-1
 385 682 l 1,14,-1
 385 0 l 1,15,-1
 199 0 l 1,16,-1
 199 1069 l 1,17,-1
 0 1069 l 1,18,-1
 0 1219 l 1,19,-1
 199 1219 l 1,0,-1
1051 846 m 1,20,-1
 1051 1069 l 1,21,-1
 385 1069 l 1,22,-1
 385 846 l 1,23,-1
 1051 846 l 1,20,-1
EndSplineSet
EndChar

StartChar: hbar
Encoding: 295 295 233
Width: 1206
GlyphClass: 2
Flags: W
LayerCount: 2
Fore
SplineSet
860 0 m 1,0,-1
 860 666 l 2,1,2
 860 795 860 795 808 861 c 0,3,4
 754 926 754 926 643 926 c 0,5,6
 564 926 564 926 507 900 c 0,7,8
 453 875 453 875 418 823 c 0,9,10
 385 772 385 772 370 698 c 0,11,12
 356 622 356 622 356 528 c 2,13,-1
 356 0 l 1,14,-1
 174 0 l 1,15,-1
 174 1237 l 1,16,-1
 18 1237 l 1,17,-1
 18 1374 l 1,18,-1
 174 1374 l 1,19,-1
 174 1556 l 1,20,-1
 356 1556 l 1,21,-1
 356 1374 l 1,22,-1
 735 1374 l 1,23,-1
 735 1237 l 1,24,-1
 356 1237 l 1,25,-1
 356 1053 l 1,26,-1
 348 909 l 1,27,-1
 358 909 l 1,28,29
 383 952 383 952 418 984 c 0,30,31
 452 1015 452 1015 493 1036 c 0,32,33
 532 1056 532 1056 580 1067 c 0,34,35
 624 1077 624 1077 674 1077 c 0,36,37
 857 1077 857 1077 950 982 c 0,38,39
 1042 885 1042 885 1042 676 c 2,40,-1
 1042 0 l 1,41,-1
 860 0 l 1,0,-1
EndSplineSet
EndChar

StartChar: Itilde
Encoding: 296 296 234
Width: 694
GlyphClass: 2
Flags: W
LayerCount: 2
Fore
SplineSet
612 0 m 1,0,-1
 82 0 l 1,1,-1
 82 102 l 1,2,-1
 254 143 l 1,3,-1
 254 1319 l 1,4,-1
 82 1360 l 1,5,-1
 82 1462 l 1,6,-1
 612 1462 l 1,7,-1
 612 1360 l 1,8,-1
 440 1319 l 1,9,-1
 440 143 l 1,10,-1
 612 102 l 1,11,-1
 612 0 l 1,0,-1
497 1581 m 0,12,13
 458 1581 458 1581 418 1598 c 0,14,15
 374 1617 374 1617 340 1638 c 0,16,17
 302 1659 302 1659 267 1676 c 0,18,19
 233 1694 233 1694 200 1694 c 0,20,21
 155 1694 155 1694 131 1668 c 0,22,23
 106 1640 106 1640 93 1579 c 1,24,-1
 -11 1579 l 1,25,26
 -7 1632 -7 1632 10 1688 c 0,27,28
 28 1737 28 1737 54 1772 c 0,29,30
 81 1807 81 1807 117 1824 c 0,31,32
 154 1843 154 1843 200 1843 c 0,33,34
 242 1843 242 1843 282 1826 c 128,-1,35
 322 1809 322 1809 361 1787 c 0,36,37
 403 1764 403 1764 434 1748 c 0,38,39
 468 1731 468 1731 497 1731 c 0,40,41
 542 1731 542 1731 565 1757 c 128,-1,42
 588 1783 588 1783 603 1845 c 1,43,-1
 708 1845 l 1,44,45
 703 1784 703 1784 686 1736 c 0,46,47
 671 1690 671 1690 644 1654 c 0,48,49
 619 1620 619 1620 580 1600 c 0,50,51
 543 1581 543 1581 497 1581 c 0,12,13
EndSplineSet
EndChar

StartChar: itilde
Encoding: 297 297 235
Width: 530
GlyphClass: 2
Flags: W
LayerCount: 2
Fore
SplineSet
356 0 m 1,0,-1
 174 0 l 1,1,-1
 174 1098 l 1,2,-1
 356 1098 l 1,3,-1
 356 0 l 1,0,-1
415 1243 m 0,4,5
 376 1243 376 1243 336 1260 c 0,6,7
 292 1279 292 1279 258 1300 c 0,8,9
 220 1321 220 1321 185 1338 c 0,10,11
 150 1356 150 1356 118 1356 c 0,12,13
 73 1356 73 1356 49 1330 c 0,14,15
 24 1302 24 1302 11 1241 c 1,16,-1
 -93 1241 l 1,17,18
 -89 1294 -89 1294 -72 1350 c 0,19,20
 -54 1399 -54 1399 -28 1434 c 0,21,22
 -1 1469 -1 1469 35 1486 c 0,23,24
 72 1505 72 1505 118 1505 c 0,25,26
 160 1505 160 1505 200 1488 c 128,-1,27
 240 1471 240 1471 279 1449 c 0,28,29
 321 1426 321 1426 352 1410 c 0,30,31
 386 1393 386 1393 415 1393 c 0,32,33
 460 1393 460 1393 483 1419 c 128,-1,34
 506 1445 506 1445 521 1507 c 1,35,-1
 626 1507 l 1,36,37
 621 1446 621 1446 604 1398 c 0,38,39
 589 1352 589 1352 562 1316 c 0,40,41
 537 1282 537 1282 498 1262 c 0,42,43
 461 1243 461 1243 415 1243 c 0,4,5
EndSplineSet
EndChar

StartChar: Imacron
Encoding: 298 298 236
Width: 694
GlyphClass: 2
Flags: W
LayerCount: 2
Fore
SplineSet
612 0 m 1,0,-1
 82 0 l 1,1,-1
 82 102 l 1,2,-1
 254 143 l 1,3,-1
 254 1319 l 1,4,-1
 82 1360 l 1,5,-1
 82 1462 l 1,6,-1
 612 1462 l 1,7,-1
 612 1360 l 1,8,-1
 440 1319 l 1,9,-1
 440 143 l 1,10,-1
 612 102 l 1,11,-1
 612 0 l 1,0,-1
61 1729 m 1,12,-1
 636 1729 l 1,13,-1
 636 1579 l 1,14,-1
 61 1579 l 1,15,-1
 61 1729 l 1,12,-1
EndSplineSet
EndChar

StartChar: imacron
Encoding: 299 299 237
Width: 530
GlyphClass: 2
Flags: W
LayerCount: 2
Fore
SplineSet
356 0 m 1,0,-1
 174 0 l 1,1,-1
 174 1098 l 1,2,-1
 356 1098 l 1,3,-1
 356 0 l 1,0,-1
-21 1391 m 1,4,-1
 554 1391 l 1,5,-1
 554 1241 l 1,6,-1
 -21 1241 l 1,7,-1
 -21 1391 l 1,4,-1
EndSplineSet
EndChar

StartChar: Ibreve
Encoding: 300 300 238
Width: 694
GlyphClass: 2
Flags: W
LayerCount: 2
Fore
SplineSet
612 0 m 1,0,-1
 82 0 l 1,1,-1
 82 102 l 1,2,-1
 254 143 l 1,3,-1
 254 1319 l 1,4,-1
 82 1360 l 1,5,-1
 82 1462 l 1,6,-1
 612 1462 l 1,7,-1
 612 1360 l 1,8,-1
 440 1319 l 1,9,-1
 440 143 l 1,10,-1
 612 102 l 1,11,-1
 612 0 l 1,0,-1
650 1856 m 1,12,13
 645 1792 645 1792 624 1744 c 0,14,15
 602 1694 602 1694 564 1657 c 0,16,17
 525 1619 525 1619 470 1600 c 0,18,19
 416 1579 416 1579 345 1579 c 0,20,21
 275 1579 275 1579 218 1598 c 0,22,23
 162 1619 162 1619 126 1654 c 0,24,25
 91 1690 91 1690 70 1742 c 0,26,27
 51 1796 51 1796 48 1856 c 1,28,-1
 156 1856 l 1,29,30
 160 1814 160 1814 174 1788 c 0,31,32
 187 1764 187 1764 212 1750 c 0,33,34
 235 1739 235 1739 270 1734 c 0,35,36
 303 1731 303 1731 347 1731 c 0,37,38
 388 1731 388 1731 416 1736 c 0,39,40
 447 1739 447 1739 474 1754 c 0,41,42
 500 1767 500 1767 516 1792 c 0,43,44
 533 1816 533 1816 537 1856 c 1,45,-1
 650 1856 l 1,12,13
EndSplineSet
EndChar

StartChar: ibreve
Encoding: 301 301 239
Width: 530
GlyphClass: 2
Flags: W
LayerCount: 2
Fore
SplineSet
356 0 m 1,0,-1
 174 0 l 1,1,-1
 174 1098 l 1,2,-1
 356 1098 l 1,3,-1
 356 0 l 1,0,-1
568 1518 m 1,4,5
 563 1454 563 1454 542 1406 c 0,6,7
 520 1356 520 1356 482 1319 c 0,8,9
 443 1281 443 1281 388 1262 c 0,10,11
 334 1241 334 1241 263 1241 c 0,12,13
 193 1241 193 1241 136 1260 c 0,14,15
 80 1281 80 1281 44 1316 c 0,16,17
 9 1352 9 1352 -12 1404 c 0,18,19
 -31 1458 -31 1458 -34 1518 c 1,20,-1
 74 1518 l 1,21,22
 78 1476 78 1476 92 1450 c 0,23,24
 105 1426 105 1426 130 1412 c 0,25,26
 153 1401 153 1401 188 1396 c 0,27,28
 221 1393 221 1393 265 1393 c 0,29,30
 306 1393 306 1393 334 1398 c 0,31,32
 365 1401 365 1401 392 1416 c 0,33,34
 418 1429 418 1429 434 1454 c 0,35,36
 451 1478 451 1478 455 1518 c 1,37,-1
 568 1518 l 1,4,5
EndSplineSet
EndChar

StartChar: iogonek
Encoding: 303 303 241
Width: 530
GlyphClass: 2
Flags: W
LayerCount: 2
Fore
SplineSet
356 0 m 1,0,-1
 174 0 l 1,1,-1
 174 1098 l 1,2,-1
 356 1098 l 1,3,-1
 356 0 l 1,0,-1
160 1395 m 0,4,5
 160 1455 160 1455 190 1482 c 0,6,7
 222 1509 222 1509 266 1509 c 0,8,9
 288 1509 288 1509 308 1502 c 0,10,11
 327 1496 327 1496 342 1482 c 0,12,13
 357 1467 357 1467 364 1446 c 0,14,15
 373 1425 373 1425 373 1395 c 0,16,17
 373 1339 373 1339 342 1308 c 1,18,19
 308 1280 308 1280 266 1280 c 0,20,21
 221 1280 221 1280 190 1308 c 0,22,23
 160 1336 160 1336 160 1395 c 0,4,5
217 -238 m 0,24,25
 217 -283 217 -283 243 -304 c 0,26,27
 268 -326 268 -326 303 -326 c 0,28,29
 322 -326 322 -326 350 -324 c 0,30,31
 376 -321 376 -321 387 -317 c 1,32,-1
 387 -430 l 1,33,34
 362 -437 362 -437 329 -442 c 0,35,36
 301 -446 301 -446 268 -446 c 0,37,38
 167 -446 167 -446 118 -394 c 0,39,40
 68 -341 68 -341 68 -252 c 0,41,42
 68 -211 68 -211 83 -172 c 0,43,44
 99 -133 99 -133 122 -103 c 0,45,46
 146 -69 146 -69 173 -45 c 0,47,48
 202 -20 202 -20 227 0 c 1,49,-1
 356 0 l 1,50,51
 217 -133 217 -133 217 -238 c 0,24,25
EndSplineSet
EndChar

StartChar: dotlessi
Encoding: 305 305 243
Width: 530
GlyphClass: 2
Flags: W
LayerCount: 2
Fore
SplineSet
356 0 m 1,0,-1
 174 0 l 1,1,-1
 174 1098 l 1,2,-1
 356 1098 l 1,3,-1
 356 0 l 1,0,-1
EndSplineSet
EndChar

StartChar: IJ
Encoding: 306 306 244
Width: 1249
GlyphClass: 2
Flags: W
LayerCount: 2
Fore
SplineSet
612 0 m 1,0,-1
 82 0 l 1,1,-1
 82 102 l 1,2,-1
 254 143 l 1,3,-1
 254 1319 l 1,4,-1
 82 1360 l 1,5,-1
 82 1462 l 1,6,-1
 612 1462 l 1,7,-1
 612 1360 l 1,8,-1
 440 1319 l 1,9,-1
 440 143 l 1,10,-1
 612 102 l 1,11,-1
 612 0 l 1,0,-1
665 -389 m 0,12,13
 611 -389 611 -389 576 -382 c 0,14,15
 541 -376 541 -376 510 -365 c 1,16,-1
 510 -205 l 1,17,18
 545 -214 545 -214 583 -220 c 0,19,20
 626 -225 626 -225 667 -225 c 0,21,22
 703 -225 703 -225 742 -216 c 0,23,24
 781 -205 781 -205 810 -181 c 0,25,26
 839 -156 839 -156 859 -112 c 0,27,28
 878 -70 878 -70 878 0 c 2,29,-1
 878 1462 l 1,30,-1
 1065 1462 l 1,31,-1
 1065 20 l 2,32,33
 1065 -84 1065 -84 1036 -162 c 0,34,35
 1006 -238 1006 -238 954 -290 c 0,36,37
 899 -340 899 -340 828 -364 c 0,38,39
 754 -389 754 -389 665 -389 c 0,12,13
EndSplineSet
EndChar

StartChar: ij
Encoding: 307 307 245
Width: 1061
GlyphClass: 2
Flags: W
LayerCount: 2
Fore
SplineSet
356 0 m 1,0,-1
 174 0 l 1,1,-1
 174 1098 l 1,2,-1
 356 1098 l 1,3,-1
 356 0 l 1,0,-1
160 1395 m 0,4,5
 160 1455 160 1455 190 1482 c 0,6,7
 222 1509 222 1509 266 1509 c 0,8,9
 288 1509 288 1509 308 1502 c 0,10,11
 327 1496 327 1496 342 1482 c 0,12,13
 357 1467 357 1467 364 1446 c 0,14,15
 373 1425 373 1425 373 1395 c 0,16,17
 373 1339 373 1339 342 1308 c 1,18,19
 308 1280 308 1280 266 1280 c 0,20,21
 221 1280 221 1280 190 1308 c 0,22,23
 160 1336 160 1336 160 1395 c 0,4,5
596 -492 m 0,24,25
 547 -492 547 -492 516 -485 c 0,26,27
 483 -477 483 -477 462 -467 c 1,28,-1
 462 -319 l 1,29,30
 487 -329 487 -329 515 -334 c 0,31,32
 542 -340 542 -340 577 -340 c 0,33,34
 607 -340 607 -340 627 -332 c 0,35,36
 647 -327 647 -327 668 -306 c 0,37,38
 686 -284 686 -284 694 -254 c 0,39,40
 704 -223 704 -223 704 -170 c 2,41,-1
 704 1098 l 1,42,-1
 886 1098 l 1,43,-1
 886 -158 l 2,44,45
 886 -234 886 -234 869 -296 c 0,46,47
 854 -355 854 -355 816 -402 c 0,48,49
 778 -446 778 -446 726 -468 c 0,50,51
 670 -492 670 -492 596 -492 c 0,24,25
690 1395 m 0,52,53
 690 1455 690 1455 720 1482 c 0,54,55
 752 1509 752 1509 796 1509 c 0,56,57
 818 1509 818 1509 838 1502 c 0,58,59
 857 1496 857 1496 872 1482 c 0,60,61
 887 1467 887 1467 894 1446 c 0,62,63
 903 1425 903 1425 903 1395 c 0,64,65
 903 1339 903 1339 872 1308 c 1,66,67
 838 1280 838 1280 796 1280 c 0,68,69
 751 1280 751 1280 720 1308 c 0,70,71
 690 1336 690 1336 690 1395 c 0,52,53
EndSplineSet
EndChar

StartChar: jcircumflex
Encoding: 309 309 247
Width: 530
GlyphClass: 2
Flags: W
LayerCount: 2
Fore
SplineSet
66 -492 m 0,0,1
 17 -492 17 -492 -14 -485 c 0,2,3
 -47 -477 -47 -477 -68 -467 c 1,4,-1
 -68 -319 l 1,5,6
 -43 -329 -43 -329 -15 -334 c 0,7,8
 12 -340 12 -340 47 -340 c 0,9,10
 77 -340 77 -340 97 -332 c 0,11,12
 117 -327 117 -327 138 -306 c 0,13,14
 156 -284 156 -284 164 -254 c 0,15,16
 174 -223 174 -223 174 -170 c 2,17,-1
 174 1098 l 1,18,-1
 356 1098 l 1,19,-1
 356 -158 l 2,20,21
 356 -234 356 -234 339 -296 c 0,22,23
 324 -355 324 -355 286 -402 c 0,24,25
 248 -446 248 -446 196 -468 c 0,26,27
 141 -492 141 -492 66 -492 c 0,0,1
599 1241 m 1,28,-1
 478 1241 l 1,29,30
 423 1278 423 1278 373 1324 c 0,31,32
 319 1372 319 1372 267 1427 c 1,33,34
 221 1380 221 1380 160 1324 c 0,35,36
 113 1279 113 1279 56 1241 c 1,37,-1
 -65 1241 l 1,38,-1
 -65 1268 l 1,39,40
 -7 1333 -7 1333 -5 1335 c 0,41,42
 29 1372 29 1372 62 1414 c 0,43,44
 81 1435 81 1435 126 1494 c 0,45,46
 157 1540 157 1540 171 1569 c 1,47,-1
 363 1569 l 1,48,49
 377 1540 377 1540 408 1494 c 0,50,51
 453 1435 453 1435 472 1414 c 0,52,53
 507 1369 507 1369 540 1335 c 0,54,55
 597 1271 597 1271 599 1268 c 2,56,-1
 599 1241 l 1,28,-1
EndSplineSet
EndChar

StartChar: Kcommaaccent
Encoding: 310 310 248
Width: 1186
GlyphClass: 2
Flags: W
LayerCount: 2
Fore
SplineSet
1186 0 m 1,0,-1
 975 0 l 1,1,-1
 524 698 l 1,2,-1
 385 584 l 1,3,-1
 385 0 l 1,4,-1
 199 0 l 1,5,-1
 199 1462 l 1,6,-1
 385 1462 l 1,7,-1
 385 731 l 1,8,-1
 506 899 l 1,9,-1
 958 1462 l 1,10,-1
 1167 1462 l 1,11,-1
 647 825 l 1,12,-1
 1186 0 l 1,0,-1
482 -426 m 1,13,14
 492 -400 492 -400 506 -363 c 0,15,16
 516 -334 516 -334 531 -283 c 0,17,18
 542 -243 542 -243 552 -200 c 0,19,20
 560 -167 560 -167 566 -125 c 1,21,-1
 744 -125 l 1,22,-1
 744 -145 l 1,23,24
 737 -173 737 -173 722 -208 c 0,25,26
 704 -254 704 -254 685 -290 c 0,27,28
 664 -331 664 -331 636 -377 c 0,29,30
 611 -417 611 -417 580 -453 c 1,31,-1
 482 -453 l 1,32,-1
 482 -426 l 1,13,14
EndSplineSet
EndChar

StartChar: kcommaaccent
Encoding: 311 311 249
Width: 1016
GlyphClass: 2
Flags: W
LayerCount: 2
Fore
SplineSet
342 567 m 1,0,-1
 477 737 l 1,1,-1
 770 1098 l 1,2,-1
 981 1098 l 1,3,-1
 580 623 l 1,4,-1
 1008 0 l 1,5,-1
 799 0 l 1,6,-1
 463 504 l 1,7,-1
 354 422 l 1,8,-1
 354 0 l 1,9,-1
 174 0 l 1,10,-1
 174 1556 l 1,11,-1
 354 1556 l 1,12,-1
 354 842 l 1,13,-1
 338 567 l 1,14,-1
 342 567 l 1,0,-1
400 -426 m 1,15,16
 410 -400 410 -400 424 -363 c 0,17,18
 434 -334 434 -334 449 -283 c 0,19,20
 460 -243 460 -243 470 -200 c 0,21,22
 478 -167 478 -167 484 -125 c 1,23,-1
 662 -125 l 1,24,-1
 662 -145 l 1,25,26
 655 -173 655 -173 640 -208 c 0,27,28
 622 -254 622 -254 603 -290 c 0,29,30
 582 -331 582 -331 554 -377 c 0,31,32
 529 -417 529 -417 498 -453 c 1,33,-1
 400 -453 l 1,34,-1
 400 -426 l 1,15,16
EndSplineSet
EndChar

StartChar: kgreenlandic
Encoding: 312 312 250
Width: 1016
GlyphClass: 2
Flags: W
LayerCount: 2
Fore
SplineSet
803 0 m 1,0,-1
 463 489 l 1,1,-1
 354 408 l 1,2,-1
 354 0 l 1,3,-1
 174 0 l 1,4,-1
 174 1098 l 1,5,-1
 354 1098 l 1,6,-1
 354 817 l 2,7,8
 354 774 354 774 352 706 c 0,9,10
 349 653 349 653 346 617 c 0,11,12
 345 608 345 608 342.5 579.5 c 128,-1,13
 340 551 340 551 338 537 c 1,14,-1
 469 713 l 1,15,-1
 776 1098 l 1,16,-1
 981 1098 l 1,17,-1
 580 608 l 1,18,-1
 1008 0 l 1,19,-1
 803 0 l 1,0,-1
EndSplineSet
EndChar

StartChar: lacute
Encoding: 314 314 252
Width: 530
GlyphClass: 2
Flags: W
LayerCount: 2
Fore
SplineSet
356 0 m 1,0,-1
 174 0 l 1,1,-1
 174 1556 l 1,2,-1
 356 1556 l 1,3,-1
 356 0 l 1,0,-1
171 1663 m 1,4,5
 191 1688 191 1688 216 1730 c 0,6,7
 223 1741 223 1741 231 1754 c 128,-1,8
 239 1767 239 1767 249 1783 c 128,-1,9
 259 1799 259 1799 264 1808 c 0,10,11
 265 1810 265 1810 282.5 1841.5 c 128,-1,12
 300 1873 300 1873 308 1890 c 0,13,14
 322 1917 322 1917 345 1964 c 1,15,-1
 564 1964 l 1,16,-1
 564 1943 l 1,17,18
 541 1906 541 1906 516 1876 c 0,19,20
 492 1842 492 1842 446 1791 c 0,21,22
 413 1753 413 1753 368 1706 c 0,23,24
 327 1665 327 1665 292 1636 c 1,25,-1
 171 1636 l 1,26,-1
 171 1663 l 1,4,5
EndSplineSet
EndChar

StartChar: Lcommaaccent
Encoding: 315 315 253
Width: 1006
GlyphClass: 2
Flags: W
LayerCount: 2
Fore
SplineSet
199 0 m 1,0,-1
 199 1462 l 1,1,-1
 385 1462 l 1,2,-1
 385 166 l 1,3,-1
 958 166 l 1,4,-1
 958 0 l 1,5,-1
 199 0 l 1,0,-1
412 -426 m 1,6,7
 422 -400 422 -400 436 -363 c 0,8,9
 446 -334 446 -334 461 -283 c 0,10,11
 472 -243 472 -243 482 -200 c 0,12,13
 490 -167 490 -167 496 -125 c 1,14,-1
 674 -125 l 1,15,-1
 674 -145 l 1,16,17
 667 -173 667 -173 652 -208 c 0,18,19
 634 -254 634 -254 615 -290 c 0,20,21
 594 -331 594 -331 566 -377 c 0,22,23
 541 -417 541 -417 510 -453 c 1,24,-1
 412 -453 l 1,25,-1
 412 -426 l 1,6,7
EndSplineSet
EndChar

StartChar: lcommaaccent
Encoding: 316 316 254
Width: 530
GlyphClass: 2
Flags: W
LayerCount: 2
Fore
SplineSet
356 0 m 1,0,-1
 174 0 l 1,1,-1
 174 1556 l 1,2,-1
 356 1556 l 1,3,-1
 356 0 l 1,0,-1
102 -426 m 1,4,5
 112 -400 112 -400 126 -363 c 0,6,7
 136 -334 136 -334 151 -283 c 0,8,9
 162 -243 162 -243 172 -200 c 0,10,11
 180 -167 180 -167 186 -125 c 1,12,-1
 364 -125 l 1,13,-1
 364 -145 l 1,14,15
 357 -173 357 -173 342 -208 c 0,16,17
 324 -254 324 -254 305 -290 c 0,18,19
 284 -331 284 -331 256 -377 c 0,20,21
 231 -417 231 -417 200 -453 c 1,22,-1
 102 -453 l 1,23,-1
 102 -426 l 1,4,5
EndSplineSet
EndChar

StartChar: Lcaron
Encoding: 317 317 255
Width: 1006
GlyphClass: 2
Flags: W
LayerCount: 2
Fore
SplineSet
199 0 m 1,0,-1
 199 1462 l 1,1,-1
 385 1462 l 1,2,-1
 385 166 l 1,3,-1
 958 166 l 1,4,-1
 958 0 l 1,5,-1
 199 0 l 1,0,-1
647 1162 m 1,6,7
 655 1190 655 1190 665 1230 c 0,8,9
 677 1282 677 1282 682 1310 c 0,10,11
 688 1336 688 1336 698 1390 c 0,12,13
 702 1411 702 1411 709 1463 c 1,14,-1
 889 1463 l 1,15,-1
 889 1443 l 1,16,17
 883 1419 883 1419 868 1379 c 0,18,19
 855 1349 855 1349 832 1297 c 0,20,21
 825 1283 825 1283 788 1211 c 0,22,23
 766 1168 766 1168 743 1136 c 1,24,-1
 647 1136 l 1,25,-1
 647 1162 l 1,6,7
EndSplineSet
EndChar

StartChar: lcaron
Encoding: 318 318 256
Width: 530
GlyphClass: 2
Flags: W
LayerCount: 2
Fore
SplineSet
356 0 m 1,0,-1
 174 0 l 1,1,-1
 174 1556 l 1,2,-1
 356 1556 l 1,3,-1
 356 0 l 1,0,-1
450 1255 m 1,4,5
 459 1285 459 1285 468 1324 c 2,6,-1
 486 1402 l 2,7,8
 488 1414 488 1414 490.5 1427.5 c 128,-1,9
 493 1441 493 1441 496 1457.5 c 128,-1,10
 499 1474 499 1474 501 1483 c 0,11,12
 505 1504 505 1504 512 1556 c 1,13,-1
 692 1556 l 1,14,-1
 692 1536 l 1,15,16
 686 1509 686 1509 670 1472 c 0,17,18
 656 1435 656 1435 634 1390 c 0,19,20
 624 1368 624 1368 591 1304 c 0,21,22
 568 1260 568 1260 546 1229 c 1,23,-1
 450 1229 l 1,24,-1
 450 1255 l 1,4,5
EndSplineSet
EndChar

StartChar: ldot
Encoding: 320 320 258
Width: 614
GlyphClass: 2
Flags: W
LayerCount: 2
Fore
SplineSet
356 0 m 1,0,-1
 174 0 l 1,1,-1
 174 1556 l 1,2,-1
 356 1556 l 1,3,-1
 356 0 l 1,0,-1
461 683 m 0,4,5
 461 743 461 743 492 770 c 0,6,7
 522 797 522 797 567 797 c 0,8,9
 591 797 591 797 608 790 c 0,10,11
 628 784 628 784 642 770 c 0,12,13
 657 756 657 756 666 734 c 0,14,15
 674 712 674 712 674 683 c 0,16,17
 674 625 674 625 642 596 c 0,18,19
 611 568 611 568 567 568 c 0,20,21
 521 568 521 568 492 596 c 0,22,23
 461 624 461 624 461 683 c 0,4,5
EndSplineSet
EndChar

StartChar: Lslash
Encoding: 321 321 259
Width: 1006
GlyphClass: 2
Flags: W
LayerCount: 2
Fore
SplineSet
199 676 m 1,0,-1
 199 1462 l 1,1,-1
 385 1462 l 1,2,-1
 385 793 l 1,3,-1
 612 936 l 1,4,-1
 690 811 l 1,5,-1
 385 621 l 1,6,-1
 385 166 l 1,7,-1
 958 166 l 1,8,-1
 958 0 l 1,9,-1
 199 0 l 1,10,-1
 199 504 l 1,11,-1
 102 444 l 1,12,-1
 29 569 l 1,13,-1
 199 676 l 1,0,-1
EndSplineSet
EndChar

StartChar: lslash
Encoding: 322 322 260
Width: 530
GlyphClass: 2
Flags: W
LayerCount: 2
Fore
SplineSet
174 758 m 1,0,-1
 174 1556 l 1,1,-1
 356 1556 l 1,2,-1
 356 877 l 1,3,-1
 463 946 l 1,4,-1
 541 825 l 1,5,-1
 356 705 l 1,6,-1
 356 0 l 1,7,-1
 174 0 l 1,8,-1
 174 586 l 1,9,-1
 68 516 l 1,10,-1
 -10 637 l 1,11,-1
 174 758 l 1,0,-1
EndSplineSet
EndChar

StartChar: Ncommaaccent
Encoding: 325 325 263
Width: 1493
GlyphClass: 2
Flags: W
LayerCount: 2
Fore
SplineSet
1294 0 m 1,0,-1
 1079 0 l 1,1,-1
 360 1210 l 1,2,-1
 352 1210 l 1,3,4
 356 1159 356 1159 362 1057 c 0,5,6
 366 993 366 993 368 921 c 0,7,8
 371 850 371 850 371 793 c 2,9,-1
 371 0 l 1,10,-1
 199 0 l 1,11,-1
 199 1462 l 1,12,-1
 412 1462 l 1,13,-1
 1128 258 l 1,14,-1
 1135 258 l 1,15,16
 1131 357 1131 357 1128 408 c 0,17,18
 1126 450 1126 450 1126 474 c 2,19,-1
 1122 540 l 2,20,21
 1122 563 1122 563 1120 605 c 2,22,-1
 1120 662 l 1,23,-1
 1120 1462 l 1,24,-1
 1294 1462 l 1,25,-1
 1294 0 l 1,0,-1
584 -426 m 1,26,27
 594 -400 594 -400 608 -363 c 0,28,29
 618 -334 618 -334 633 -283 c 0,30,31
 644 -243 644 -243 654 -200 c 0,32,33
 662 -167 662 -167 668 -125 c 1,34,-1
 846 -125 l 1,35,-1
 846 -145 l 1,36,37
 839 -173 839 -173 824 -208 c 0,38,39
 806 -254 806 -254 787 -290 c 0,40,41
 766 -331 766 -331 738 -377 c 0,42,43
 713 -417 713 -417 682 -453 c 1,44,-1
 584 -453 l 1,45,-1
 584 -426 l 1,26,27
EndSplineSet
EndChar

StartChar: ncommaaccent
Encoding: 326 326 264
Width: 1206
GlyphClass: 2
Flags: W
LayerCount: 2
Fore
SplineSet
860 0 m 1,0,-1
 860 707 l 2,1,2
 860 836 860 836 808 902 c 0,3,4
 754 967 754 967 643 967 c 0,5,6
 564 967 564 967 507 941 c 0,7,8
 453 916 453 916 418 864 c 0,9,10
 385 813 385 813 370 739 c 0,11,12
 356 663 356 663 356 569 c 2,13,-1
 356 0 l 1,14,-1
 174 0 l 1,15,-1
 174 1098 l 1,16,-1
 322 1098 l 1,17,-1
 348 950 l 1,18,-1
 358 950 l 1,19,20
 386 997 386 997 418 1024 c 0,21,22
 447 1053 447 1053 493 1077 c 0,23,24
 532 1097 532 1097 580 1108 c 0,25,26
 624 1118 624 1118 674 1118 c 0,27,28
 857 1118 857 1118 950 1022 c 0,29,30
 1042 927 1042 927 1042 717 c 2,31,-1
 1042 0 l 1,32,-1
 860 0 l 1,0,-1
443 -426 m 1,33,34
 454 -400 454 -400 467 -363 c 0,35,36
 477 -334 477 -334 492 -283 c 0,37,38
 497 -265 497 -265 514 -200 c 0,39,40
 522 -164 522 -164 527 -125 c 1,41,-1
 705 -125 l 1,42,-1
 705 -145 l 1,43,44
 699 -170 699 -170 684 -208 c 0,45,46
 662 -261 662 -261 646 -290 c 0,47,48
 625 -331 625 -331 597 -377 c 0,49,50
 572 -417 572 -417 541 -453 c 1,51,-1
 443 -453 l 1,52,-1
 443 -426 l 1,33,34
EndSplineSet
EndChar

StartChar: napostrophe
Encoding: 329 329 267
Width: 1350
GlyphClass: 2
Flags: W
LayerCount: 2
Fore
SplineSet
1003 0 m 1,0,-1
 1003 707 l 2,1,2
 1003 839 1003 839 950 902 c 0,3,4
 899 967 899 967 786 967 c 0,5,6
 707 967 707 967 650 941 c 0,7,8
 596 916 596 916 562 864 c 0,9,10
 528 813 528 813 514 739 c 0,11,12
 499 666 499 666 499 569 c 2,13,-1
 499 0 l 1,14,-1
 317 0 l 1,15,-1
 317 1098 l 1,16,-1
 465 1098 l 1,17,-1
 491 950 l 1,18,-1
 501 950 l 1,19,20
 527 994 527 994 560 1024 c 0,21,22
 594 1055 594 1055 636 1077 c 0,23,24
 675 1097 675 1097 723 1108 c 0,25,26
 767 1118 767 1118 817 1118 c 0,27,28
 1000 1118 1000 1118 1092 1022 c 0,29,30
 1185 928 1185 928 1185 717 c 2,31,-1
 1185 0 l 1,32,-1
 1003 0 l 1,0,-1
298 1462 m 1,33,-1
 312 1440 l 1,34,35
 298 1383 298 1383 278 1324 c 0,36,37
 266 1284 266 1284 236 1202 c 0,38,39
 207 1126 207 1126 186 1078 c 0,40,41
 165 1024 165 1024 136 961 c 1,42,-1
 -1 961 l 1,43,44
 4 982 4 982 13.5 1024.5 c 128,-1,45
 23 1067 23 1067 28 1087 c 0,46,47
 46 1175 46 1175 56 1219 c 0,48,49
 59 1236 59 1236 67.5 1280 c 128,-1,50
 76 1324 76 1324 80 1347 c 0,51,52
 96 1439 96 1439 99 1462 c 1,53,-1
 298 1462 l 1,33,-1
EndSplineSet
EndChar

StartChar: Eng
Encoding: 330 330 268
Width: 1493
GlyphClass: 2
Flags: W
LayerCount: 2
Fore
SplineSet
907 -389 m 0,0,1
 853 -389 853 -389 818 -382 c 0,2,3
 781 -376 781 -376 752 -365 c 1,4,-1
 752 -205 l 1,5,6
 787 -214 787 -214 825 -220 c 0,7,8
 868 -225 868 -225 909 -225 c 0,9,10
 945 -225 945 -225 984 -216 c 0,11,12
 1023 -205 1023 -205 1052 -181 c 0,13,14
 1081 -156 1081 -156 1101 -112 c 0,15,16
 1120 -70 1120 -70 1120 0 c 1,17,-1
 360 1210 l 1,18,-1
 352 1210 l 1,19,20
 356 1159 356 1159 362 1057 c 0,21,22
 366 993 366 993 368 921 c 0,23,24
 371 850 371 850 371 793 c 2,25,-1
 371 0 l 1,26,-1
 199 0 l 1,27,-1
 199 1462 l 1,28,-1
 412 1462 l 1,29,-1
 1128 299 l 1,30,-1
 1135 299 l 1,31,32
 1131 388 1131 388 1128 429 c 0,33,34
 1125 481 1125 481 1122 548 c 0,35,36
 1120 630 1120 630 1120 662 c 2,37,-1
 1120 1462 l 1,38,-1
 1294 1462 l 1,39,-1
 1294 20 l 2,40,41
 1294 -87 1294 -87 1266 -162 c 0,42,43
 1239 -238 1239 -238 1189 -290 c 0,44,45
 1139 -340 1139 -340 1068 -364 c 0,46,47
 997 -389 997 -389 907 -389 c 0,0,1
EndSplineSet
EndChar

StartChar: eng
Encoding: 331 331 269
Width: 1206
GlyphClass: 2
Flags: W
LayerCount: 2
Fore
SplineSet
750 -492 m 0,0,1
 701 -492 701 -492 670 -485 c 0,2,3
 637 -477 637 -477 616 -467 c 1,4,-1
 616 -319 l 1,5,6
 641 -329 641 -329 669 -334 c 0,7,8
 696 -340 696 -340 731 -340 c 0,9,10
 761 -340 761 -340 781 -332 c 0,11,12
 801 -327 801 -327 822 -306 c 0,13,14
 840 -284 840 -284 848 -254 c 0,15,16
 858 -223 858 -223 858 -170 c 2,17,-1
 860 707 l 2,18,19
 860 836 860 836 808 902 c 0,20,21
 754 967 754 967 643 967 c 0,22,23
 564 967 564 967 507 941 c 0,24,25
 453 916 453 916 418 864 c 0,26,27
 385 813 385 813 370 739 c 0,28,29
 356 663 356 663 356 569 c 2,30,-1
 356 0 l 1,31,-1
 174 0 l 1,32,-1
 174 1098 l 1,33,-1
 322 1098 l 1,34,-1
 348 950 l 1,35,-1
 358 950 l 1,36,37
 386 997 386 997 418 1024 c 0,38,39
 447 1053 447 1053 493 1077 c 0,40,41
 532 1097 532 1097 580 1108 c 0,42,43
 624 1118 624 1118 674 1118 c 0,44,45
 857 1118 857 1118 950 1022 c 0,46,47
 1042 927 1042 927 1042 717 c 2,48,-1
 1040 -158 l 2,49,50
 1040 -234 1040 -234 1023 -296 c 0,51,52
 1008 -355 1008 -355 970 -402 c 0,53,54
 932 -446 932 -446 880 -468 c 0,55,56
 825 -492 825 -492 750 -492 c 0,0,1
EndSplineSet
EndChar

StartChar: OE
Encoding: 338 338 276
Width: 1823
GlyphClass: 2
Flags: W
LayerCount: 2
Fore
SplineSet
1700 0 m 1,0,-1
 942 0 l 1,1,2
 893 -10 893 -10 854 -14 c 0,3,4
 808 -20 808 -20 760 -20 c 0,5,6
 596 -20 596 -20 478 34 c 0,7,8
 358 88 358 88 280 187 c 0,9,10
 200 286 200 286 163 426 c 0,11,12
 125 566 125 566 125 735 c 0,13,14
 125 903 125 903 163 1044 c 0,15,16
 201 1183 201 1183 280 1280 c 0,17,18
 360 1379 360 1379 479 1432 c 0,19,20
 600 1485 600 1485 762 1485 c 0,21,22
 858 1485 858 1485 944 1462 c 1,23,-1
 1700 1462 l 1,24,-1
 1700 1298 l 1,25,-1
 1126 1298 l 1,26,-1
 1126 846 l 1,27,-1
 1661 846 l 1,28,-1
 1661 684 l 1,29,-1
 1126 684 l 1,30,-1
 1126 164 l 1,31,-1
 1700 164 l 1,32,-1
 1700 0 l 1,0,-1
762 1321 m 0,33,34
 646 1321 646 1321 565 1280 c 0,35,36
 482 1241 482 1241 428 1164 c 0,37,38
 373 1088 373 1088 348 980 c 0,39,40
 322 868 322 868 322 733 c 0,41,42
 322 599 322 599 348 486 c 0,43,44
 373 379 373 379 428 300 c 0,45,46
 483 222 483 222 564 184 c 0,47,48
 643 143 643 143 760 143 c 0,49,50
 812 143 812 143 857 152 c 0,51,52
 903 161 903 161 940 176 c 1,53,-1
 940 1288 l 1,54,55
 903 1304 903 1304 858 1312 c 0,56,57
 813 1321 813 1321 762 1321 c 0,33,34
EndSplineSet
EndChar

StartChar: oe
Encoding: 339 339 277
Width: 1864
GlyphClass: 2
Flags: W
LayerCount: 2
Fore
SplineSet
1376 -20 m 0,0,1
 1247 -20 1247 -20 1144 36 c 128,-1,2
 1041 92 1041 92 977 201 c 1,3,4
 914 92 914 92 815 36 c 0,5,6
 715 -20 715 -20 588 -20 c 0,7,8
 486 -20 486 -20 398 18 c 0,9,10
 312 55 312 55 248 128 c 0,11,12
 183 202 183 202 148 308 c 0,13,14
 113 415 113 415 113 551 c 128,-1,15
 113 687 113 687 146 792 c 0,16,17
 180 898 180 898 242 970 c 0,18,19
 304 1044 304 1044 394 1080 c 0,20,21
 480 1118 480 1118 594 1118 c 0,22,23
 718 1118 718 1118 812 1062 c 1,24,25
 909 1009 909 1009 973 901 c 1,26,27
 1033 1007 1033 1007 1126 1062 c 0,28,29
 1218 1118 1218 1118 1335 1118 c 0,30,31
 1434 1118 1434 1118 1513 1082 c 0,32,33
 1592 1048 1592 1048 1647 982 c 0,34,35
 1701 921 1701 921 1732 828 c 0,36,37
 1761 735 1761 735 1761 627 c 2,38,-1
 1761 514 l 1,39,-1
 1069 514 l 1,40,41
 1073 323 1073 323 1150 230 c 0,42,43
 1228 139 1228 139 1378 139 c 0,44,45
 1425 139 1425 139 1472 144 c 0,46,47
 1513 148 1513 148 1556 158 c 0,48,49
 1596 168 1596 168 1635 182 c 0,50,51
 1676 198 1676 198 1712 215 c 1,52,-1
 1712 53 l 1,53,54
 1672 34 1672 34 1634 20 c 0,55,56
 1590 5 1590 5 1554 -3 c 0,57,58
 1519 -11 1519 -11 1470 -16 c 0,59,60
 1433 -20 1433 -20 1376 -20 c 0,0,1
301 551 m 0,61,62
 301 342 301 342 370 236 c 0,63,64
 438 131 438 131 592 131 c 0,65,66
 742 131 742 131 812 232 c 0,67,68
 881 331 881 331 881 541 c 0,69,70
 881 761 881 761 811 864 c 128,-1,71
 741 967 741 967 590 967 c 0,72,73
 438 967 438 967 368 864 c 1,74,75
 301 757 301 757 301 551 c 0,61,62
1565 662 m 1,76,77
 1565 726 1565 726 1552 786 c 0,78,79
 1537 842 1537 842 1510 883 c 0,80,81
 1481 922 1481 922 1437 945 c 0,82,83
 1394 967 1394 967 1331 967 c 0,84,85
 1218 967 1218 967 1150 889 c 0,86,87
 1083 810 1083 810 1073 662 c 1,88,-1
 1565 662 l 1,76,77
EndSplineSet
EndChar

StartChar: Rcommaaccent
Encoding: 342 342 280
Width: 1208
GlyphClass: 2
Flags: W
LayerCount: 2
Fore
SplineSet
385 604 m 1,0,-1
 385 0 l 1,1,-1
 199 0 l 1,2,-1
 199 1462 l 1,3,-1
 555 1462 l 2,4,5
 821 1462 821 1462 948 1359 c 128,-1,6
 1075 1256 1075 1256 1075 1047 c 0,7,8
 1075 958 1075 958 1050 895 c 0,9,10
 1026 830 1026 830 986 784 c 0,11,12
 945 737 945 737 893 706 c 0,13,14
 839 674 839 674 786 655 c 1,15,-1
 1184 0 l 1,16,-1
 965 0 l 1,17,-1
 614 604 l 1,18,-1
 385 604 l 1,0,-1
385 762 m 1,19,-1
 549 762 l 2,20,21
 639 762 639 762 702 780 c 0,22,23
 764 796 764 796 806 832 c 0,24,25
 846 866 846 866 864 918 c 0,26,27
 883 968 883 968 883 1038 c 0,28,29
 883 1110 883 1110 862 1160 c 0,30,31
 842 1210 842 1210 800 1242 c 0,32,33
 758 1275 758 1275 696 1288 c 0,34,35
 632 1303 632 1303 545 1303 c 2,36,-1
 385 1303 l 1,37,-1
 385 762 l 1,19,-1
486 -426 m 1,38,39
 496 -400 496 -400 510 -363 c 0,40,41
 520 -334 520 -334 535 -283 c 0,42,43
 546 -243 546 -243 556 -200 c 0,44,45
 564 -167 564 -167 570 -125 c 1,46,-1
 748 -125 l 1,47,-1
 748 -145 l 1,48,49
 741 -173 741 -173 726 -208 c 0,50,51
 708 -254 708 -254 689 -290 c 0,52,53
 668 -331 668 -331 640 -377 c 0,54,55
 615 -417 615 -417 584 -453 c 1,56,-1
 486 -453 l 1,57,-1
 486 -426 l 1,38,39
EndSplineSet
EndChar

StartChar: rcommaaccent
Encoding: 343 343 281
Width: 817
GlyphClass: 2
Flags: W
LayerCount: 2
Fore
SplineSet
649 1118 m 0,0,1
 666 1118 666 1118 714 1116 c 0,2,3
 746 1113 746 1113 776 1108 c 1,4,-1
 752 940 l 1,5,6
 714 946 714 946 694 948 c 0,7,8
 669 952 669 952 639 952 c 0,9,10
 575 952 575 952 524 926 c 0,11,12
 476 904 476 904 434 854 c 0,13,14
 396 804 396 804 376 740 c 0,15,16
 356 671 356 671 356 592 c 2,17,-1
 356 0 l 1,18,-1
 174 0 l 1,19,-1
 174 1098 l 1,20,-1
 322 1098 l 1,21,-1
 344 897 l 1,22,-1
 352 897 l 1,23,24
 380 945 380 945 406 980 c 0,25,26
 431 1018 431 1018 470 1050 c 0,27,28
 501 1079 501 1079 549 1100 c 0,29,30
 593 1118 593 1118 649 1118 c 0,0,1
96 -426 m 1,31,32
 106 -400 106 -400 120 -363 c 0,33,34
 130 -334 130 -334 145 -283 c 0,35,36
 156 -243 156 -243 166 -200 c 0,37,38
 174 -167 174 -167 180 -125 c 1,39,-1
 358 -125 l 1,40,-1
 358 -145 l 1,41,42
 351 -173 351 -173 336 -208 c 0,43,44
 318 -254 318 -254 299 -290 c 0,45,46
 278 -331 278 -331 250 -377 c 0,47,48
 225 -417 225 -417 194 -453 c 1,49,-1
 96 -453 l 1,50,-1
 96 -426 l 1,31,32
EndSplineSet
EndChar

StartChar: rcaron
Encoding: 345 345 283
Width: 817
GlyphClass: 2
Flags: W
LayerCount: 2
Fore
SplineSet
649 1118 m 0,0,1
 666 1118 666 1118 714 1116 c 0,2,3
 746 1113 746 1113 776 1108 c 1,4,-1
 752 940 l 1,5,6
 714 946 714 946 694 948 c 0,7,8
 669 952 669 952 639 952 c 0,9,10
 575 952 575 952 524 926 c 0,11,12
 476 904 476 904 434 854 c 0,13,14
 396 804 396 804 376 740 c 0,15,16
 356 671 356 671 356 592 c 2,17,-1
 356 0 l 1,18,-1
 174 0 l 1,19,-1
 174 1098 l 1,20,-1
 322 1098 l 1,21,-1
 344 897 l 1,22,-1
 352 897 l 1,23,24
 380 945 380 945 406 980 c 0,25,26
 431 1018 431 1018 470 1050 c 0,27,28
 501 1079 501 1079 549 1100 c 0,29,30
 593 1118 593 1118 649 1118 c 0,0,1
778 1542 m 1,31,32
 719 1476 719 1476 718 1475 c 0,33,34
 671 1422 671 1422 650 1396 c 0,35,36
 616 1356 616 1356 588 1316 c 0,37,38
 559 1277 559 1277 542 1241 c 1,39,-1
 350 1241 l 1,40,41
 333 1277 333 1277 304 1316 c 0,42,43
 276 1356 276 1356 242 1396 c 0,44,45
 203 1443 203 1443 174 1475 c 0,46,47
 172 1477 172 1477 114 1542 c 1,48,-1
 114 1569 l 1,49,-1
 235 1569 l 1,50,51
 292 1531 292 1531 339 1486 c 0,52,53
 392 1438 392 1438 446 1382 c 1,54,55
 504 1443 504 1443 552 1486 c 0,56,57
 602 1532 602 1532 657 1569 c 1,58,-1
 778 1569 l 1,59,-1
 778 1542 l 1,31,32
EndSplineSet
EndChar

StartChar: Tcommaaccent
Encoding: 65538 -1 292
Width: 1063
GlyphClass: 2
Flags: W
LayerCount: 2
Fore
SplineSet
625 0 m 1,0,-1
 438 0 l 1,1,-1
 438 1298 l 1,2,-1
 20 1298 l 1,3,-1
 20 1462 l 1,4,-1
 1042 1462 l 1,5,-1
 1042 1298 l 1,6,-1
 625 1298 l 1,7,-1
 625 0 l 1,0,-1
360 -426 m 1,8,9
 370 -400 370 -400 384 -363 c 0,10,11
 394 -334 394 -334 409 -283 c 0,12,13
 420 -243 420 -243 430 -200 c 0,14,15
 438 -167 438 -167 444 -125 c 1,16,-1
 622 -125 l 1,17,-1
 622 -145 l 1,18,19
 615 -173 615 -173 600 -208 c 0,20,21
 582 -254 582 -254 563 -290 c 0,22,23
 542 -331 542 -331 514 -377 c 0,24,25
 489 -417 489 -417 458 -453 c 1,26,-1
 360 -453 l 1,27,-1
 360 -426 l 1,8,9
EndSplineSet
EndChar

StartChar: tcommaaccent
Encoding: 65539 -1 293
Width: 694
GlyphClass: 2
Flags: W
LayerCount: 2
Fore
SplineSet
506 129 m 0,0,1
 518 129 518 129 546 131 c 0,2,3
 562 132 562 132 590 136 c 0,4,5
 616 140 616 140 628 143 c 0,6,7
 652 149 652 149 655 150 c 2,8,-1
 655 12 l 1,9,10
 642 6 642 6 622 0 c 0,11,12
 597 -8 597 -8 578 -10 c 0,13,14
 562 -14 562 -14 528 -18 c 0,15,16
 494 -20 494 -20 477 -20 c 0,17,18
 413 -20 413 -20 362 -4 c 0,19,20
 308 13 308 13 270 51 c 0,21,22
 232 90 232 90 210 156 c 256,23,24
 188 222 188 222 188 324 c 2,25,-1
 188 961 l 1,26,-1
 33 961 l 1,27,-1
 33 1042 l 1,28,-1
 188 1120 l 1,29,-1
 266 1350 l 1,30,-1
 371 1350 l 1,31,-1
 371 1098 l 1,32,-1
 647 1098 l 1,33,-1
 647 961 l 1,34,-1
 371 961 l 1,35,-1
 371 324 l 2,36,37
 371 229 371 229 402 178 c 0,38,39
 435 129 435 129 506 129 c 0,0,1
204 -426 m 1,40,41
 214 -400 214 -400 228 -363 c 0,42,43
 238 -334 238 -334 253 -283 c 0,44,45
 264 -243 264 -243 274 -200 c 0,46,47
 282 -167 282 -167 288 -125 c 1,48,-1
 466 -125 l 1,49,-1
 466 -145 l 1,50,51
 459 -173 459 -173 444 -208 c 0,52,53
 426 -254 426 -254 407 -290 c 0,54,55
 386 -331 386 -331 358 -377 c 0,56,57
 333 -417 333 -417 302 -453 c 1,58,-1
 204 -453 l 1,59,-1
 204 -426 l 1,40,41
EndSplineSet
EndChar

StartChar: tcaron
Encoding: 357 357 295
Width: 694
GlyphClass: 2
Flags: W
LayerCount: 2
Fore
SplineSet
506 129 m 0,0,1
 518 129 518 129 546 131 c 0,2,3
 562 132 562 132 590 136 c 0,4,5
 616 140 616 140 628 143 c 0,6,7
 652 149 652 149 655 150 c 2,8,-1
 655 12 l 1,9,10
 642 6 642 6 622 0 c 0,11,12
 597 -8 597 -8 578 -10 c 0,13,14
 562 -14 562 -14 528 -18 c 0,15,16
 494 -20 494 -20 477 -20 c 0,17,18
 413 -20 413 -20 362 -4 c 0,19,20
 308 13 308 13 270 51 c 0,21,22
 232 90 232 90 210 156 c 256,23,24
 188 222 188 222 188 324 c 2,25,-1
 188 961 l 1,26,-1
 33 961 l 1,27,-1
 33 1042 l 1,28,-1
 188 1120 l 1,29,-1
 266 1350 l 1,30,-1
 371 1350 l 1,31,-1
 371 1098 l 1,32,-1
 647 1098 l 1,33,-1
 647 961 l 1,34,-1
 371 961 l 1,35,-1
 371 324 l 2,36,37
 371 229 371 229 402 178 c 0,38,39
 435 129 435 129 506 129 c 0,0,1
502 1255 m 1,40,41
 511 1285 511 1285 520 1324 c 2,42,-1
 538 1402 l 2,43,44
 540 1414 540 1414 542.5 1427.5 c 128,-1,45
 545 1441 545 1441 548 1457.5 c 128,-1,46
 551 1474 551 1474 553 1483 c 0,47,48
 557 1504 557 1504 564 1556 c 1,49,-1
 744 1556 l 1,50,-1
 744 1536 l 1,51,52
 738 1509 738 1509 722 1472 c 0,53,54
 708 1435 708 1435 686 1390 c 0,55,56
 676 1368 676 1368 643 1304 c 0,57,58
 620 1260 620 1260 598 1229 c 1,59,-1
 502 1229 l 1,60,-1
 502 1255 l 1,40,41
EndSplineSet
EndChar

StartChar: Tbar
Encoding: 358 358 296
Width: 1063
GlyphClass: 2
Flags: W
LayerCount: 2
Fore
SplineSet
438 819 m 1,0,-1
 438 1298 l 1,1,-1
 20 1298 l 1,2,-1
 20 1462 l 1,3,-1
 1042 1462 l 1,4,-1
 1042 1298 l 1,5,-1
 625 1298 l 1,6,-1
 625 819 l 1,7,-1
 920 819 l 1,8,-1
 920 670 l 1,9,-1
 625 670 l 1,10,-1
 625 0 l 1,11,-1
 438 0 l 1,12,-1
 438 670 l 1,13,-1
 141 670 l 1,14,-1
 141 819 l 1,15,-1
 438 819 l 1,0,-1
EndSplineSet
EndChar

StartChar: tbar
Encoding: 359 359 297
Width: 694
GlyphClass: 2
Flags: W
LayerCount: 2
Fore
SplineSet
506 129 m 0,0,1
 518 129 518 129 546 131 c 0,2,3
 562 132 562 132 590 136 c 0,4,5
 616 140 616 140 628 143 c 0,6,7
 652 149 652 149 655 150 c 2,8,-1
 655 12 l 1,9,10
 642 6 642 6 622 0 c 0,11,12
 597 -8 597 -8 578 -10 c 0,13,14
 562 -14 562 -14 528 -18 c 0,15,16
 494 -20 494 -20 477 -20 c 0,17,18
 413 -20 413 -20 362 -4 c 0,19,20
 308 13 308 13 270 51 c 0,21,22
 232 90 232 90 210 156 c 256,23,24
 188 222 188 222 188 324 c 2,25,-1
 188 575 l 1,26,-1
 49 575 l 1,27,-1
 49 713 l 1,28,-1
 188 713 l 1,29,-1
 188 961 l 1,30,-1
 33 961 l 1,31,-1
 33 1042 l 1,32,-1
 188 1120 l 1,33,-1
 266 1350 l 1,34,-1
 371 1350 l 1,35,-1
 371 1098 l 1,36,-1
 647 1098 l 1,37,-1
 647 961 l 1,38,-1
 371 961 l 1,39,-1
 371 713 l 1,40,-1
 629 713 l 1,41,-1
 629 575 l 1,42,-1
 371 575 l 1,43,-1
 371 324 l 2,44,45
 371 229 371 229 402 178 c 0,46,47
 435 129 435 129 506 129 c 0,0,1
EndSplineSet
EndChar

StartChar: longs
Encoding: 383 383 321
Width: 588
GlyphClass: 2
Flags: W
LayerCount: 2
Fore
SplineSet
174 0 m 1,0,-1
 174 1200 l 2,1,2
 174 1303 174 1303 196 1378 c 0,3,4
 221 1451 221 1451 262 1490 c 0,5,6
 304 1532 304 1532 366 1550 c 0,7,8
 429 1567 429 1567 506 1567 c 0,9,10
 564 1567 564 1567 614 1556 c 0,11,12
 660 1545 660 1545 702 1530 c 1,13,-1
 655 1389 l 1,14,15
 615 1402 615 1402 588 1408 c 0,16,17
 552 1417 552 1417 512 1417 c 256,18,19
 472 1417 472 1417 443 1408 c 0,20,21
 415 1398 415 1398 394 1374 c 0,22,23
 375 1348 375 1348 366 1308 c 0,24,25
 356 1269 356 1269 356 1202 c 2,26,-1
 356 0 l 1,27,-1
 174 0 l 1,0,-1
EndSplineSet
EndChar

StartChar: florin
Encoding: 402 402 322
Width: 1128
GlyphClass: 2
Flags: W
LayerCount: 2
Fore
SplineSet
655 836 m 1,0,-1
 655 -125 l 2,1,2
 655 -236 655 -236 632 -302 c 0,3,4
 612 -371 612 -371 568 -415 c 0,5,6
 524 -458 524 -458 464 -474 c 0,7,8
 401 -492 401 -492 324 -492 c 0,9,10
 302 -492 302 -492 262 -488 c 0,11,12
 256 -487 256 -487 235 -483 c 128,-1,13
 214 -479 214 -479 203 -477 c 1,14,-1
 203 -324 l 1,15,16
 236 -334 236 -334 258 -337 c 0,17,18
 288 -342 288 -342 317 -342 c 0,19,20
 359 -342 359 -342 386 -332 c 0,21,22
 415 -323 415 -323 435 -299 c 0,23,24
 453 -277 453 -277 464 -234 c 0,25,26
 473 -192 473 -192 473 -127 c 2,27,-1
 473 836 l 1,28,-1
 279 836 l 1,29,-1
 279 911 l 1,30,-1
 473 979 l 1,31,-1
 473 1116 l 2,32,33
 473 1225 473 1225 496 1294 c 0,34,35
 517 1363 517 1363 560 1406 c 0,36,37
 604 1448 604 1448 665 1466 c 0,38,39
 728 1483 728 1483 805 1483 c 0,40,41
 861 1483 861 1483 914 1472 c 0,42,43
 962 1460 962 1460 1001 1446 c 1,44,-1
 954 1305 l 1,45,46
 914 1318 914 1318 887 1324 c 0,47,48
 851 1333 851 1333 811 1333 c 0,49,50
 770 1333 770 1333 742 1324 c 0,51,52
 711 1313 711 1313 694 1290 c 0,53,54
 675 1268 675 1268 664 1224 c 0,55,56
 655 1184 655 1184 655 1118 c 2,57,-1
 655 973 l 1,58,-1
 901 973 l 1,59,-1
 901 836 l 1,60,-1
 655 836 l 1,0,-1
EndSplineSet
EndChar

StartChar: Aringacute
Encoding: 506 506 323
Width: 1245
GlyphClass: 2
Flags: W
LayerCount: 2
Fore
SplineSet
848 1436 m 0,0,1
 848 1366 848 1366 818 1318 c 0,2,3
 788 1271 788 1271 737 1245 c 1,4,-1
 1245 0 l 1,5,-1
 1055 0 l 1,6,-1
 901 391 l 1,7,-1
 344 391 l 1,8,-1
 188 0 l 1,9,-1
 0 0 l 1,10,-1
 504 1243 l 1,11,12
 452 1269 452 1269 424 1316 c 0,13,14
 395 1365 395 1365 395 1434 c 0,15,16
 395 1486 395 1486 411 1524 c 0,17,18
 427 1563 427 1563 456 1592 c 0,19,20
 486 1620 486 1620 527 1634 c 0,21,22
 568 1649 568 1649 618 1649 c 0,23,24
 667 1649 667 1649 709 1634 c 0,25,26
 750 1621 750 1621 782 1592 c 0,27,28
 814 1565 814 1565 830 1526 c 0,29,30
 848 1486 848 1486 848 1436 c 0,0,1
836 557 m 1,31,-1
 688 938 l 2,32,33
 676 971 676 971 674 977 c 0,34,35
 666 997 666 997 656 1027 c 0,36,37
 647 1054 647 1054 638 1084 c 0,38,39
 626 1122 626 1122 621 1141 c 1,40,41
 611 1103 611 1103 605 1083 c 0,42,43
 596 1053 596 1053 587 1026 c 0,44,45
 584 1017 584 1017 578 1000 c 128,-1,46
 572 983 572 983 570 976 c 0,47,48
 567 968 567 968 562 955 c 128,-1,49
 557 942 557 942 555 938 c 2,50,-1
 410 557 l 1,51,-1
 836 557 l 1,31,-1
543 1720 m 1,52,53
 564 1744 564 1744 588 1774 c 0,54,55
 620 1816 620 1816 636 1838 c 0,56,57
 656 1866 656 1866 680 1902 c 0,58,59
 697 1928 697 1928 717 1962 c 1,60,-1
 936 1962 l 1,61,-1
 936 1946 l 1,62,63
 916 1919 916 1919 888 1892 c 0,64,65
 860 1861 860 1861 818 1824 c 0,66,67
 792 1799 792 1799 740 1755 c 0,68,69
 699 1723 699 1723 664 1700 c 1,70,-1
 543 1700 l 1,71,-1
 543 1720 l 1,52,53
731 1434 m 0,72,73
 731 1485 731 1485 700 1516 c 0,74,75
 667 1546 667 1546 618 1546 c 0,76,77
 568 1546 568 1546 538 1516 c 0,78,79
 506 1487 506 1487 506 1434 c 128,-1,80
 506 1381 506 1381 532 1354 c 0,81,82
 556 1324 556 1324 606 1321 c 2,83,-1
 618 1321 l 2,84,85
 667 1321 667 1321 700 1351 c 0,86,87
 731 1382 731 1382 731 1434 c 0,72,73
EndSplineSet
EndChar

StartChar: aringacute
Encoding: 507 507 324
Width: 1087
GlyphClass: 2
Flags: W
LayerCount: 2
Fore
SplineSet
455 1720 m 1,0,1
 476 1744 476 1744 500 1774 c 0,2,3
 532 1816 532 1816 548 1838 c 0,4,5
 568 1866 568 1866 592 1902 c 0,6,7
 609 1928 609 1928 629 1962 c 1,8,-1
 848 1962 l 1,9,-1
 848 1946 l 1,10,11
 828 1919 828 1919 800 1892 c 0,12,13
 772 1861 772 1861 730 1824 c 0,14,15
 698 1793 698 1793 651 1755 c 0,16,17
 618 1728 618 1728 575 1700 c 1,18,-1
 455 1700 l 1,19,-1
 455 1720 l 1,0,1
793 0 m 1,20,-1
 756 152 l 1,21,-1
 748 152 l 1,22,23
 715 107 715 107 682 74 c 0,24,25
 648 41 648 41 610 21 c 0,26,27
 573 1 573 1 523 -10 c 0,28,29
 477 -20 477 -20 412 -20 c 0,30,31
 341 -20 341 -20 285 0 c 0,32,33
 228 18 228 18 184 60 c 0,34,35
 142 99 142 99 118 162 c 0,36,37
 94 222 94 222 94 307 c 0,38,39
 94 471 94 471 210 559 c 0,40,41
 324 647 324 647 561 655 c 2,42,-1
 745 662 l 1,43,-1
 745 731 l 2,44,45
 745 798 745 798 730 843 c 0,46,47
 717 887 717 887 688 916 c 0,48,49
 661 943 661 943 620 955 c 0,50,51
 581 967 581 967 528 967 c 0,52,53
 445 967 445 967 374 943 c 0,54,55
 299 918 299 918 236 885 c 1,56,-1
 172 1022 l 1,57,58
 241 1060 241 1060 337 1090 c 0,59,60
 427 1118 427 1118 528 1118 c 128,-1,61
 629 1118 629 1118 704 1098 c 0,62,63
 778 1077 778 1077 828 1032 c 0,64,65
 876 989 876 989 900 919 c 0,66,67
 924 850 924 850 924 752 c 2,68,-1
 924 0 l 1,69,-1
 793 0 l 1,20,-1
459 127 m 0,70,71
 521 127 521 127 572 146 c 0,72,73
 625 166 625 166 662 204 c 0,74,75
 699 241 699 241 722 300 c 0,76,77
 743 360 743 360 743 438 c 2,78,-1
 743 537 l 1,79,-1
 600 530 l 2,80,81
 506 525 506 525 449 510 c 0,82,83
 389 494 389 494 352 466 c 0,84,85
 315 436 315 436 299 396 c 0,86,87
 283 358 283 358 283 305 c 0,88,89
 283 213 283 213 332 170 c 0,90,91
 379 127 379 127 459 127 c 0,70,71
770 1415 m 0,92,93
 770 1363 770 1363 752 1324 c 0,94,95
 736 1284 736 1284 704 1255 c 0,96,97
 675 1227 675 1227 632 1212 c 0,98,99
 588 1198 588 1198 541 1198 c 0,100,101
 492 1198 492 1198 450 1212 c 0,102,103
 407 1228 407 1228 380 1255 c 0,104,105
 348 1285 348 1285 334 1322 c 0,106,107
 317 1360 317 1360 317 1413 c 128,-1,108
 317 1466 317 1466 334 1504 c 0,109,110
 348 1541 348 1541 380 1571 c 0,111,112
 407 1598 407 1598 450 1614 c 0,113,114
 492 1628 492 1628 541 1628 c 0,115,116
 587 1628 587 1628 631 1614 c 0,117,118
 672 1599 672 1599 704 1572 c 0,119,120
 736 1543 736 1543 752 1504 c 0,121,122
 770 1465 770 1465 770 1415 c 0,92,93
653 1413 m 128,-1,124
 653 1465 653 1465 622 1496 c 0,125,126
 589 1526 589 1526 541 1526 c 0,127,128
 490 1526 490 1526 460 1496 c 0,129,130
 428 1467 428 1467 428 1413 c 0,131,132
 428 1361 428 1361 456 1330 c 0,133,134
 486 1300 486 1300 541 1300 c 0,135,136
 589 1300 589 1300 622 1330 c 0,137,123
 653 1361 653 1361 653 1413 c 128,-1,124
EndSplineSet
EndChar

StartChar: Scommaaccent
Encoding: 536 536 329
Width: 1063
GlyphClass: 2
Flags: W
LayerCount: 2
Fore
SplineSet
969 391 m 0,0,1
 969 291 969 291 934 218 c 1,2,3
 902 141 902 141 836 88 c 0,4,5
 771 35 771 35 680 8 c 0,6,7
 590 -20 590 -20 473 -20 c 0,8,9
 362 -20 362 -20 266 -2 c 0,10,11
 168 14 168 14 104 49 c 1,12,-1
 104 227 l 1,13,14
 139 210 139 210 182 196 c 0,15,16
 219 182 219 182 273 168 c 0,17,18
 307 159 307 159 372 148 c 0,19,20
 431 141 431 141 473 141 c 0,21,22
 632 141 632 141 710 201 c 0,23,24
 786 262 786 262 786 373 c 0,25,26
 786 425 786 425 772 467 c 0,27,28
 757 507 757 507 720 540 c 0,29,30
 687 572 687 572 623 606 c 0,31,32
 553 640 553 640 469 674 c 0,33,34
 384 707 384 707 314 750 c 0,35,36
 249 793 249 793 206 844 c 0,37,38
 163 898 163 898 144 962 c 0,39,40
 123 1028 123 1028 123 1112 c 0,41,42
 123 1199 123 1199 155 1269 c 0,43,44
 186 1338 186 1338 245 1386 c 0,45,46
 304 1433 304 1433 384 1458 c 0,47,48
 462 1483 462 1483 561 1483 c 0,49,50
 684 1483 684 1483 775 1460 c 0,51,52
 865 1440 865 1440 944 1403 c 1,53,-1
 877 1247 l 1,54,55
 815 1274 815 1274 730 1298 c 0,56,57
 646 1319 646 1319 559 1319 c 0,58,59
 438 1319 438 1319 370 1262 c 0,60,61
 303 1207 303 1207 303 1110 c 0,62,63
 303 1052 303 1052 318 1012 c 0,64,65
 332 972 332 972 368 936 c 0,66,67
 403 902 403 902 460 874 c 0,68,69
 520 843 520 843 602 811 c 0,70,71
 688 777 688 777 762 737 c 0,72,73
 828 700 828 700 876 651 c 0,74,75
 922 604 922 604 946 540 c 0,76,77
 969 476 969 476 969 391 c 0,0,1
367 -426 m 1,78,79
 378 -400 378 -400 391 -363 c 0,80,81
 401 -334 401 -334 416 -283 c 0,82,83
 421 -265 421 -265 438 -200 c 0,84,85
 446 -164 446 -164 451 -125 c 1,86,-1
 629 -125 l 1,87,-1
 629 -145 l 1,88,89
 623 -170 623 -170 608 -208 c 0,90,91
 586 -261 586 -261 570 -290 c 0,92,93
 549 -331 549 -331 521 -377 c 0,94,95
 496 -417 496 -417 465 -453 c 1,96,-1
 367 -453 l 1,97,-1
 367 -426 l 1,78,79
EndSplineSet
EndChar

StartChar: scommaaccent
Encoding: 537 537 330
Width: 924
GlyphClass: 2
Flags: W
LayerCount: 2
Fore
SplineSet
831 301 m 0,0,1
 831 222 831 222 802 161 c 0,2,3
 774 103 774 103 718 60 c 0,4,5
 661 19 661 19 587 0 c 0,6,7
 509 -20 509 -20 414 -20 c 0,8,9
 305 -20 305 -20 227 -2 c 0,10,11
 148 15 148 15 90 49 c 1,12,-1
 90 215 l 1,13,14
 117 201 117 201 159 184 c 0,15,16
 192 169 192 169 239 156 c 0,17,18
 269 147 269 147 326 136 c 0,19,20
 377 129 377 129 414 129 c 0,21,22
 477 129 477 129 524 140 c 0,23,24
 570 150 570 150 598 172 c 0,25,26
 626 190 626 190 640 222 c 0,27,28
 653 249 653 249 653 287 c 0,29,30
 653 319 653 319 643 343 c 0,31,32
 633 368 633 368 606 392 c 0,33,34
 583 415 583 415 534 442 c 0,35,36
 495 464 495 464 416 498 c 0,37,38
 341 531 341 531 286 559 c 0,39,40
 229 589 229 589 189 626 c 128,-1,41
 149 663 149 663 128 712 c 0,42,43
 106 759 106 759 106 827 c 0,44,45
 106 897 106 897 134 952 c 0,46,47
 160 1005 160 1005 211 1043 c 0,48,49
 258 1079 258 1079 331 1099 c 0,50,51
 400 1118 400 1118 487 1118 c 0,52,53
 584 1118 584 1118 664 1097 c 0,54,55
 747 1075 747 1075 817 1042 c 1,56,-1
 754 895 l 1,57,58
 691 923 691 923 620 946 c 0,59,60
 553 967 553 967 481 967 c 0,61,62
 380 967 380 967 330 934 c 0,63,64
 281 900 281 900 281 838 c 0,65,66
 281 804 281 804 292 777 c 0,67,68
 305 749 305 749 332 728 c 0,69,70
 364 703 364 703 407 682 c 0,71,72
 458 656 458 656 524 629 c 0,73,74
 598 598 598 598 652 569 c 0,75,76
 705 541 705 541 749 502 c 0,77,78
 789 463 789 463 810 416 c 0,79,80
 831 368 831 368 831 301 c 0,0,1
298 -426 m 1,81,82
 308 -400 308 -400 322 -363 c 0,83,84
 332 -334 332 -334 347 -283 c 0,85,86
 358 -243 358 -243 368 -200 c 0,87,88
 376 -167 376 -167 382 -125 c 1,89,-1
 560 -125 l 1,90,-1
 560 -145 l 1,91,92
 553 -173 553 -173 538 -208 c 0,93,94
 520 -254 520 -254 501 -290 c 0,95,96
 480 -331 480 -331 452 -377 c 0,97,98
 427 -417 427 -417 396 -453 c 1,99,-1
 298 -453 l 1,100,-1
 298 -426 l 1,81,82
EndSplineSet
EndChar

StartChar: circumflex
Encoding: 710 710 331
Width: 1182
GlyphClass: 2
Flags: W
LayerCount: 2
Fore
SplineSet
922 1241 m 1,0,-1
 801 1241 l 1,1,2
 746 1278 746 1278 696 1324 c 0,3,4
 642 1372 642 1372 590 1427 c 1,5,6
 544 1380 544 1380 483 1324 c 0,7,8
 436 1279 436 1279 379 1241 c 1,9,-1
 258 1241 l 1,10,-1
 258 1268 l 1,11,12
 316 1333 316 1333 318 1335 c 0,13,14
 347 1367 347 1367 386 1414 c 0,15,16
 412 1445 412 1445 448 1494 c 0,17,18
 479 1537 479 1537 494 1569 c 1,19,-1
 686 1569 l 1,20,21
 701 1537 701 1537 732 1494 c 0,22,23
 768 1445 768 1445 794 1414 c 0,24,25
 815 1388 815 1388 862 1335 c 0,26,27
 863 1334 863 1334 922 1268 c 1,28,-1
 922 1241 l 1,0,-1
EndSplineSet
EndChar

StartChar: caron
Encoding: 711 711 332
Width: 1182
GlyphClass: 2
Flags: W
LayerCount: 2
Fore
SplineSet
922 1542 m 1,0,1
 863 1476 863 1476 862 1475 c 0,2,3
 815 1422 815 1422 794 1396 c 0,4,5
 760 1356 760 1356 732 1316 c 0,6,7
 703 1277 703 1277 686 1241 c 1,8,-1
 494 1241 l 1,9,10
 477 1277 477 1277 448 1316 c 0,11,12
 420 1356 420 1356 386 1396 c 0,13,14
 347 1443 347 1443 318 1475 c 0,15,16
 316 1477 316 1477 258 1542 c 1,17,-1
 258 1569 l 1,18,-1
 379 1569 l 1,19,20
 436 1531 436 1531 483 1486 c 0,21,22
 536 1438 536 1438 590 1382 c 1,23,24
 648 1443 648 1443 696 1486 c 0,25,26
 746 1532 746 1532 801 1569 c 1,27,-1
 922 1569 l 1,28,-1
 922 1542 l 1,0,1
EndSplineSet
EndChar

StartChar: macron
Encoding: 175 175 333
Width: 1141
GlyphClass: 2
Flags: W
LayerCount: 2
Fore
SplineSet
283 1391 m 1,0,-1
 858 1391 l 1,1,-1
 858 1241 l 1,2,-1
 283 1241 l 1,3,-1
 283 1391 l 1,0,-1
EndSplineSet
EndChar

StartChar: breve
Encoding: 728 728 334
Width: 1182
GlyphClass: 2
Flags: W
LayerCount: 2
Fore
SplineSet
891 1518 m 1,0,1
 886 1454 886 1454 865 1406 c 0,2,3
 842 1356 842 1356 804 1319 c 0,4,5
 767 1282 767 1282 712 1262 c 0,6,7
 656 1241 656 1241 586 1241 c 0,8,9
 517 1241 517 1241 458 1260 c 0,10,11
 402 1282 402 1282 368 1316 c 0,12,13
 329 1355 329 1355 312 1404 c 0,14,15
 292 1452 292 1452 289 1518 c 1,16,-1
 397 1518 l 1,17,18
 401 1476 401 1476 415 1450 c 0,19,20
 428 1426 428 1426 453 1412 c 0,21,22
 476 1401 476 1401 510 1396 c 0,23,24
 544 1393 544 1393 588 1393 c 0,25,26
 630 1393 630 1393 656 1398 c 0,27,28
 690 1401 690 1401 714 1416 c 1,29,30
 740 1427 740 1427 757 1454 c 0,31,32
 774 1478 774 1478 778 1518 c 1,33,-1
 891 1518 l 1,0,1
EndSplineSet
EndChar

StartChar: dotaccent
Encoding: 729 729 335
Width: 530
GlyphClass: 2
Flags: W
LayerCount: 2
Fore
SplineSet
160 1395 m 0,0,1
 160 1455 160 1455 190 1482 c 0,2,3
 222 1509 222 1509 266 1509 c 0,4,5
 288 1509 288 1509 308 1502 c 0,6,7
 327 1496 327 1496 342 1482 c 0,8,9
 357 1467 357 1467 364 1446 c 0,10,11
 373 1425 373 1425 373 1395 c 0,12,13
 373 1339 373 1339 342 1308 c 1,14,15
 308 1280 308 1280 266 1280 c 0,16,17
 221 1280 221 1280 190 1308 c 0,18,19
 160 1336 160 1336 160 1395 c 0,0,1
EndSplineSet
EndChar

